<svg width="1446" height="758" viewBox="0 0 1446 758" fill="none" xmlns="http://www.w3.org/2000/svg">
<g clip-path="url(#clip0)">
<path fill-rule="evenodd" clip-rule="evenodd" d="M639.653 170.147C734.451 124.843 840.578 177.778 934.035 225.787C1020.03 269.965 1104.89 327.477 1128.45 421.243C1151.99 514.948 1116.21 615.322 1049.46 685.175C990.334 747.048 899.802 749.73 814.224 750.082C731.448 750.423 646.116 744.77 586.753 687.08C519.502 621.724 482.522 530.294 492.069 437.005C502.957 330.615 543.161 216.261 639.653 170.147Z" fill="#F0F3BD"/>
<g clip-path="url(#clip1)">
<path fill-rule="evenodd" clip-rule="evenodd" d="M358.816 374.528C349.719 381.129 351.118 394.13 353.918 403.531C357.917 417.432 366.014 430.233 375.112 441.334C391.408 461.035 419.001 483.037 444.394 465.836C467.088 450.435 481.385 419.432 486.283 393.33C487.783 385.229 489.882 373.228 482.684 367.127C472.087 358.127 453.392 359.827 440.595 360.927C432.197 361.727 424.099 364.227 415.702 363.027C396.507 360.327 374.912 362.827 358.816 374.528Z" fill="#F9537A"/>
<path fill-rule="evenodd" clip-rule="evenodd" d="M750.715 477.437C732.32 500.839 700.928 504.539 673.135 504.339C656.388 504.393 639.678 502.785 623.248 499.539C614.407 497.691 605.692 495.286 597.155 492.338C591.556 490.438 583.158 489.438 580.759 483.438C574.461 467.536 579.059 447.535 581.659 431.333C582.958 423.132 583.958 414.832 585.258 406.631C586.058 401.331 586.458 395.53 588.657 390.63C591.256 384.829 594.555 386.029 599.954 387.629C607.452 389.83 615.25 390.73 622.948 391.93C641.843 394.83 658.339 400.63 675.534 408.931C692.53 417.132 709.026 425.133 724.122 436.534C731.682 442.147 738.56 448.625 744.617 455.835C749.415 461.236 756.514 470.036 750.715 477.437V477.437ZM670.236 581.246C670.136 583.746 641.243 576.146 637.444 575.346C612.551 569.745 587.057 563.344 563.563 553.244C541.569 543.843 522.174 533.042 504.879 516.24C496.903 508.479 489.455 500.193 482.584 491.438C479.085 487.038 474.386 487.538 470.487 483.838C466.988 480.537 464.289 477.837 465.389 472.837C474.087 475.137 490.182 489.538 499.28 482.237C504.479 478.037 497.281 473.737 493.981 471.337C487.871 466.707 482.363 461.332 477.586 455.335C485.966 456.976 493.988 460.091 501.28 464.536C504.579 466.536 515.776 473.637 518.375 466.836C519.975 462.636 512.377 457.435 509.977 455.135C504.179 449.435 497.88 442.834 494.781 435.233C502.379 433.433 509.577 439.334 514.876 444.134C520.674 449.435 527.773 455.035 532.571 461.236C535.071 464.436 535.571 468.136 537.57 471.537C539.77 475.437 543.269 478.737 546.668 481.537C553.166 487.038 560.664 491.038 568.462 494.439C586.389 501.963 605.052 507.594 624.148 511.24C633.308 513.04 642.607 514.044 651.941 514.24C659.239 514.44 662.538 516.64 665.337 523.441C672.735 541.943 671.336 562.044 670.236 581.246ZM452.992 442.134C448.793 446.134 443.295 448.535 438.796 452.435C434.81 455.95 430.566 459.159 426.099 462.036C421.5 464.936 418.001 462.936 413.802 460.236C408.903 457.135 403.305 455.935 398.206 453.135C380.711 443.634 359.416 420.332 362.615 398.93C364.015 389.83 368.714 380.929 377.212 376.828C384.91 373.128 396.207 371.028 404.405 374.128C409.103 375.928 412.402 379.729 415.402 383.629C418.901 388.129 420.2 387.429 423.8 383.129C430.098 375.428 440.595 368.728 450.993 368.828C456.13 368.91 461.197 370.033 465.889 372.128C466.489 372.428 466.888 373.328 467.488 373.628C468.288 374.028 469.488 373.228 470.088 373.528C471.487 374.428 472.787 377.028 473.587 378.429C476.686 383.929 482.384 394.63 476.686 399.23C476.686 399.23 476.986 405.431 476.886 406.131C476.381 409.696 475.265 413.147 473.587 416.332C468.488 426.633 461.19 434.533 452.992 442.134V442.134ZM461.39 528.441C457.391 529.642 453.092 517.14 456.891 515.14C460.59 513.24 464.989 527.341 461.39 528.441ZM398.406 513.44C397.006 518.141 396.407 523.541 393.008 527.441C389.908 523.741 389.608 516.94 392.608 513.14C394.407 510.94 399.906 508.24 398.406 513.44V513.44ZM526.773 430.233C526.773 430.333 531.572 432.633 529.272 435.233C525.973 438.734 526.373 431.933 526.773 430.233ZM546.768 391.53C546.668 396.33 536.57 395.13 536.67 390.33C536.67 384.429 546.868 386.429 546.768 391.53ZM534.671 351.426C535.671 347.026 553.366 340.925 552.866 348.626C552.566 352.426 532.471 360.727 534.671 351.426ZM353.518 500.439C351.518 502.839 348.719 503.739 346.32 505.54C343.82 507.44 342.021 509.94 339.921 512.24C333.923 518.441 326.725 523.541 320.326 529.142C308.529 539.542 297.132 550.743 284.036 559.644C260.542 575.446 233.349 584.046 206.356 591.647C204.156 592.247 197.658 594.847 195.459 592.947C193.059 590.947 194.259 583.746 194.359 581.046C194.759 569.945 196.058 558.744 195.958 547.643C195.858 543.143 194.559 536.642 196.958 532.442C199.557 527.841 206.956 526.441 211.554 524.641C225.451 519.341 238.847 510.34 251.144 502.039C266.24 491.838 281.536 481.437 297.032 471.937C312.228 462.636 329.024 456.335 346.02 451.035C346.819 452.735 338.722 458.035 337.822 458.735C333.423 462.336 328.524 466.036 325.225 470.736C322.926 474.037 320.526 481.637 326.925 481.837C330.024 481.937 334.623 478.937 337.522 477.937C342.215 476.372 347.03 475.201 351.918 474.437C347.719 479.037 333.423 487.438 336.022 495.139C338.522 502.639 353.118 493.939 358.117 493.939C357.217 496.639 355.217 498.439 353.518 500.439V500.439ZM181.362 521.341C172.065 524.641 162.467 526.441 152.87 528.641C143.672 530.642 135.174 532.142 125.777 531.042C112.78 529.442 98.3836 524.041 96.784 509.24C94.7845 491.738 107.181 475.737 117.779 463.136C130.711 447.948 145.147 434.109 160.867 421.832C176.595 409.504 193.429 398.656 211.154 389.429C224.651 382.429 239.847 378.229 254.143 372.928C256.843 371.928 264.341 368.428 266.94 371.328C269.04 373.628 266.24 377.628 265.24 379.729C263.441 384.029 263.141 388.229 262.741 392.83C260.642 413.232 258.142 433.633 256.943 454.035C256.643 459.736 256.043 465.736 256.343 471.437C256.543 474.637 258.142 478.637 257.043 481.737C254.943 487.638 245.246 491.638 240.147 494.239C230.949 498.939 221.352 502.539 212.054 507.04C201.957 512.24 192.059 517.641 181.362 521.341ZM310.729 388.929C313.328 388.529 317.127 387.929 319.427 389.53C322.426 391.73 321.626 394.73 318.827 396.23C316.627 397.43 311.529 397.83 309.429 396.73C305.83 394.73 306.43 389.429 310.729 388.929ZM324.925 436.134C322.826 439.534 315.328 441.834 315.927 435.433C316.527 429.833 328.724 429.733 324.925 436.134ZM322.126 338.925C325.425 340.225 331.523 341.325 332.523 345.626C333.423 349.626 329.624 349.326 326.925 348.226C324.625 347.326 314.728 338.925 322.126 338.925V338.925ZM843.391 490.938C841.492 483.338 842.891 475.037 841.892 467.236C840.876 459.874 838.997 452.657 836.293 445.734C830.394 430.033 823.496 415.932 813.899 402.231C795.703 376.328 774.709 353.526 749.215 334.625C724.071 315.852 696.318 300.859 666.837 290.121C635.645 278.82 604.153 274.92 571.261 272.719C561.464 272.119 551.567 271.319 541.769 270.019C534.571 269.119 525.673 268.019 518.575 270.219C514.176 271.619 511.677 275.52 516.476 278.02C519.875 279.82 524.374 280.02 528.173 280.52C523.574 295.021 516.176 309.623 504.379 319.623C492.882 329.424 477.486 332.725 462.889 335.225C454.991 336.525 446.194 337.625 438.196 337.025C433.097 336.625 429.198 334.325 427.099 339.525C425.699 343.125 424.999 347.126 423.1 341.625C420.9 335.125 419.801 335.225 412.902 333.325C398.806 329.524 382.71 326.124 370.513 318.023C357.817 309.623 353.318 295.921 346.22 283.22C344.42 280.12 339.121 273.72 341.921 270.119C344.42 266.819 352.418 267.119 356.117 266.819C360.016 266.419 363.915 266.419 367.814 266.319C370.113 266.219 374.612 267.119 373.712 263.819C372.313 258.718 357.617 259.418 354.018 259.318C347.209 259.083 340.392 259.351 333.623 260.118C299.888 263.981 266.521 270.57 233.849 279.82C170.965 297.522 109.981 330.224 64.0925 377.328C20.0039 422.532 6.10744 497.739 33.2004 555.444C47.2968 585.446 77.7889 597.747 107.481 607.648C123.077 612.849 139.673 617.049 156.269 616.049C164.267 615.549 171.765 613.449 179.563 611.849C182.962 611.149 186.761 610.049 190.26 610.349C192.859 610.549 195.459 612.949 197.858 611.649C199.657 610.749 200.357 608.148 202.557 607.048C205.156 605.748 208.255 605.248 211.054 604.548C218.753 602.648 226.251 599.648 233.849 597.147C241.57 594.444 249.145 591.34 256.543 587.847C260.342 586.146 269.04 579.246 271.539 584.246C272.639 586.546 272.139 590.947 272.439 593.447C272.939 597.647 273.438 601.848 274.138 606.148C275.538 615.449 277.137 624.65 278.837 633.851C281.836 650.452 285.735 666.353 292.234 682.055C297.432 694.556 301.931 708.657 311.529 718.658C313.51 720.805 316.025 722.39 318.817 723.25C321.608 724.111 324.578 724.217 327.424 723.558C334.223 721.958 337.622 715.758 341.821 710.757C350.918 699.656 366.014 691.256 380.011 688.155C397.106 684.455 413.702 689.855 429.998 694.556C447.194 699.456 464.789 704.157 481.685 710.057C497.48 715.558 514.476 723.658 531.572 722.958C546.468 722.358 560.364 710.257 571.161 700.956C581.959 691.656 595.455 678.054 610.951 679.154C618.649 679.655 625.647 683.455 633.145 684.955C641.343 686.655 650.141 686.855 658.539 687.455C668.936 688.255 692.23 685.555 696.029 672.954C696.629 671.054 696.629 667.253 694.13 666.553C691.83 665.853 690.731 668.554 688.631 668.354C684.332 668.154 680.933 660.553 678.534 657.553C668.936 645.752 655.64 636.851 644.842 626.15C632.646 614.049 622.248 599.448 613.051 584.946C617.25 583.846 621.648 585.646 625.747 586.546C630.646 587.547 635.445 588.847 640.244 590.147C645.542 591.647 650.941 592.647 656.339 593.747C660.338 594.547 665.737 594.847 669.336 596.847C672.535 598.648 674.235 600.548 678.234 601.048C682.233 601.548 686.332 601.148 690.331 601.148C701.228 601.048 712.025 600.848 722.822 599.748C761.012 595.647 801.602 579.546 824.596 547.443C830.952 538.726 835.849 529.031 839.092 518.741C841.292 510.64 845.591 499.339 843.391 490.938" fill="black"/>
<path fill-rule="evenodd" clip-rule="evenodd" d="M484.784 121.006C494.881 121.106 504.279 124.106 513.576 127.507C521.774 130.507 530.572 133.207 537.27 139.208C549.267 149.909 552.366 167.61 554.366 182.811C556.765 201.713 548.667 217.614 541.869 234.716C535.471 250.717 523.674 263.718 509.777 273.519C502.479 278.72 494.381 281.82 485.884 284.52C477.286 287.32 468.988 291.021 459.79 291.021C445.794 291.021 427.899 284.32 422 270.619C419.301 264.318 421.9 263.218 427.399 266.619C435.297 271.519 442.795 276.92 451.992 279.12C469.788 283.42 491.182 276.82 506.778 268.119C522.374 259.418 532.871 246.417 539.87 230.116C546.968 213.714 549.667 197.513 546.968 179.911C544.668 164.91 540.07 151.209 526.573 143.108C497.481 125.507 458.191 127.007 432.297 149.809C428.698 152.909 425.199 156.009 421.6 159.009C419.301 160.91 416.501 163.21 416.901 166.51C417.201 169.31 423.2 180.111 416.002 176.811C410.103 174.111 407.004 168.81 399.906 168.21C392.408 167.51 383.41 173.311 381.111 180.611C378.911 187.612 382.81 197.113 388.809 201.113C392.508 203.613 396.607 203.213 400.806 203.113C402.905 203.113 408.704 202.413 410.103 204.613C412.603 208.514 403.905 212.614 401.105 213.514C394.307 215.614 386.309 213.114 382.31 207.114C378.203 200.931 375.726 193.81 375.112 186.412C374.494 179.345 376.33 172.281 380.311 166.41C384.71 160.21 393.707 153.309 401.805 155.509C405.304 156.409 408.104 160.109 411.603 160.71C413.802 161.11 412.902 161.41 414.702 159.809C415.802 158.809 416.901 156.909 418.001 155.709C424.1 148.709 430.098 141.308 437.496 135.707C450.593 125.507 468.288 120.806 484.784 121.006ZM447.993 259.118C449.593 255.418 452.492 262.018 453.292 263.118C454.992 265.319 458.991 267.019 458.791 270.219C458.491 275.519 451.293 274.519 448.893 271.819C446.094 268.619 446.394 262.818 447.993 259.118ZM499.28 234.016C503.179 240.116 498.38 246.617 495.381 252.017C492.482 257.118 489.683 263.018 486.283 267.819C480.585 275.819 468.188 267.119 467.788 258.918C467.488 252.617 471.987 255.318 474.886 257.718C477.886 260.118 479.285 260.718 482.384 258.118C488.583 252.818 491.382 243.817 495.681 237.116C496.481 235.716 498.08 234.916 499.28 234.016ZM510.477 236.016C511.477 238.916 509.378 246.717 515.276 245.917C518.475 245.517 519.175 240.816 520.875 238.816C526.573 232.016 524.873 244.917 523.374 248.117C520.075 255.218 510.877 260.118 506.278 251.117C504.72 247.59 504.437 243.63 505.479 239.916C505.878 237.916 508.578 230.616 510.477 236.016ZM458.191 222.115C457.691 225.515 454.492 232.416 458.391 234.816C461.89 237.016 467.888 232.316 470.588 230.316C473.387 228.315 479.685 222.415 479.885 229.715C479.985 233.416 476.286 237.816 473.687 240.016C468.088 244.517 456.291 248.617 452.192 240.116C449.893 235.416 451.193 228.815 452.692 224.115C453.692 220.215 459.39 213.814 458.191 222.115V222.115ZM532.172 203.313C534.471 206.013 539.87 211.914 536.97 215.714C533.471 220.115 527.873 212.014 525.673 209.714C523.674 207.714 519.475 201.813 521.274 198.813C524.174 193.712 530.172 200.913 532.172 203.313ZM496.081 191.812C503.579 196.713 493.682 200.213 489.483 200.613C484.284 201.113 477.686 201.513 472.987 198.913C466.289 195.313 468.488 189.912 474.986 188.612C481.585 187.312 490.282 188.012 496.081 191.812V191.812ZM398.506 176.211C404.005 177.311 410.303 178.711 412.203 184.712C414.102 190.912 411.403 193.012 405.704 191.612C400.506 190.312 392.708 189.012 389.708 183.912C386.209 177.811 393.407 175.211 398.506 176.211V176.211Z" fill="black"/>
<path fill-rule="evenodd" clip-rule="evenodd" d="M94.8846 309.923C92.985 315.923 83.6874 319.923 78.9887 323.524C62.5212 336.1 46.7987 349.624 31.9008 364.027C24.2028 371.528 18.4043 380.729 11.806 389.029C10.2064 391.03 7.30717 395.63 4.108 395.23C0.608902 394.73 -0.0909181 388.729 0.00905612 386.129C0.408953 377.128 8.60684 368.528 14.4053 362.327C21.0036 355.426 28.0018 348.626 35.2 342.325C43.0979 335.325 51.6957 329.424 60.3935 323.524C68.9912 317.823 77.1891 311.123 86.0868 305.922C90.1858 303.422 97.084 302.522 94.8846 309.923ZM666.337 253.118C673.135 253.318 679.833 255.618 686.232 257.618C700.428 262.218 713.825 268.519 727.121 275.12C750.548 286.779 772.753 300.749 793.404 316.823C797.691 320.021 802.164 322.959 806.801 325.624C809.8 327.424 814.099 329.524 815.199 333.125C818.098 342.225 803.302 333.125 801.202 331.824L798.203 330.024C754.414 302.922 710.725 276.52 661.238 261.018C660.666 260.897 660.133 260.634 659.688 260.253C659.243 259.873 658.901 259.387 658.692 258.84C658.483 258.293 658.415 257.702 658.493 257.122C658.571 256.542 658.793 255.99 659.139 255.518C660.938 252.818 663.838 253.018 666.337 253.118ZM92.8851 272.019C92.5851 274.819 89.4859 275.42 87.2865 276.32C79.3886 279.62 71.3906 282.42 63.4927 285.82C48.8964 292.021 35.5999 301.122 20.3038 305.822C16.8047 306.922 16.3048 303.422 17.2046 301.022C18.2044 298.322 21.3036 296.521 23.603 294.921C30.1013 290.521 37.4994 287.321 44.6975 284.22C51.7957 281.12 59.1938 278.82 66.4919 276.22C73.2901 273.819 81.1881 269.419 88.4862 269.019H88.7861C91.2855 269.019 93.185 268.819 92.8851 272.019V272.019ZM678.834 230.116C671.836 228.115 678.434 223.715 682.633 224.015C687.232 224.315 691.73 226.515 696.029 227.815C709.192 231.563 722.003 236.448 734.319 242.417C736.219 243.317 744.417 247.717 738.918 249.717C735.119 251.117 726.321 245.217 723.122 243.917C708.926 237.916 693.63 234.316 678.834 230.116Z" fill="black"/>
<path fill-rule="evenodd" clip-rule="evenodd" d="M401.405 244.417C402.305 241.817 413.002 213.914 408.803 213.114C404.305 212.214 398.406 228.416 397.106 231.316C392.308 242.117 389.508 253.718 387.309 265.319C385.809 273.419 384.41 281.62 384.91 289.921C385.309 296.221 387.909 297.221 392.208 301.122C392.196 281.848 395.302 262.698 401.405 244.417" fill="black"/>
</g>
<path fill-rule="evenodd" clip-rule="evenodd" d="M180.548 1.0853C210.21 0.246049 243.783 -4.12926 263.747 13.6026C284.606 32.1294 284.868 60.8952 274.431 84.4718C265.277 105.153 239.882 116.124 214.694 124.418C191.957 131.905 168.215 133.038 144.759 127.172C114.418 119.585 77.5126 112.404 68.4099 87.8357C59.0088 62.4615 80.6667 36.4361 104.353 18.1125C124.372 2.62529 152.839 1.86929 180.548 1.0853Z" fill="#E3D8F1"/>
<path fill-rule="evenodd" clip-rule="evenodd" d="M1343.87 216.328C1391.19 253.448 1434.51 297.448 1441.77 357.11C1449.91 424.013 1433.72 495.445 1383.26 540.068C1331.6 585.759 1258.85 588.79 1190.45 579.366C1114.81 568.943 1021.3 557.485 993.51 486.362C966.546 417.343 1042.83 357.978 1078.65 293.193C1108.19 239.777 1120.31 167.963 1178.96 150.965C1238.67 133.661 1294.91 177.93 1343.87 216.328Z" fill="#DBEAFE"/>
</g>
<defs>
<clipPath id="clip0">
<rect width="1446" height="758" fill="white"/>
</clipPath>
<clipPath id="clip1">
<rect width="844" height="603" fill="white" transform="translate(0 121)"/>
</clipPath>
</defs>
</svg>
