<svg width="518" height="193" viewBox="0 0 518 193" fill="none" xmlns="http://www.w3.org/2000/svg">
<g clip-path="url(#clip0)">
<path d="M223.9 92.2V79.3L274.3 7H295V77.35H308.95V92.2H295V115H278.2V92.2H223.9ZM278.95 24.4L243.55 77.35H278.95V24.4ZM323.119 58.9C323.119 41.6 326.019 28.1 331.819 18.4C337.719 8.59999 347.819 3.69999 362.119 3.69999C376.419 3.69999 386.469 8.59999 392.269 18.4C398.169 28.1 401.119 41.6 401.119 58.9C401.119 76.4 398.169 90.1 392.269 100C386.469 109.8 376.419 114.7 362.119 114.7C347.819 114.7 337.719 109.8 331.819 100C326.019 90.1 323.119 76.4 323.119 58.9ZM384.319 58.9C384.319 50.8 383.769 43.95 382.669 38.35C381.669 32.75 379.569 28.2 376.369 24.7C373.169 21.1 368.419 19.3 362.119 19.3C355.819 19.3 351.069 21.1 347.869 24.7C344.669 28.2 342.519 32.75 341.419 38.35C340.419 43.95 339.919 50.8 339.919 58.9C339.919 67.3 340.419 74.35 341.419 80.05C342.419 85.75 344.519 90.35 347.719 93.85C351.019 97.35 355.819 99.1 362.119 99.1C368.419 99.1 373.169 97.35 376.369 93.85C379.669 90.35 381.819 85.75 382.819 80.05C383.819 74.35 384.319 67.3 384.319 58.9ZM417.113 92.2V79.3L467.513 7H488.213V77.35H502.163V92.2H488.213V115H471.413V92.2H417.113ZM472.163 24.4L436.763 77.35H472.163V24.4Z" fill="black"/>
<rect x="225" y="160" width="282" height="29" fill="#F9537A"/>
<path fill-rule="evenodd" clip-rule="evenodd" d="M64.5305 106.39C64.9214 109.019 65.9037 111.33 66.7328 113.791C67.1246 114.955 67.7359 116.14 68.3358 117.21C68.7242 117.902 69.2166 119.547 69.9291 118.586C70.0474 119.087 69.892 119.333 70.0564 119.797C70.2883 120.451 71.4915 121.266 72.0146 121.77C72.5188 122.256 73.0733 122.628 73.6161 123.058C73.7235 123.143 73.9463 123.073 74.0332 123.172C74.1952 123.356 74.0439 123.611 74.1123 123.698C74.9629 124.767 76.4386 125.527 77.5445 126.314C79.1251 127.437 80.6979 128.56 82.2383 129.738C83.4557 130.669 84.617 131.65 85.8245 132.582C86.403 133.028 86.8405 133.471 87.2705 134.053C87.8041 134.775 87.8847 134.807 87.5136 135.554C86.8497 136.887 85.653 137.748 84.8536 138.945C83.9427 140.31 83.3566 141.836 82.119 142.975C81.5654 141.725 80.8504 143.552 81.7693 143.359C81.3423 144.627 80.3882 145.706 79.7515 146.898C78.9988 148.308 78.1759 149.588 77.2849 150.913C77.1941 150.585 77.1035 150.257 77.0124 149.928C76.1459 150.136 76.8397 150.772 76.9036 151.036C76.9577 151.259 77.1459 151.282 77.0116 151.768C76.9108 152.133 76.5609 152.444 76.339 152.747C75.8399 153.429 75.3752 154.131 74.904 154.832C74.44 155.522 74.278 156.091 73.979 156.765C73.7122 157.367 73.4666 157.252 73.0369 157.695C72.5924 158.153 72.1501 158.951 71.7543 159.478C70.576 161.047 69.5173 162.844 68.7129 164.629C67.9462 166.33 66.5306 167.526 65.8835 169.331C65.5525 170.252 65.4315 171.221 65.1447 172.152C64.8764 173.022 64.4372 173.83 64.2712 174.732C64.1332 175.481 64.2221 176.349 64.1552 177.006C64.1005 177.542 63.8761 178.366 63.9425 179.123C64.0833 180.716 64.7437 182.099 65.5318 183.427C61.9357 184.647 57.8444 184.99 54.0712 184.902C52.143 184.856 49.9455 184.838 48.0587 185.285C46.9675 185.543 46.1294 185.865 44.9834 185.775C43.8383 185.685 42.6943 185.577 41.5497 185.478C41.8839 184.804 42.975 183.955 43.5875 183.438C43.9412 183.139 44.5242 183.069 44.7947 182.78C45.1047 182.45 45.1993 181.627 45.3096 181.229C46.1584 178.18 46.7851 175.103 47.3167 171.984C48.2558 166.473 48.62 160.862 48.9669 155.316C48.9918 154.917 49.1865 154.435 49.1765 154.056C49.1608 153.444 49.039 153.1 49.0854 152.517C49.1149 152.148 49.5549 151.655 49.5359 151.33C49.519 151.043 49.029 151.261 49.0298 150.831C49.031 150.212 49.914 149.321 50.0985 148.766C50.1696 148.551 49.9069 148.263 49.881 148.022L49.8796 147.979C49.891 147.986 50.0853 147.11 50.0932 147.075C50.1576 146.795 50.4099 146.706 50.3972 146.355C50.3862 146.052 49.9427 145.657 50.1823 145.342C50.3461 145.127 50.942 145.472 51.0766 145.228C51.2498 144.913 50.4888 143.838 50.5732 143.351C50.7107 142.558 51.276 141.754 51.4684 140.939C51.554 140.576 51.4592 140.009 51.7407 139.708C52.1999 139.219 52.5995 139.72 53.2621 139.557C52.5863 138.982 52.4552 138.479 52.6549 137.641C52.8109 136.987 53.1219 136.26 53.8366 136.913C53.7301 135.936 53.7338 135.784 54.4623 135.044C54.8157 134.685 55.1966 134.081 55.6191 133.839C55.7469 133.704 55.8749 133.57 56.003 133.436C56.1762 133.616 56.3821 133.719 56.6207 133.742C58.6637 133.633 59.6842 133.214 61.5608 134.441C62.3522 134.959 63.1411 135.346 63.8215 136.019C64.5802 136.771 65.1922 137.655 66.005 138.357C66.9137 139.142 67.8105 139.787 68.6211 140.687C69.2912 141.432 69.9359 142.275 70.8338 142.73C70.9025 141.653 70.3145 140.69 69.8003 139.749C69.7387 139.637 69.2912 139.334 69.3009 139.368C69.2465 139.179 69.4527 139.016 69.3888 138.849C70.1672 139.553 70.9719 140.6 71.8634 141.127C73.3184 141.989 72.672 140.308 72.3942 139.444C71.6028 136.98 70.169 134.619 68.5113 132.63C65.6107 129.152 60.7721 125.268 56.1417 127.458C51.5525 129.628 49.1349 133.273 47.8181 138.121C46.2899 143.748 45.5884 149.125 45.4431 154.954C45.3597 158.291 45.0198 161.601 44.6694 164.92C44.3272 168.158 44.1872 171.666 43.5346 174.846C43.125 174.249 42.8834 173.798 42.679 173.128C42.5959 172.856 42.7002 172.591 42.5585 172.324C42.4931 172.201 42.1617 172.216 42.0998 172.104C41.5914 171.186 40.8771 169.922 40.6435 168.866C40.5202 168.309 40.6328 167.984 40.3947 167.477C40.171 167.002 40.0585 167.452 39.9734 166.866C39.9614 166.785 40.3363 166.651 40.2207 166.271C39.9289 165.312 39.723 166.221 39.583 166.215C39.2943 166.203 39.9464 164.236 39.895 163.927C39.8359 163.571 39.6704 163.765 39.5898 163.506C39.5171 163.272 39.4283 162.934 39.3736 162.609C39.2082 161.619 38.8333 161.296 38.8163 160.225C38.7961 158.932 38.3174 158.099 38.103 156.864C38.0634 156.637 38.3117 156.381 38.2668 156.182C38.1737 155.768 37.8739 155.424 37.7574 154.986C37.5138 154.071 38 153.281 37.9323 152.399C37.9433 152.544 37.6588 151.75 37.6411 151.68C37.5385 151.277 37.5824 150.737 37.5013 150.298C37.4249 149.886 37.1716 149.336 37.3985 148.951C37.5535 148.688 37.9021 148.76 38.105 148.466C37.3595 148.225 37.516 148.488 37.2467 147.664C36.9897 146.878 36.9647 146.219 37.8163 146.739C37.6011 146.209 37.2006 145.558 37.1132 144.99C37.0336 144.471 37.2243 143.968 37.1696 143.452C37.0236 142.068 36.5976 141.226 37.3833 139.884C36.3483 139.354 36.7962 137.508 36.6358 136.505C36.4621 135.415 36.0383 134.373 36.8552 133.658C35.8194 132.913 36.346 130.497 36.3652 129.343C36.3837 128.239 36.2976 127.12 36.3106 125.838C36.3183 125.113 36.1144 124.615 35.9417 123.898C35.7188 122.975 35.9454 122.266 35.8693 121.372C35.8087 120.663 35.5409 119.949 35.5047 119.193C35.4675 118.422 35.5316 117.556 35.4231 116.799C35.3327 116.172 35.183 115.723 35.1673 115.045C35.1628 114.844 35.0649 114.484 35.1061 114.297C35.1046 114.304 35.3854 113.651 35.3834 113.939C35.3916 112.866 34.855 111.818 35.1363 110.51C35.3677 109.437 35.5616 109.613 36.6433 109.679C37.4966 109.732 38.3496 109.788 39.2047 109.792C40.3123 109.796 43.8743 109.027 44.6759 109.808C45.3398 110.456 44.9539 113.52 44.9991 114.445C45.0722 115.951 43.6317 116.412 43.2323 117.95C42.4709 120.883 43.7288 124.754 47.1609 125.005C50.3625 125.239 53.4338 122.604 52.9943 119.364C52.8179 118.064 52.2196 116.649 51.0903 115.888C49.9979 115.152 47.6773 115.707 46.9166 114.82C46.5617 114.406 46.7025 112.797 46.6613 112.257C46.6014 111.472 46.242 109.9 46.7591 109.528C47.3429 109.108 49.1461 109.1 49.8125 109.098C50.7569 109.095 51.6164 109.096 52.5536 108.938C54.6276 108.586 56.6953 108.6 58.7328 108.14C60.7557 107.684 62.6248 107.206 64.5305 106.39ZM89.2484 106.39C89.6697 106.38 90.5749 109.871 90.8135 110.487C91.4657 112.17 91.7329 113.869 92.0958 115.639C92.4683 117.456 92.8022 119.303 93.2848 121.094C93.6473 122.439 93.566 123.742 94.0537 125.097C93.9247 125.935 94.0405 127.384 93.1153 127.745C92.2788 128.071 91.7351 127.275 91.4244 126.585C90.5854 124.722 90.8548 122.235 90.549 120.232C90.188 117.867 90.1668 115.537 89.8837 113.169C89.6343 111.082 88.7897 108.447 89.2484 106.39ZM52.7279 58.5458C53.6453 59.5824 54.9925 59.1474 56.2009 59.0324C55.6881 60.199 54.9523 61.4473 54.9248 62.7534C54.9108 63.4311 55.275 64.0327 55.271 64.6791C55.2668 65.3201 54.7473 65.9182 54.501 66.5134C53.3944 69.1835 53.1268 72.8011 53.0854 75.6684C53 81.6001 54.7735 87.9182 58.5455 92.5689C59.3416 93.5502 60.2362 94.457 61.2364 95.2313C61.7803 95.6522 64.2855 96.6517 64.4028 97.2428C64.63 98.3872 62.0592 98.2742 61.3572 98.3767C59.8812 98.5921 58.422 98.9015 56.9437 99.1007C51.0195 99.8983 45.1715 100.535 39.1991 100.213C38.5383 100.177 37.3027 100.507 36.6782 100.242C35.9443 99.9312 36.1947 99.3121 36.2124 98.5884C36.2581 96.7302 35.9912 94.9028 35.8355 93.0568C35.7094 91.5634 36.0509 91.7626 37.1445 90.9362C38.2752 90.0815 39.3808 88.4946 39.75 87.1346C40.8019 87.9838 40.04 88.4405 40.1898 89.53C40.3725 90.8591 41.2699 90.6412 41.8618 89.7517C42.7799 88.372 42.6987 86.1912 41.8405 84.8123C41.072 83.5777 38.3297 81.6816 36.7738 82.2463C34.7037 82.9983 36.9568 85.5206 37.9363 86.0671C37.6946 86.7651 36.3574 87.3787 35.7616 87.7619C34.9343 88.2939 33.861 88.6026 32.9047 88.8973C30.3533 89.6831 27.8739 89.7973 25.2409 89.4121C22.7108 89.0421 19.8134 88.2174 18.1812 86.1411C17.4753 85.2433 16.8263 83.8766 17.5035 82.7522C18.1135 81.7387 19.6217 81.6687 20.3634 80.6869C20.6836 80.2633 20.8376 79.7011 21.1319 79.2907C21.6107 78.6238 21.418 78.7425 22.3181 78.819C23.7751 78.9427 25.3288 79.0367 26.7636 78.6854C27.8419 78.4211 28.8921 77.9275 29.9472 77.6126C31.0673 77.2782 32.1291 76.5754 32.9953 75.818C34.993 74.0706 36.9488 72.1715 38.7984 70.267C40.6374 68.374 41.8151 65.9374 43.5365 63.93C45.4875 61.6552 47.3634 58.7475 50.2227 57.4952C51.8655 56.7759 51.8355 57.5366 52.7279 58.5458ZM59.6745 66.1077C59.9527 66.399 59.7755 68.069 60.041 68.6018C61.0601 70.649 62.8427 70.1969 64.6869 69.7667C64.8458 71.4073 64.9689 73.2552 65.6302 74.7842C65.9256 75.4669 66.3925 76.0532 66.631 76.7668C66.7818 77.2189 66.721 77.7928 66.8917 78.213C67.0761 78.6674 67.5434 79.0176 67.8166 79.4654C68.1466 80.0065 68.3198 80.5115 68.7541 80.985C69.7046 82.0207 70.9954 82.8985 71.7227 84.134C72.0212 84.6407 72.0737 85.0165 72.0647 85.6071C72.0617 85.8188 71.9129 86.5962 71.9792 86.7531C72.2216 87.3279 73.0935 87.4763 73.1899 88.2189C73.2444 88.6362 73.0175 88.5863 72.9402 88.934C72.8476 89.3523 72.9139 89.6393 72.761 90.1053C72.5183 90.845 71.4475 92.2368 71.5586 92.8738C69.9831 93.7422 67.2124 94.2925 65.4473 93.896C63.6423 93.4907 61.8379 91.439 60.6733 90.0949C57.9388 86.9397 56.3468 81.956 56.1975 77.8286C56.1217 75.7341 56.4004 73.6298 56.499 71.5388C56.5545 70.3607 56.3033 67.0423 57.3003 66.2171C57.5233 66.0327 59.4791 65.903 59.6745 66.1077ZM44.9625 70.0586C42.5305 70.1982 40.4429 74.0105 40.893 76.2374C41.2627 78.0651 41.8862 76.6517 42.3598 75.8666C42.9187 74.9399 43.9301 73.819 45.1308 74.0569C46.4652 74.3214 46.8055 75.9486 47.3496 76.9803C48.3419 78.8616 48.6509 76.8414 48.8708 75.6996C48.6958 73.4665 47.8768 69.8916 44.9625 70.0586Z" fill="#FF5678"/>
<path fill-rule="evenodd" clip-rule="evenodd" d="M191.572 183.974C190.304 184.369 189.115 184.949 187.893 185.468C186.506 186.056 185.538 186.16 184.023 186.157C178.159 186.148 172.356 186.45 166.482 186.568C164.877 186.601 163.248 186.617 161.644 186.588C160.996 186.576 160.36 186.502 159.716 186.449C159.299 186.415 157.482 186.665 157.24 186.519C156.559 186.108 156.963 183.466 156.881 182.62C156.737 181.15 156.365 179.733 155.848 178.352C153.995 173.411 150.88 168.59 146.942 165.064C152.267 162.825 158.077 159.873 163.987 161.201C166.238 161.707 169.221 162.369 170.381 164.549C171.618 166.877 172.701 169.436 174.116 171.665C175.696 174.155 177.375 176.289 179.663 178.157C180.566 178.894 185.116 183.422 184.425 179.927C184.203 178.805 183.384 177.763 182.73 176.848C182.397 176.382 180.604 174.855 180.883 174.316C181.196 173.711 184.431 173.284 185.124 173.092C186.556 172.694 187.979 172.27 189.406 171.853C188.89 172.826 186.084 176.508 187.877 177.449C188.535 177.795 190.239 176.57 190.96 176.355C192.19 175.989 193.314 176.23 194.522 176.593C194.491 177.187 193.325 177.195 192.938 177.6C192.371 178.194 191.973 179.795 192.418 180.506C193.245 181.832 196.449 180.479 197.881 180.982C196.271 182.646 193.745 183.299 191.572 183.974ZM111.557 129.269C111.574 129.303 111.543 129.351 111.351 129.518C111.292 129.307 111.187 129.26 111.058 129.318C111.162 129.205 111.247 129.146 111.351 129.518C111.432 129.447 111.499 129.36 111.557 129.269ZM112.047 128.571C112.008 128.698 111.921 128.758 111.787 128.755C111.794 128.732 111.801 128.712 111.806 128.695C111.895 128.418 112.013 128.465 111.973 127.954C112.027 128.04 112.067 128.126 112.037 128.212C112.122 128.341 112.124 128.461 112.047 128.571ZM97.7932 152.55C97.9286 152.223 97.9642 151.843 98.1389 151.542C97.968 151.847 97.9652 152.223 97.7932 152.55ZM152.887 186.31C150.764 186.225 148.695 186.263 146.573 186.356C142.039 186.553 137.485 186.582 132.959 186.947C130.746 187.125 128.617 187.193 126.397 187.118C124.456 187.053 122.507 187.122 120.572 186.959C118.447 186.78 116.457 186.192 114.313 186.16C112.262 186.13 109.82 185.892 107.831 186.192C107.488 186.244 107.303 186.463 106.898 186.516C106.338 186.589 105.55 186.361 104.977 186.322C103.971 186.254 102.859 186.365 101.878 186.131C101.541 186.05 101.305 185.926 100.978 185.794C100.683 185.675 100.022 185.583 99.8597 185.541C100.795 185.192 98.7204 184.48 98.5532 184.442C98.5111 184.583 98.6043 184.782 98.7576 184.974C98.2267 184.567 98.7952 184.717 97.9271 184.304C97.562 184.13 96.8718 184.018 96.4626 183.972C96.0688 183.928 95.8562 183.974 95.677 183.964C95.7134 183.924 95.749 183.871 95.7836 183.799C96.0733 183.2 95.1904 182.517 94.6945 182.919C94.7518 183.036 94.8448 183.252 94.9572 183.464C94.9522 183.459 94.9479 183.454 94.943 183.448C94.759 183.235 94.4131 182.692 94.0686 182.326C94.5053 182.084 93.9712 181.756 93.7698 181.42C93.632 181.496 93.4792 181.56 93.4002 181.665C93.5148 181.426 93.7992 181.208 93.6325 180.742C93.5849 180.609 93.4587 180.408 93.3005 180.267C93.4508 180.385 93.607 180.515 93.8094 180.487C93.5564 180.104 93.4635 179.959 93.367 179.575C93.2992 179.304 93.6773 179.043 93.3182 178.798C93.3291 178.543 93.4807 177.372 92.8451 177.78C92.8451 177.78 92.8451 177.78 92.8449 177.781C92.8451 177.78 92.8451 177.78 92.8454 177.779C93.2521 176.534 93.944 175.248 94.4582 174.03C95.656 171.193 96.8873 168.336 98.1407 165.524C100.213 160.874 102.377 156.235 104.762 151.709C107.126 147.222 109.708 142.883 111.939 138.334C114.091 133.946 116.602 129.747 118.77 125.366C119.791 123.302 121.159 121.596 121.507 119.198C121.619 118.422 121.655 116.803 120.481 117.094C119.718 117.283 118.65 119.196 118.157 119.818C117.716 119.212 115.227 115.648 114.559 117.771C113.987 119.592 117.572 120.385 116.141 122.218C115.999 122.4 115.412 122.584 115.219 122.752C114.843 123.079 114.5 123.656 114.21 124.051C113.549 124.951 113.002 125.907 112.391 126.837C112.276 127.012 111.856 127.409 111.823 127.613C111.806 127.722 111.897 127.834 111.969 127.947C111.471 128.388 110.844 128.777 110.728 129.49C110.762 129.506 110.794 129.508 110.825 129.502C110.363 129.986 109.778 131.159 109.694 131.281C109.071 132.188 108.46 133.137 107.845 134.094C107.512 134.611 106.931 135.219 106.74 135.8C106.674 136.001 106.867 136.361 106.687 136.549C106.212 137.044 105.748 136.939 105.393 137.933C105.254 138.325 105.241 138.872 105.017 139.208C104.657 139.747 104.142 140.001 103.805 140.581C103.168 141.681 102.403 142.888 102.001 143.998C101.999 144.003 101.999 144.007 101.997 144.012C101.983 143.925 101.965 143.831 101.942 143.728C101.714 144.137 101.487 144.547 101.259 144.957C101.653 144.88 101.864 144.773 101.96 144.597C101.949 144.656 101.93 144.717 101.894 144.781C101.693 144.873 101.481 144.932 101.259 144.957C101.106 145.209 100.964 145.467 100.83 145.73C100.765 145.862 100.545 146.673 100.453 147.287C100.419 147.049 100.385 146.835 100.381 146.806C100.092 147.363 99.8034 147.92 99.5145 148.476C100.039 148.073 100.009 148.004 100.508 147.995C99.8791 148.007 98.9273 148.891 98.8398 149.741C98.8256 149.879 98.9101 150.03 98.9849 150.173C98.9677 150.17 98.9505 150.168 98.9305 150.166C98.2718 150.111 98.4644 150.243 98.2147 150.793C98.3102 150.755 98.8647 150.538 99.0731 150.369C99.0958 150.441 99.0995 150.508 99.0644 150.564C98.9011 150.824 97.5672 150.656 98.4238 151.233C97.712 150.754 97.3563 152.326 97.5986 152.866C97.4069 153.143 97.1786 153.399 96.964 153.655C96.4364 154.285 96.1448 154.763 95.7991 155.53C95.2106 156.836 94.5085 158.132 93.8653 159.413C93.621 159.9 93.3364 160.315 93.0368 160.768C92.5054 161.57 92.5989 161.37 93.0181 162.244C92.8608 162.193 92.628 162.317 92.403 162.497C92.5253 162.289 92.6814 162.135 93.0181 162.244C92.4862 161.135 92.0296 162.487 91.7849 163.122C91.7958 163.122 91.8048 163.119 91.815 163.119C91.7816 163.168 91.7564 163.212 91.7412 163.247C91.4913 163.762 91.1964 164.079 91.4098 164.619C91.4711 164.318 91.7148 164.086 91.8183 163.827C91.6725 164.458 90.9853 165.213 90.7779 165.631C90.6057 165.978 90.5813 166.342 90.3694 166.719C90.1705 167.074 89.9913 167.313 89.8386 167.718C89.0998 169.679 88.7402 171.862 88.2741 173.922C87.723 176.355 87.4962 178.941 87.3783 181.431C87.3439 182.155 87.325 182.795 87.5854 183.483C87.6233 183.582 88.0288 184.112 88.0184 184.307C87.9623 185.32 86.0616 185.109 85.3306 185.08C84.1684 185.033 83.3773 185.221 82.261 185.383C81.2311 185.532 80.2204 185.45 79.1746 185.703C77.4377 186.123 74.8513 186.789 73.172 185.866C72.3602 185.42 71.3376 184.126 70.7484 183.4C70.0231 182.506 69.7791 181.596 69.6492 180.458C69.4274 178.511 69.4122 176.359 70.0884 174.499C73.2303 165.851 78.6201 157.991 83.2684 150.122C87.6301 142.737 92.5199 135.738 96.8905 128.373C99.2009 124.48 101.981 120.628 104.729 117.031C107.538 113.353 109.542 109.352 111.523 105.189C113.575 106.279 115.748 107.4 118.043 107.892C119.348 108.172 120.644 108.087 121.96 108.178C122.93 108.244 123.741 108.474 124.729 108.499C129.061 108.609 134.065 108.09 138.206 106.809C139.199 106.502 140.087 106.183 141.019 105.74C142.208 105.175 142.529 104.935 142.596 106.249C142.727 108.792 143.142 111.264 143.337 113.793C143.527 116.258 144.023 118.688 144.461 121.123C144.683 122.356 144.923 123.588 145.105 124.828C145.243 125.769 145.66 127.077 145.495 128.018C145.312 129.055 144.33 130.109 143.767 130.995C143.197 131.893 142.623 132.79 142.054 133.69C140.987 135.377 139.925 136.978 138.665 138.526C136.329 141.396 134.34 144.397 132.125 147.36C129.773 150.507 127.818 153.906 125.51 157.085C124.291 158.765 123.044 160.349 122.245 162.24C121.582 163.809 120.247 165.252 119.432 166.804C118.361 168.843 116.998 170.71 115.934 172.759C115.192 174.189 113.757 175.645 113.607 177.308C113.355 180.098 116.004 177.31 116.617 176.532C117.44 175.488 118.342 173.662 119.578 173.097C120.46 172.693 121.75 172.737 122.707 172.421C123.712 172.089 124.697 171.745 125.711 171.443C127.685 170.852 129.591 170.018 131.51 169.268C133.497 168.491 135.484 167.708 137.434 166.844C138.336 166.445 139.097 166.24 140.061 166.066C140.476 165.991 141.961 165.289 142.288 165.348C142.837 165.448 143.594 167.064 144.01 167.48C144.651 168.12 145.373 168.644 145.973 169.333C147.153 170.691 148.404 172.137 149.428 173.612C151.715 176.908 153.855 180.509 154.669 184.479C155.034 186.261 154.608 186.379 152.887 186.31ZM93.3922 182.001C93.3782 181.971 93.3695 181.943 93.3638 181.915C93.371 181.943 93.3775 181.97 93.3922 182.001C93.6631 181.841 93.7349 181.926 93.7626 182.058C93.6262 181.97 93.4991 181.938 93.3922 182.001ZM92.7614 180.161C92.7502 180.112 92.7452 180.066 92.7434 180.022C92.7474 180.068 92.7509 180.114 92.7614 180.161C92.9097 180.062 93.0333 180.09 93.1522 180.161C93.0256 180.093 92.8892 180.076 92.7614 180.161ZM93.0335 178.957C93.1168 178.951 93.2115 178.906 93.3182 178.798C93.2307 178.886 93.1482 178.979 93.0732 179.075C93.0744 179.064 93.0764 179.052 93.0772 179.04C93.0789 179.017 93.06 178.988 93.0335 178.957ZM66.061 168.869C65.4443 170.324 65.1876 171.917 64.6637 173.408C64.2632 174.548 64.1032 175.675 63.9983 176.867C64.3636 177.137 64.3554 177.375 63.9736 177.58C63.9464 177.839 63.9372 178.1 63.9459 178.36C63.8467 179.12 63.993 179.781 64.1937 180.508C64.5117 181.662 64.9147 182.492 65.5062 183.489C61.9166 184.708 57.8271 185.052 54.0611 184.963C52.0256 184.916 49.7423 184.911 47.7589 185.414C45.6232 185.955 43.7504 185.729 41.5563 185.54C41.8768 184.893 43.1019 183.815 43.7222 183.366C44.038 183.137 44.5574 183.098 44.7969 182.842C45.1386 182.478 45.1788 181.77 45.3114 181.291C46.1578 178.242 46.7841 175.167 47.3157 172.048C48.2524 166.55 48.6875 160.922 48.9637 155.383C48.9871 154.914 49.2289 154.388 49.2172 153.945C49.2017 153.362 49.0352 153.171 49.0821 152.585C49.1125 152.203 49.5701 151.684 49.5369 151.344C49.516 151.131 48.9951 151.315 49.0265 150.898C49.0751 150.256 49.9051 149.41 50.0935 148.834C50.1772 148.578 49.8649 148.323 49.8747 148.043C49.8719 148.123 50.0808 147.177 50.0885 147.143C50.1516 146.871 50.4058 146.757 50.3921 146.424C50.3794 146.121 49.939 145.725 50.1775 145.411C50.4187 145.093 50.9185 145.574 51.0705 145.296C51.2435 144.982 50.4833 143.908 50.5678 143.42C50.7156 142.568 51.2951 141.65 51.5219 140.785C51.6069 140.46 51.47 140.059 51.7337 139.778C52.1928 139.289 52.5911 139.79 53.2531 139.626C52.5963 139.068 52.4518 138.529 52.6467 137.711C52.8047 137.046 53.1095 136.327 53.8268 136.983C53.7324 136.118 53.6312 136.03 54.252 135.307C54.7879 134.683 55.4825 133.936 56.1241 133.457C57.0829 132.742 58.6135 132.375 59.7507 132.291C60.9919 132.199 62.5178 132.865 63.4572 133.804C64.5997 134.947 66.0774 135.779 67.3737 136.871C68.758 138.037 69.9463 139.422 71.2763 140.658C71.5492 140.912 72.0519 141.622 72.4736 141.499C73.1615 141.3 72.606 140.273 72.4552 139.815C71.3829 136.563 69.4558 133.286 66.8049 131.066C65.4379 129.922 64.0778 128.474 62.4886 127.64C61.2048 126.966 60.2021 127.072 58.8373 127.024C57.6706 126.983 57.4308 126.914 56.3905 127.406C55.653 127.754 54.9227 128.094 54.2269 128.52C53.114 129.201 51.9663 130.029 51.1438 131.058C48.9542 133.798 48.0996 137.282 47.2392 140.621C46.2924 144.294 45.6406 147.883 45.5257 151.694C45.4091 155.571 45.2296 159.392 44.8478 163.254C44.6491 165.262 44.4206 167.267 44.1614 169.268C43.9226 171.113 43.9101 173.097 43.5388 174.909C43.071 174.227 42.9256 173.7 42.6674 172.964C42.4932 172.469 42.3165 172.486 42.0643 172.121C41.5299 171.349 40.8619 169.884 40.6516 168.93C40.5227 168.347 40.6419 168.055 40.4031 167.542C40.3293 167.383 39.9283 167.507 39.864 167.257C39.8179 167.076 40.0691 166.937 40.0579 166.876C40.0317 166.734 40.4218 166.576 40.0848 166.129C39.606 165.495 39.851 166.291 39.5926 166.28C39.3772 166.271 40.0235 164.082 39.9475 163.764C39.9206 163.652 39.5542 163.637 39.5248 163.533C39.4358 163.217 39.456 162.76 39.3693 162.417C39.1572 161.581 38.8424 161.246 38.8269 160.291C38.8065 159.029 38.3394 158.135 38.1146 156.931C38.0712 156.699 38.3257 156.449 38.2781 156.249C38.1816 155.841 37.8803 155.484 37.7694 155.053C37.5558 154.223 37.8409 153.051 37.7826 152.375C37.7313 151.784 37.5658 150.825 37.4569 150.091C37.2796 148.896 37.5982 149.286 38.1166 148.534C37.3978 148.302 37.4893 148.506 37.2595 147.733C36.9945 146.84 37.0189 146.313 37.8282 146.807C37.6131 146.277 37.2138 145.627 37.1261 145.058C37.0446 144.53 37.2375 144.045 37.1824 143.52C37.0329 142.101 36.5905 141.331 37.3958 139.953C36.3607 139.423 36.8116 137.595 36.6493 136.575C36.4746 135.474 36.0502 134.446 36.8684 133.729C36.027 133.123 36.3602 131.384 36.3637 130.456C36.3652 130.034 36.5078 129.293 36.4716 128.919C36.4464 128.656 36.2677 128.48 36.2159 128.173C36.0247 127.039 36.4469 125.915 36.193 124.786C35.9066 123.514 35.8732 122.429 35.775 121.182C35.68 119.974 35.4934 118.718 35.4131 117.479C35.3538 116.56 34.9956 115.565 35.1606 114.613C35.1736 114.538 35.3922 113.861 35.3984 114.014C35.3882 113.769 35.2102 113.466 35.202 113.32C35.1434 112.217 35.1225 111.319 35.1696 110.2C35.1673 110.2 35.1649 110.2 35.1626 110.2C35.2989 110.117 35.3725 109.944 35.3782 109.676C36.4081 109.576 37.5346 109.828 38.5754 109.856C39.697 109.885 40.8151 109.829 41.9354 109.778C42.6562 109.744 44.2095 109.402 44.7583 110.005C45.1558 110.441 44.9058 112.688 44.9323 113.272C44.9637 113.962 45.3126 115.046 44.9093 115.65C44.6591 116.024 44.0936 116.174 43.802 116.585C43.6245 116.836 43.4802 117.256 43.386 117.527C43.1011 118.347 42.9877 119.231 43.0313 120.096C43.2369 124.146 46.4788 126.006 50.1187 124.374C53.2895 122.952 54.1516 118.652 51.4272 116.243C50.7859 115.676 50.1022 115.532 49.2837 115.392C48.7636 115.303 47.3439 115.357 47.0039 114.986C46.6665 114.617 46.7487 113.466 46.7113 112.988C46.6513 112.219 46.3427 111.077 46.5099 110.336C46.2358 109.718 46.4187 109.457 47.0593 109.552C47.2621 109.511 47.465 109.47 47.6677 109.429C48.1786 109.336 48.6806 109.224 49.1995 109.189C50.1244 109.125 51.0261 109.235 51.9516 109.111C52.8593 108.99 53.7491 108.763 54.6585 108.645C55.6248 108.52 56.5739 108.659 57.5303 108.495C59.5152 108.154 61.6479 107.697 63.505 106.916C64.0025 106.707 64.8454 106.104 65.3972 106.203C66.0582 106.323 65.8815 106.744 66.0719 107.373C67.1277 110.864 69.3215 114.313 71.6434 117.088C73.8352 119.708 76.7246 121.82 79.3379 124.018C80.9223 125.35 82.4436 126.75 83.9147 128.206C84.9821 129.263 86.1276 130.915 87.5064 131.525C87.8207 131.537 89.0325 131.397 89.2541 131.625C89.5098 131.887 89.4941 132.033 89.3922 132.197C89.685 131.424 88.2915 131.554 87.5064 131.525C87.5954 131.675 88.477 133.445 88.695 132.46C88.8217 132.536 88.9483 132.611 89.0749 132.687C88.4483 134.073 87.637 135.462 86.7557 136.702C86.1134 137.606 85.2837 138.26 84.7072 139.198C83.9797 140.38 83.3736 141.608 82.4519 142.662C80.6137 144.764 79.5906 147.59 77.988 149.922C77.2179 151.043 76.8158 152.085 76.0143 153.201C75.3875 154.074 74.3721 155.178 74.0067 156.183C73.8609 156.584 74.0174 156.933 73.7502 157.305C73.5815 157.54 73.0815 157.795 72.8457 158.039C71.9093 159.007 71.1791 160.389 70.4446 161.528C69.6622 162.741 69.1171 164 68.4544 165.264C67.7747 166.56 66.6497 167.479 66.061 168.869ZM41.6914 174.404C41.2044 174.412 41.022 174.414 40.9676 174.2C40.9517 174.136 40.9467 174.052 40.9489 173.943C40.9467 174.052 40.9517 174.136 40.9676 174.2C41.022 174.414 41.2044 174.411 41.6914 174.404V174.404ZM41.7522 172.588C41.8026 172.725 41.4993 172.956 40.693 172.871C41.4915 172.955 41.7971 172.726 41.7522 172.588ZM39.7698 177.147C39.8421 177.211 39.9121 177.278 39.9804 177.347C39.9124 177.278 39.8421 177.211 39.7698 177.147ZM34.7417 186.68C34.0852 186.45 32.3771 186.044 31.265 185.563C31.761 185.703 32.2774 185.817 32.4761 185.886C33.231 186.151 33.9862 186.415 34.7417 186.68C35.8114 182.819 39.8279 181.347 43.2646 179.922C41.6089 179.853 41.0175 178.413 40.0168 177.385C41.0155 178.411 41.6164 179.853 43.2646 179.922C39.8284 181.347 35.8114 182.819 34.7417 186.68ZM30.9849 182.793C30.9472 182.856 30.9099 182.92 30.8722 182.991C30.7698 183.183 30.384 184.04 30.222 184.604C30.1893 184.025 30.5325 183.348 30.9849 182.793ZM34.7661 109.488C34.8274 109.463 34.8767 109.459 34.9216 109.463C34.7419 109.471 34.693 109.685 34.6853 109.981C34.5293 109.815 34.4922 109.597 34.7661 109.488ZM47.2402 118.409C48.4106 118.991 49.5464 119.33 50.663 120.034C49.2932 121.1 44.9198 122.822 45.0504 119.527C45.0659 119.143 45.2899 118.111 45.6399 117.883C46.1722 117.536 46.7761 118.178 47.2402 118.409ZM33.8417 103.067C38.9957 104.868 45.0001 104.422 50.2385 103.544C55.8666 102.601 61.4859 102.045 66.938 100.279C66.9435 101.039 67.2728 101.835 66.6711 102.462C66.1995 102.953 65.1772 103.046 64.5541 103.253C62.924 103.794 61.5241 104.582 59.8203 104.905C57.9119 105.268 56.0054 105.26 54.0806 105.475C53.3834 105.552 52.7279 105.677 52.0732 105.803C51.1665 105.817 50.4561 105.94 49.5509 106.192C46.3128 106.207 43.0966 106.303 39.872 105.917C38.2342 105.721 36.6144 105.48 34.9724 105.313C33.4346 105.156 33.7781 104.492 33.8417 103.067ZM31.8699 89.2158C28.8347 90.0551 25.7043 89.804 22.7179 88.843C20.5585 88.1484 17.6937 87.1306 17.2396 84.4994C16.9398 82.7635 17.9789 82.4489 19.2009 81.7283C19.7856 81.3835 20.07 81.1231 20.4633 80.5391C20.6966 80.1921 20.9064 79.3215 21.1684 79.0843C21.8067 78.5058 23.8213 79.0136 24.82 78.969C26.3084 78.9025 27.3173 78.4014 28.6867 77.9594C31.1053 77.1784 32.6358 76.2313 34.5133 74.4444C36.3398 72.7064 38.4842 70.9384 39.961 68.8901C41.6147 66.5965 43.1973 64.3646 44.9988 62.1771C46.3337 60.5561 48.7556 57.3114 51.1508 57.3263C52.3531 57.3339 52.1751 58.4692 53.13 59.046C54.0018 59.5727 55.1423 59.2062 56.1004 59.115C55.4688 60.5524 54.5927 62.0306 54.9028 63.657C55.0765 64.5679 55.169 64.8823 54.8136 65.7444C54.4888 66.5317 54.1376 67.2296 53.9365 68.0727C53.1531 71.3587 52.7825 75.0571 53.111 78.4171C53.6798 84.2338 55.6705 90.2393 60.0251 94.3455C61.0179 95.2815 62.1098 96.03 63.3256 96.6459C64.5384 97.2603 64.6388 97.9001 63.1364 98.1744C60.2101 98.7088 57.2394 99.0741 54.2922 99.4707C51.3487 99.8669 48.3531 100.281 45.3849 100.342C43.9166 100.372 42.4571 100.555 40.9891 100.451C40.258 100.399 39.5315 100.268 38.7985 100.248C38.1585 100.23 37.2029 100.55 36.6072 100.297C35.6748 99.9023 36.1384 97.1701 36.0701 96.2213C35.9913 95.1326 35.3052 93.0908 35.7127 92.0615C35.9991 91.339 37.0501 91.036 37.5947 90.4737C38.4882 89.5509 39.3334 88.4568 39.6746 87.1986C40.8061 88.113 39.8326 88.6995 40.176 89.8145C40.5509 91.0311 41.242 90.6486 41.7831 89.814C42.6864 88.4205 42.6258 86.2671 41.762 84.8778C41.262 84.0743 40.4497 83.4704 39.6165 83.0408C38.9421 82.6933 37.4496 82.0116 36.7029 82.3136C34.6764 83.1335 36.8333 85.5565 37.8634 86.1318C37.6159 86.8476 35.8605 87.8803 35.1913 88.186C34.1971 88.6402 32.9372 88.9208 31.8699 89.2158ZM59.6849 67.024C59.7116 67.4139 59.753 67.7864 59.8816 68.1594C60.1438 68.92 60.6682 69.579 61.3907 69.9555C62.7924 70.6863 65.6353 69.6341 66.8675 68.7721C66.8675 71.3849 67.3353 73.4633 68.084 75.9421C68.8083 78.3404 70.2908 80.292 71.5519 82.4212C72.2059 83.5254 72.8063 84.6653 73.7298 85.5719C74.6684 86.4933 74.8247 86.8466 74.7389 88.2052C74.5981 90.4431 73.5336 91.9694 71.5215 92.8959C69.9274 93.7807 66.6357 94.4995 64.899 93.7602C63.0733 92.9829 61.295 90.9705 60.1126 89.4215C57.4266 85.9028 56.0642 80.6027 56.2275 76.2278C56.3125 73.9491 56.4329 71.6173 56.6507 69.3468C56.8092 67.6927 56.7514 65.3146 59.1548 66.0601C59.9312 66.3007 59.6224 66.1211 59.6849 67.024ZM68.9068 97.5797C69.1386 97.1071 71.1781 96.6322 71.5332 96.9092C72.0718 97.3298 72.0943 99.7819 72.2834 100.48C72.5835 101.588 72.9783 102.683 73.4539 103.727C74.4521 105.919 75.8842 108.182 77.5833 109.889C79.3441 111.657 81.3674 112.882 83.5054 114.149C84.1163 114.511 84.7077 114.948 85.3353 115.277C85.5988 115.415 86.0868 115.48 86.2941 115.687C86.8073 116.201 86.57 117.255 86.5641 117.923C86.5394 120.603 86.5484 123.195 86.903 125.837C84.8082 124.214 82.9155 122.154 81.0504 120.261C79.0949 118.277 76.5768 116.966 74.7225 114.864C73.0354 112.952 71.7075 110.724 70.468 108.512C69.9251 107.543 68.8908 106.308 68.8537 105.175C68.8133 103.954 69.3696 102.661 69.3761 101.396C69.3803 100.501 68.5626 98.2825 68.9068 97.5797ZM94.0619 124.929C93.9345 125.738 94.0362 127.473 92.9122 127.647C92.1383 127.767 91.6622 127.032 91.3786 126.416C90.522 124.554 90.8051 122.071 90.4853 120.072C90.1075 117.711 90.0985 115.383 89.8064 113.018C89.5489 110.934 88.6898 108.304 89.1581 106.249C89.5826 106.239 90.7293 110.259 90.9768 110.896C91.4863 112.209 92.0727 113.313 92.5134 114.674C93.0971 116.476 93.6033 118.197 93.8722 120.083C94.0614 121.409 94.7707 123.763 94.0619 124.929ZM100.28 116.041C99.2309 117.671 98.0981 119.37 96.6198 120.73C96.6198 119.97 96.0518 117.497 96.4369 116.909C96.8955 116.209 99.4983 116.177 100.28 116.041ZM59.5887 51.8321C60.48 51.427 61.4745 51.2995 62.3732 50.8809C63.2326 50.4808 63.8709 50.2393 64.8247 50.1608C68.1396 49.8885 71.515 50.7381 74.5822 51.6672C76.2703 52.1785 77.6019 53.2989 79.0278 54.2696C80.5028 55.2734 81.3116 56.1477 81.9539 57.8464C83.3357 61.5006 84.1861 64.9558 84.7356 68.8092C85.2934 72.7188 84.3877 76.6706 84.4443 80.5885C84.4996 84.4535 84.7753 88.4775 86.0018 92.1577C86.9499 95.0032 88.6305 99.5836 92.1722 99.8674C95.5344 100.137 98.3787 96.6661 99.7685 94.0607C103.443 87.172 104.824 79.2976 105.023 71.5665C105.542 68.9793 105.839 66.1899 106.738 63.7088C107.738 65.2745 108.554 66.9548 109.473 68.5685C110.482 70.3399 110.417 71.785 110.33 73.7976C110.262 75.3626 109.711 76.8579 109.51 78.4164C109.278 80.2155 108.853 81.9695 108.751 83.7865C108.631 85.9292 108.751 88.0941 108.57 90.2313C108.419 92.0286 108.022 93.8337 107.735 95.6144C107.455 97.3447 107.421 99.0484 107.462 100.773C107.502 102.443 108.079 104.064 109.492 104.958C107.391 107.552 104.773 111.373 101.255 111.988C100.076 112.194 98.9744 112.355 97.78 112.442C96.809 112.513 95.6742 113.059 94.8368 112.453C93.3952 111.409 93.1111 109.084 92.5662 107.563C92.1894 106.511 88.453 97.8959 86.4863 100.337C86.1359 100.772 86.2186 102.368 86.165 102.98C86.0878 103.863 86.1234 104.761 86.0952 105.647C86.0594 106.775 85.9594 107.918 86.0377 109.046C86.0853 109.726 86.493 110.46 85.7239 110.624C85.0121 110.775 83.5111 109.359 82.993 108.993C82.2978 108.501 81.5484 108.131 80.844 107.657C79.3962 106.683 78.2477 105.456 77.2174 104.066C76.1803 102.666 75.2569 101.096 74.555 99.4984C74.1986 98.6877 73.9075 97.857 73.6099 97.0243C73.6164 97.0428 73.168 95.9929 73.1927 95.9194C73.2717 95.6847 74.2198 95.2947 74.4538 95.1099C77.1289 92.9961 77.6645 87.7395 76.9534 84.665C76.523 82.8049 75.0993 81.1705 74.0879 79.5866C73.1112 78.0569 72.0778 76.5582 71.2673 74.93C70.3738 73.1364 69.6834 71.2531 68.8818 69.4188C68.495 68.5336 68.0309 68.0782 68.6087 67.2674C68.9626 66.7704 69.6954 66.5668 70.0106 66.0229C70.3282 65.4756 70.3611 64.4194 69.7898 64.0282C69.165 63.6 68.257 64.1982 67.6845 64.4314C66.9206 64.7423 66.1574 64.893 65.3778 65.1322C64.4927 65.4041 63.6959 66.005 62.7563 66.005C63.2615 64.2629 65.4446 64.4281 66.1529 62.8082C66.6367 61.7009 66.5736 59.6407 65.065 59.4581C64.2084 59.3545 63.5327 60.0087 62.8959 60.4477C62.0574 61.0253 61.4246 61.1331 60.4426 61.314C60.081 61.3808 59.4938 61.7201 59.1508 61.6048C58.5943 61.4179 58.9155 61.5333 59.2069 61.0753C59.6401 60.3944 60.6647 59.7294 61.284 59.2324C62.6765 58.1149 64.6064 57.3094 65.8127 56.0101C66.61 55.1511 67.0018 52.2627 65.487 51.8017C64.8793 51.6166 63.8908 52.2201 63.2957 52.4044C62.2897 52.7161 61.2649 52.9643 60.2724 53.3198C58.5093 53.9512 56.8162 54.7011 55.0274 55.2677C56.0466 53.8151 57.9821 52.5626 59.5887 51.8321ZM119.21 51.4063C119.21 52.4044 119.591 54.302 119.161 55.2094C118.774 56.0266 116.424 56.482 115.594 56.7942C112.905 57.8052 110.239 58.9309 107.491 59.768C110.323 55.5686 114.532 53.1307 119.21 51.4063ZM118.814 37.8464C118.117 38.848 116.907 40.2061 115.49 39.7327C113.963 39.2224 112.766 36.8812 113.546 35.3955C114.213 34.1263 116.115 33.3301 117.29 34.3304C117.546 34.5484 117.713 35.1065 117.959 35.2772C118.116 35.3863 118.366 35.0938 118.558 35.2109C119.126 35.5562 119.345 36.3993 120.164 36.3288C120.543 36.2964 121.759 35.3043 122.008 35.0507C122.673 34.3718 122.441 33.6761 122.547 32.7839C122.692 31.5549 123.539 31.3663 124.513 30.7322C125.441 30.1282 126.187 29.2276 127.105 28.6458C128.201 27.9512 127.573 28.8319 128.574 28.9191C128.755 28.9348 129.158 28.3341 129.471 28.3441C129.878 28.357 130.054 28.6279 130.286 28.9231C130.79 29.5647 130.419 29.766 131.298 29.9155C131.933 30.0234 132.326 29.5619 132.868 29.5709C133.312 29.0679 133.969 28.0175 134.763 28.3276C135.3 28.5377 135.492 29.6641 135.607 30.1345C136.043 31.9176 136.01 34.0132 136.026 35.842C135.006 35.1249 134.873 34.6431 134.555 33.487C134.348 32.7358 133.847 31.6321 133.302 32.7605C133.146 33.0807 133.279 33.5717 133.177 33.9235C133.058 34.3316 132.773 34.5327 132.729 34.9779C132.622 36.0578 133.505 36.428 134.268 36.9537C133.556 37.7213 131.509 37.142 132.055 38.7809C132.632 40.5128 134.849 39.5538 135.955 39.1193C136.898 42.6968 132.71 44.4207 130.157 45.3991C128.659 45.9734 128.072 46.2936 127.866 48.0453C127.69 49.5467 127.892 51.0842 128.442 52.4867C128.662 53.0487 128.873 53.8171 129.174 54.3373C129.429 54.7781 129.937 54.8087 130.108 55.0546C130.738 55.9615 130.284 57.9296 130.21 59.0181C130.009 61.9944 129.083 64.7049 128.685 67.6095C128.48 69.0949 127.869 70.4857 127.607 71.9539C127.367 73.3011 127.272 74.5727 126.138 75.536C123.859 77.4716 122.097 74.6131 121.308 72.7343C120.183 70.0579 120.071 66.5407 120.257 63.6869C120.458 60.5848 121.876 57.6044 121.951 54.5252C122.031 51.2322 121.534 48.1059 120.711 44.922C120.352 43.5305 119.828 42.2847 119.384 40.9393C119.021 39.8393 119.622 38.846 118.814 37.8464ZM124.737 5.26912C124.737 5.27161 124.737 5.27385 124.737 5.27635C124.723 5.26015 124.709 5.2447 124.693 5.22577C124.709 5.24545 124.723 5.25891 124.737 5.26912ZM124.805 4.96067C124.771 4.72822 124.696 4.43572 124.645 4.30417C124.769 4.38016 124.909 4.44394 124.914 4.52367C124.927 4.75238 124.861 4.86002 124.805 4.96067ZM128.187 5.54792C128.163 5.56137 128.141 5.57607 128.117 5.58903C128.06 5.58903 128.013 5.57707 127.971 5.55838C127.987 5.56187 128.005 5.56461 128.025 5.56611C128.08 5.57009 128.134 5.56187 128.187 5.54792ZM129.955 4.96466C129.638 4.96217 129.305 4.93252 128.935 5.09322C128.994 5.05784 129.052 5.0262 129.112 5.00502C129.278 4.94622 129.628 4.9527 129.955 4.96466ZM112.022 91.9875C112.09 90.4979 112.089 90.0507 113.258 89.0902C114.233 88.2894 115.176 87.449 116.161 86.6602C118.341 84.9132 120.671 83.0635 123.15 81.759C124.539 81.0282 128.329 79.5555 127.372 82.4404C126.468 85.1628 124.723 87.5811 123.222 89.9998C121.691 92.4654 120.16 94.933 118.57 97.3604C117.878 98.4163 117.148 99.4521 116.486 100.527C115.835 101.585 115.768 102.298 114.432 101.86C113.461 101.541 112.365 101.153 111.449 100.739C110.645 100.376 110.693 100.153 110.671 99.2074C111.169 96.7615 111.907 94.5186 112.022 91.9875ZM118.244 62.1796C117.906 63.5424 115.481 63.7046 114.173 63.969C113.949 64.0143 112.809 64.3833 112.597 64.2567C112.177 64.0068 112.383 63.2845 112.205 62.9347C111.225 61.0203 111.211 63.4679 110.932 64.0442C110.169 65.6233 108.999 62.4618 108.57 61.6877C108.24 61.092 107.887 60.7891 108.228 60.289C108.513 59.8727 110.095 59.5869 110.581 59.4073C112.354 58.7518 114.122 58.0843 115.889 57.4161C116.65 57.1283 118.993 55.6217 118.968 57.0698C118.715 58.7358 118.648 60.5496 118.244 62.1796ZM116.919 78.453C116.173 78.685 114.148 79.6153 113.394 79.1765C112.757 78.8063 113.197 77.508 113.268 76.8323C113.403 75.5586 113.384 74.1729 113.311 72.8952C113.205 71.0082 113.048 70.8592 114.908 70.3517C115.627 70.1553 117.821 69.0927 118.354 69.6919C118.604 69.9717 118.498 70.8614 118.553 71.2005C118.672 71.9343 118.876 72.6516 119.144 73.3444C119.607 74.5421 120.282 75.6174 120.989 76.6823C119.721 77.4631 118.336 78.0118 116.919 78.453ZM112.708 65.1096C113.03 64.6461 114.633 64.5801 115.163 64.468C116.099 64.2697 117.036 64.0736 117.973 63.8755C118.023 65.0176 118.668 68.0004 117.847 68.8244C117.386 69.288 115.843 69.4074 115.189 69.5683C114.478 69.7437 113.764 69.9159 113.052 70.0881C112.971 68.9873 112.904 67.8858 112.786 66.7881C112.744 66.3845 112.446 65.4865 112.708 65.1096ZM112.893 80.1878C113.386 79.62 114.719 79.6365 115.461 79.4631C116.641 79.1865 117.76 78.809 118.878 78.3414C119.503 78.0798 120.735 77.1841 121.427 77.4111C121.62 77.4746 122.025 78.2734 122.173 78.4234C122.425 78.68 122.75 78.8539 123.042 79.0564C123.847 79.6148 124.336 79.7884 125.285 79.9775C120.321 82.0156 116.332 85.6415 112.226 88.9865C111.935 88.7419 112.097 86.5553 112.129 86.0535C112.188 85.1225 112.228 84.1797 112.298 83.2454C112.355 82.4778 112.37 80.791 112.893 80.1878ZM127.968 100.016C127.818 100.864 127.795 102.029 127.432 102.812C127.099 103.53 127.14 103.48 126.254 103.501C125.135 103.528 123.852 103.716 122.769 103.375C123.736 101.236 124.541 98.9119 125.865 96.9606C126.28 96.3479 127.083 94.779 127.953 94.8724C128.825 94.9664 128.634 95.8426 128.565 96.4765C128.436 97.6599 128.175 98.8434 127.968 100.016ZM132.326 66.6518C132.998 62.0378 132.941 57.5269 132.941 52.8803C134.013 53.0223 135.194 52.9329 136.228 53.2366C135.894 54.302 134.932 55.2629 135.884 56.2745C136.852 57.302 139.107 57.7524 140.414 58.1306C141.946 58.5739 143.507 59.1155 145.081 59.3789C145.788 59.497 146.558 59.6118 147.272 59.4745C148.402 59.2573 148.502 58.9571 149.244 60.1223C149.248 60.1286 149.255 60.138 149.258 60.1448C149.044 60.0214 148.363 60.0957 148.545 60.1009C148.571 60.1948 148.611 60.2883 148.634 60.3752C148.434 60.2103 147.991 60.0713 147.929 60.0603C147.19 59.9302 146.253 60.2621 145.541 60.4265C143.946 60.7955 142.362 61.1977 140.817 61.744C139.516 62.204 138.228 62.719 136.987 63.3232C136.029 63.7896 133.817 64.611 133.515 65.7536C132.936 67.9446 138.717 69.6094 140.127 70.3512C141.458 71.0515 141.038 72.0902 141.053 73.4817C141.069 74.9931 141.206 76.4902 141.101 77.9983C141.02 79.1668 140.931 78.9857 139.766 78.9648C138.895 78.9491 138.023 78.9139 137.151 78.9657C135.922 79.039 134.661 79.2094 133.507 79.6569C131.782 80.3261 128.468 83.5122 131.77 84.4832C133.13 84.883 134.883 84.7368 136.277 84.6404C137.486 84.5567 139.38 84.0058 140.546 84.4219C141.154 84.2495 141.374 84.4707 141.204 85.0856C141.232 85.5074 141.26 85.929 141.288 86.3503C141.345 87.1986 141.401 88.0467 141.457 88.8951C141.573 90.6309 141.688 92.367 141.803 94.1028C140.789 92.665 139.395 89.8282 137.236 90.1523C135.383 90.4304 134.287 93.3078 133.69 94.7927C133.205 95.9991 132.892 97.2638 132.564 98.5195C132.248 99.7271 132.133 101.434 131.557 102.529C130.989 103.606 130.2 103.245 129.038 103.355C127.585 103.494 128.171 102.68 128.402 101.443C128.753 99.5602 129.998 96.311 128.798 94.5558C127.265 92.3152 125.1 96.4667 124.511 97.5879C123.961 98.6361 123.491 99.7224 123.07 100.828C122.798 101.542 122.578 103.084 121.875 103.474C121.015 103.953 119.651 103.188 118.861 102.937C117.933 102.643 116.919 102.52 115.966 102.328C118.679 98.076 121.501 93.8878 124.133 89.5857C125.448 87.4348 127.108 85.1765 127.831 82.7434C127.968 82.2824 128.137 81.8422 128.08 81.3519C128.032 80.9335 127.404 80.2758 127.444 79.9855C127.503 79.5552 128.366 79.196 128.769 78.7438C130.171 77.1724 130.523 75.3023 130.959 73.3046C131.432 71.1305 132.006 68.848 132.326 66.6518ZM137.623 53.4651C139.689 53.0193 142.037 54.208 143.765 55.1675C144.905 55.8006 147.947 57.1241 148.064 58.6745C148.033 58.254 145.235 58.5163 144.682 58.53C142.318 58.0175 139.797 57.3266 137.591 56.3054C136.788 55.9334 135.844 55.5691 136.137 54.6144C136.329 53.987 137.037 53.5914 137.623 53.4651ZM135.226 83.9674C133.919 83.8922 129.177 83.9438 131.564 81.5731C133.058 80.0884 135.809 79.7663 137.797 79.7583C138.509 79.7556 139.211 79.8114 139.918 79.8841C140.112 79.9073 140.306 79.9302 140.5 79.9534C141.093 79.8353 141.278 80.0809 141.055 80.6899C141.161 81.0461 141.331 83.1592 141.019 83.4564C140.604 83.8506 139.284 83.6767 138.797 83.7148C137.602 83.8082 136.424 83.9746 135.226 83.9674ZM142.162 101.928C138.725 102.44 135.294 103.094 131.81 103.148C132.33 100.605 132.936 98.068 133.883 95.6455C134.488 94.0976 135.587 90.7552 137.705 90.9197C139.396 91.051 141.369 93.9513 141.84 95.4328C142.454 97.3642 142.162 99.919 142.162 101.928ZM150.987 63.2726C150.919 63.6249 149.376 64.2587 149.046 64.4506C146.667 65.8346 144.548 67.8863 143.124 70.2181C142.966 69.3182 142.991 67.6115 142.238 66.9722C140.912 65.8468 141.184 68.3679 141.026 69.1381C140.877 69.8603 141.062 69.7435 140.44 69.8078C139.888 69.8646 138.48 68.8299 137.97 68.5692C136.563 67.8485 135.214 67.0641 133.862 66.2459C134.982 64.3933 138.285 63.5429 140.166 62.8019C142.87 61.7368 145.534 61.1919 148.395 60.7509C148.873 61.0001 148.935 60.4395 149.293 60.3139C149.313 60.285 149.319 60.2606 149.32 60.2379C149.74 60.8631 151.089 62.7476 150.987 63.2726ZM154.487 88.2383C155.818 94.3629 156.15 100.734 157.831 106.785C159.43 112.536 160.85 118.262 162.697 123.936C163.761 127.204 164.749 130.505 166.171 133.643C167.163 135.832 167.95 140.5 170.366 141.524C171.947 142.195 172.649 141.601 172.48 139.995C172.333 138.598 171.61 137.72 171.012 136.514C170.804 136.093 170.127 134.907 170.201 134.461C170.292 133.907 170.433 133.966 171.011 133.692C172.237 133.11 173.459 132.715 174.765 132.379C174.238 133.196 173.186 134.366 173.101 135.366C173.031 136.192 173.624 137.705 174.443 138.022C175.217 138.321 176.127 137.69 176.79 137.305C177.557 136.86 178.289 136.736 179.133 136.419C178.057 137.972 176.294 139.209 177.049 141.344C177.854 143.622 180.352 141.759 181.95 141.502C181.494 143.267 179.469 145.28 178.013 146.262C177.035 146.921 175.974 147.516 174.925 148.05C174.519 148.256 173.985 148.382 173.612 148.629C173.47 148.722 173.231 149.119 173.102 149.182C171.29 150.058 168.818 150.282 166.846 150.703C164.673 151.167 162.803 151.28 160.567 151.173C158.716 151.084 156.666 149.946 155.12 148.99C153.944 148.263 153.773 147.375 153.407 146.093C152.8 143.967 152.257 141.828 151.678 139.695C151.179 137.856 150.947 136.089 150.608 134.223C149.892 130.269 149.562 126.252 148.793 122.305C148.03 118.384 147.775 114.412 147.563 110.404C147.461 108.474 147.147 106.505 147.052 104.612C146.974 103.072 147.001 101.523 147.009 99.9396C147.015 98.8267 146.621 97.7145 146.648 96.5976C146.672 95.6099 146.762 94.7205 146.658 93.7229C146.436 91.5974 146.262 89.497 146.095 87.3683C145.77 83.219 144.812 79.1245 144.43 74.9928C144.265 73.2059 146.223 71.4925 147.55 70.4518C148.965 69.3429 150.099 67.7854 151.656 66.9124C152.232 74.0784 152.958 81.2076 154.487 88.2383ZM131.047 164.854C129.512 165.539 127.978 166.225 126.443 166.908C125.314 167.411 123.834 168.444 122.593 168.351C123.475 167.155 124.031 165.788 124.971 164.626C125.91 163.466 126.685 162.234 127.534 161.009C128.649 162.371 129.79 163.62 131.047 164.854ZM131.373 158.84C133.695 157.614 136.994 155.284 139.715 155.724C141.675 156.04 143.895 157.477 145.079 159.059C145.634 159.801 146.189 160.494 146.824 161.221C147.406 161.887 147.705 161.801 147.196 162.496C146.804 163.031 145.882 163.393 145.281 163.599C145.281 162.43 145.644 161.257 144.24 161.372C143.687 161.418 143.04 161.551 142.488 161.641C142.013 161.718 141.737 161.925 141.331 162.021C140.899 162.123 140.382 162.003 139.933 162.038C139.161 162.099 138.543 162.409 137.811 162.571C136.298 162.906 135.021 163.371 133.547 163.866C132.873 162.834 132.306 161.594 131.39 160.751C130.366 159.807 129.93 159.602 131.373 158.84ZM111.457 4.32011C111.68 4.29669 111.935 4.15791 112.107 3.86865C111.805 4.37492 111.628 4.39785 111.457 4.32011ZM104.498 5.12636C104.768 5.17544 105.034 5.23549 105.258 5.34038C105.478 5.44352 105.596 5.56112 105.714 5.66427C105.659 5.64035 105.599 5.61469 105.533 5.58679C105.242 5.46545 104.871 5.24645 104.498 5.12636ZM99.8567 43.5183C99.8385 43.4936 99.8213 43.4709 99.8039 43.4485C99.8213 43.4709 99.8385 43.4936 99.8569 43.5183H99.8567ZM98.9544 43.6496C98.8697 43.6184 98.7977 43.5671 98.7409 43.4924C98.7977 43.5671 98.8697 43.6184 98.9544 43.6496C99.0108 43.67 99.0731 43.6817 99.1401 43.685C99.0731 43.6817 99.0108 43.67 98.9544 43.6496ZM98.5936 42.9101C98.5933 43.0175 98.6015 43.1119 98.618 43.1949C98.6015 43.1119 98.5933 43.0175 98.5936 42.9101ZM99.6862 43.3102C99.6643 43.2871 99.6428 43.2656 99.6212 43.2457C99.6428 43.2656 99.6643 43.2873 99.6862 43.3102ZM99.5003 43.148C99.4656 43.1246 99.431 43.1034 99.3951 43.0858C99.431 43.1034 99.4656 43.1246 99.5003 43.148ZM138.094 6.13491C138.143 6.14937 138.187 6.15559 138.227 6.15784C138.172 6.16332 138.129 6.1551 138.094 6.13491ZM139.288 6.93593C139.142 6.80114 139.056 6.66909 139.012 6.53679C139.035 6.55074 139.059 6.56345 139.087 6.57441C139.13 6.53156 139.174 6.48871 139.217 6.4456C139.157 6.55722 139.136 6.66485 139.182 6.76152C139.405 7.22793 139.677 6.51885 140.013 6.86966C139.762 6.83876 139.454 6.93593 139.288 6.93593C138.9 7.46861 138.512 8.00154 138.125 8.53422C138.649 8.79658 138.814 8.47268 139.107 8.9508C139.121 8.97397 139.134 9.03078 139.145 9.10577C139.023 8.75721 138.705 8.82423 138.125 8.53422C138.512 8.00154 138.9 7.46861 139.288 6.93593ZM140.292 8.10868C140.328 8.08177 140.35 8.04464 140.364 7.99556C140.373 7.96267 140.379 7.92455 140.383 7.88045C140.379 7.92455 140.373 7.96267 140.364 7.99556C140.35 8.04464 140.328 8.08177 140.292 8.10868C140.268 8.12661 140.238 8.14007 140.2 8.14929C140.238 8.14007 140.268 8.12661 140.292 8.10868ZM140.402 7.54236C140.397 7.61187 140.394 7.67441 140.392 7.73047C140.394 7.67441 140.397 7.61187 140.402 7.54236ZM139.829 8.96126C139.846 8.99216 139.864 9.02006 139.884 9.04598C139.864 9.01932 139.845 8.99216 139.829 8.96126ZM139.246 11.0576C138.691 10.7604 139.173 10.3861 139.195 9.92946C139.197 9.88885 139.198 9.85446 139.199 9.81709C139.203 9.92747 139.204 10.0179 139.201 10.0623C139.164 10.7076 138.706 10.8872 139.539 11.0828C139.596 11.0962 139.67 11.1032 139.753 11.1064C139.54 11.1219 139.355 11.1164 139.246 11.0576ZM147.841 15.8532C147.807 15.5894 149.039 15.0136 149.198 14.9428C149.003 15.0298 147.808 15.6031 147.841 15.8532ZM149.243 13.5167C149.235 13.5132 149.226 13.5122 149.218 13.5085C149.219 13.4891 149.217 13.4709 149.217 13.4519C149.223 13.4759 149.231 13.498 149.243 13.5167ZM149.9 15.6477C149.906 15.619 149.919 15.5425 149.934 15.4514C149.956 15.564 149.98 15.6696 150.002 15.7618C149.975 15.7259 149.943 15.6883 149.9 15.6477ZM148.942 15.6315C148.941 15.1843 149.081 15.2797 149.168 15.2931C149.089 15.413 148.941 15.4354 148.942 15.6315ZM147.641 16.6136C147.771 16.5882 147.88 16.6627 147.98 16.7487C147.761 16.6906 147.581 16.6251 147.641 16.6136ZM146.584 19.1682C146.563 19.1751 146.545 19.1796 146.526 19.1851C146.545 19.1796 146.563 19.1751 146.584 19.1682ZM146.69 19.1298C146.676 19.1355 146.663 19.1395 146.65 19.1445C146.663 19.1395 146.676 19.1355 146.69 19.1298ZM146.49 19.1953C146.464 19.202 146.438 19.2068 146.414 19.21C146.438 19.2068 146.464 19.202 146.49 19.1953ZM147.303 34.6545C147.358 34.5624 147.476 34.532 147.609 34.5173C147.441 34.5813 147.312 34.7186 147.282 34.9174C147.249 34.8439 147.24 34.7604 147.303 34.6545ZM148.273 31.7951C148.264 31.7923 148.254 31.7886 148.245 31.7878C147.974 31.7667 147.856 31.9426 147.827 32.2114C147.845 31.9769 147.923 31.7856 148.126 31.7233C148.115 31.7021 148.106 31.6824 148.096 31.6618C148.148 31.7088 148.208 31.7532 148.273 31.7951ZM147.951 33.2429C147.946 33.211 147.939 33.1761 147.932 33.14C147.962 33.2678 147.997 33.3951 148.032 33.5174C147.997 33.419 147.966 33.3251 147.951 33.2429ZM148.188 28.7911C148.165 28.8013 148.14 28.8102 148.114 28.818C148.14 28.8102 148.165 28.8015 148.188 28.7911ZM148.254 28.7517C148.239 28.7632 148.221 28.7731 148.202 28.7826C148.221 28.7731 148.238 28.7629 148.254 28.7517ZM148.102 28.8222C148.07 28.8307 148.036 28.8377 147.998 28.8424C148.036 28.8377 148.07 28.8309 148.102 28.8222ZM148.38 25.5723C148.384 25.6924 148.384 25.8122 148.388 25.9256C148.369 25.8142 148.367 25.7043 148.38 25.5723ZM202.177 185.858C201.435 185.191 198.952 185.147 197.966 184.959C200.099 182.916 201.703 177.75 197.627 177.086C196.725 176.94 196.47 177.288 196.263 176.265C196.137 175.638 196.395 175.06 196.084 174.436C195.346 172.953 192.544 173.119 191.144 172.906C191.479 171.728 192.299 169.625 191.063 168.669C190.088 167.916 188.058 168.922 187.022 169.245C184.223 170.117 181.379 171.113 179.018 172.87C177.96 171.44 176.853 170.028 175.966 168.482C175.119 167.006 174.594 165.375 173.798 163.873C173 162.367 172.153 160.591 171.038 159.296C170.095 158.2 168.801 158.092 167.555 157.569C164.397 156.242 161.66 156.318 158.359 156.808C155.06 157.299 152.2 159.23 149.406 160.916C148.309 157.213 145.772 153.19 141.84 152.048C140.075 151.536 138.218 152.031 136.605 152.836C134.606 153.835 133.034 155.533 131.078 156.478C133.308 152.657 136.122 149.063 138.572 145.454C139.916 143.475 141.614 141.709 142.926 139.692C144.264 137.636 145.25 135.35 146.221 133.106C147.041 135.201 147.179 137.404 147.932 139.506C148.624 141.435 149.097 143.414 149.883 145.311C150.704 147.292 151.429 149.246 152.538 151.089C153.171 152.141 154.731 155.416 155.88 153.315C158.438 155.045 160.908 156.09 164.107 156.014C165.572 155.979 167.204 155.933 168.606 155.605C170.03 155.271 171.39 154.822 172.806 154.503C173.925 154.25 174.948 153.565 175.967 153.059C177.138 152.476 178.299 151.427 179.203 150.508C180.323 149.37 181.48 148.274 182.606 147.143C183.72 146.024 183.64 144.881 184.236 143.49C184.858 142.039 185.124 140.757 184.302 139.292C183.699 138.219 182.633 138.367 182.383 137.28C182.146 136.249 182.377 135.278 181.73 134.332C181.239 133.614 179.473 133.135 179.467 132.402C179.462 131.796 180.09 131.261 180.065 130.534C180.043 129.886 179.726 128.843 179.378 128.294C178.723 127.262 177.727 127.227 176.603 127.542C173.888 128.304 171.226 130.263 169.359 132.321C166.799 125.301 164.783 118.126 162.91 110.946C162.083 107.774 161.435 104.561 160.909 101.326C160.388 98.1243 159.599 94.8986 159.247 91.6798C159.036 89.7494 158.443 87.9431 158.165 86.0361C157.936 84.4572 157.783 82.8662 157.557 81.2866C157.057 77.7865 156.363 74.34 155.823 70.8485C155.524 68.9188 154.851 67.2306 154.332 65.3724C153.888 63.7789 153.623 62.4163 152.88 60.9109C151.462 58.0397 150.004 54.5227 147.25 52.6982C144.801 51.0755 142.425 49.7194 139.44 49.387C137.689 49.1919 136.278 49.604 134.566 49.7931C133.05 49.9608 131.751 50.7997 130.273 51.1019C130.273 49.6949 130.135 49.6568 131.418 49.1563C132.157 48.868 132.877 48.5513 133.63 48.3007C134.423 48.0366 135.023 47.7787 135.699 47.2934C136.497 46.7201 135.994 46.9022 136.951 47.1003C138.458 47.4127 138.014 47.0502 139.006 46.2983C139.583 45.8605 140.172 46.1276 140.847 46.2151C141.477 46.2965 142.514 46.5753 142.994 46.0075C143.36 45.5758 142.961 44.8348 143.231 44.3654C143.656 43.6244 144.875 43.6583 145.526 43.1605C146.238 42.6161 146.303 42.0025 146.148 41.1653C146.042 40.5858 145.129 39.2984 145.18 38.7999C145.215 38.4678 145.39 38.3706 145.615 38.3434C147.398 38.4336 147.312 38.1646 146.877 36.5827C146.852 36.8169 146.836 37.0162 146.818 37.1879C146.814 36.9422 146.816 36.7128 146.877 36.5827C146.924 36.4845 147.09 36.4213 147.241 36.3423C147.202 36.3819 147.16 36.4223 147.111 36.4676C147.187 36.8037 147.209 37.6825 147.532 37.9214C147.763 38.0926 148.572 38.0751 148.735 37.7891C149.077 37.1916 147.902 36.8528 147.856 36.4093C149.205 36.2964 148.745 35.6382 148.04 34.9665C148.012 34.7821 148.119 34.6949 148.361 34.7049C148.241 34.5788 148.092 34.5073 147.943 34.4841C148.048 34.4667 148.139 34.4358 148.187 34.361C148.229 34.2953 148.232 34.2046 148.217 34.1027C148.243 34.1812 148.266 34.2484 148.282 34.3002C149.446 34.7704 148.848 32.2754 148.365 31.8501C148.403 31.158 148.44 30.4658 148.476 29.7737C148.144 29.993 147.892 30.3348 147.805 30.6916C147.817 30.3622 148.009 30.0824 148.476 29.7737C147.728 29.4441 147.655 29.404 148.458 29.3337C149.124 29.9414 149.031 29.4369 149.443 29.0656C149.418 29.0878 150.067 28.3817 150.024 28.4896C150.332 27.7262 149.992 26.1152 148.75 26.6399C149.424 27.2443 148.747 27.3557 148.512 27.8754C148.504 27.8929 148.498 27.9113 148.491 27.9295C148.504 27.8672 148.521 27.8072 148.546 27.7519C148.962 26.8567 149.061 27.5441 148.603 26.5255C148.602 26.5248 148.602 26.524 148.602 26.5231C148.723 26.5843 148.912 26.5714 149.213 26.4446C149.587 25.9864 149.701 26.1737 149.902 25.5835C150.078 25.067 149.996 24.7147 149.645 24.5226C149.685 24.5331 149.725 24.5448 149.765 24.555C149.921 24.1579 149.705 23.7794 149.346 23.5968C149.201 23.8345 149.056 24.0724 148.911 24.3104C148.977 24.3315 149.042 24.3505 149.108 24.3704C149.108 24.3704 149.107 24.3704 149.106 24.3702C148.646 24.3168 148.459 24.3996 148.39 24.6123C148.367 24.5169 148.361 24.423 148.414 24.3378C148.47 24.2468 148.868 24.3816 148.911 24.3104C149.624 23.1399 148.871 22.1654 147.723 21.5692C147.287 21.3427 146.427 21.335 146.274 20.8051C146.165 20.4306 146.707 19.5244 146.81 19.0802C147.612 18.7125 146.133 18.4972 146.123 18.4957C146.078 19.0197 146.107 19.2516 146.409 19.211C146.105 19.2524 146.078 19.0179 146.123 18.4957C146.558 18.5625 147.84 18.4426 148.469 18.0146C149.51 18.0443 150.045 18.2249 150.677 17.3212C150.06 17.0648 149.333 17.2029 148.779 16.8092C148.805 16.9276 148.826 17.0349 148.839 17.1341C148.791 16.9876 148.687 16.8615 148.547 16.7419C148.638 16.8197 148.591 16.8446 148.483 16.8411C148.504 16.8135 148.525 16.7816 148.547 16.7419C148.585 16.3034 148.907 16.4821 149.233 16.5095C149.224 16.3685 149.168 16.2499 149.108 16.1323C149.168 16.2451 149.224 16.3608 149.233 16.5095C149.439 16.3779 149.646 16.2464 149.852 16.1146C149.965 16.082 150.032 16.0364 150.059 15.9791C150.059 15.9801 150.059 15.9813 150.059 15.9823C151.047 16.2773 150.746 14.1829 150.292 14.1936C150.17 14.1966 150.082 14.2415 150.017 14.3125C150.031 14.1194 150.064 13.9151 150.143 13.6291H150.142H150.143C150.189 13.506 150.235 13.3829 150.282 13.2598C150.032 13.2758 149.227 12.7942 149.212 13.3687C149.197 13.2651 149.156 13.1684 149.086 13.0805C149.158 12.4449 148.784 12.4989 148.205 12.3213C147.99 12.2553 147.753 11.8429 147.511 12.0161C147.146 12.2762 147.366 12.5211 147.6 12.7065C147.565 12.9225 147.462 13.0951 147.29 13.2242C147.264 13.1995 147.238 13.1806 147.213 13.1614C147.375 13.067 147.51 12.9168 147.6 12.7065C146.855 12.1167 146.541 12.5027 145.968 12.9771C146.196 13.1672 146.461 13.2696 146.714 13.28C146.701 13.3079 146.688 13.3361 146.677 13.3695C146.39 13.3336 146.153 13.2028 145.968 12.9771C146.576 12.473 146.522 12.1641 145.782 11.8651C145.532 11.7642 145.373 11.9889 145.064 11.8701C144.911 11.811 144.8 11.5429 144.65 11.4543C143.53 10.7908 142.185 11.1685 140.993 11.0113C141.142 10.9921 141.276 10.9734 141.377 10.9599C141.259 10.5483 140.939 10.3702 140.602 10.2449C140.603 10.0104 140.603 9.77573 140.603 9.54128C140.555 9.53057 140.509 9.52559 140.465 9.52434C140.543 9.46255 140.589 9.37859 140.579 9.23558C140.291 9.33972 140.047 9.26298 139.889 9.05445C140.202 9.45483 140.812 9.24529 140.998 8.7318C141.194 8.19364 140.775 7.83212 140.412 7.43273C140.42 7.04904 140.257 6.91101 140.047 6.87414C140.426 6.12769 140.512 6.49792 140.104 5.56436C140.071 4.93526 139.537 5.16373 139.178 5.56785C139.216 5.47517 139.255 5.37999 139.291 5.28083C139.009 5.26165 138.726 5.24246 138.443 5.22278C138.515 5.45249 138.674 5.8616 138.465 6.05668C138.604 5.85711 138.505 5.4211 138.443 5.22278C138.097 5.02944 137.75 4.8361 137.404 4.64226C137.433 4.7043 137.513 4.93775 137.612 5.2021C137.345 4.83062 137.128 4.6004 136.765 4.21796C136.587 4.03135 135.894 3.13565 135.701 3.07985C134.525 2.73851 133.635 5.0414 132.201 4.72622C131.354 4.54036 131.749 4.32111 130.95 4.47658C130.512 3.90727 127.656 4.80246 127.546 5.34411C127.599 5.32966 127.64 5.32368 127.673 5.32269C127.351 5.43829 127.071 5.61619 126.759 5.73652C125.977 6.03849 126.443 6.11722 125.555 5.60896C125.252 5.43555 125.14 5.48987 125.022 5.47392C125.405 5.30201 125.589 4.11207 125.594 3.68777C125.608 2.67398 125.474 2.85187 125.869 2.12486C125.504 2.11913 125.247 2.08798 125.055 2.17493C125.11 2.00252 125.149 1.83335 125.148 1.66966C125.346 1.13349 125.171 0.501897 124.56 0.352657C123.635 0.126678 123.453 1.45639 124.124 1.67414C123.482 1.46586 123.739 0.624728 122.866 0.510866C123.187 0.494423 123.386 0.554966 123.684 0.922212C123.783 0.722893 123.881 0.523822 123.98 0.324503C123.285 0.251751 122.964 0.192703 122.403 0.519587C121.853 0.617751 121.466 1.01614 121.051 1.40506C119.922 2.4642 118.908 3.49792 117.869 4.64699C117.335 3.5485 116.745 2.74873 115.878 3.97803C115.096 5.08749 114.462 6.621 114.056 7.9111C113.243 7.53763 113.585 7.41579 113.245 6.81086C113.599 7.40009 113.239 7.53563 114.056 7.9111C114.137 7.65373 114.218 7.39611 114.299 7.13874C113.587 6.32676 113.618 5.52001 112.847 4.65422C112.762 4.93177 113.007 5.32717 113.05 5.57732C113.098 5.85462 112.791 6.04721 112.861 6.34545C113.149 6.24006 113.215 6.30359 113.225 6.41894C113.215 6.30384 113.147 6.2408 112.861 6.34545C112.747 5.85836 113.03 5.59949 112.872 5.0556C112.808 4.83585 112.715 4.67515 112.603 4.51968C113.093 3.69873 111.507 3.12992 111.138 3.61851C111.092 3.68005 111.06 3.73735 111.036 3.79266C110.417 3.51386 110.226 4.10709 109.937 4.55257C109.868 4.69184 109.799 4.83136 109.731 4.97089C109.366 5.27062 109.028 5.89772 108.754 6.30807C108.167 7.18533 107.921 8.46919 107.202 9.2002C107.226 8.72931 107.483 7.68537 106.638 8.10643C106.917 7.96741 106.957 7.79848 106.896 7.60265C106.948 7.6323 107.005 7.65921 107.071 7.68114C107.19 7.69285 107.309 7.70431 107.428 7.71577C107.413 7.04904 106.976 6.61079 106.461 6.25625C106.461 6.43041 106.455 6.60954 106.466 6.78121C106.464 6.77498 106.461 6.769 106.458 6.76277C106.231 6.21987 106.327 6.05992 106.131 5.89349C106.208 5.91193 106.297 5.92513 106.405 5.93036C105.774 4.86226 104.935 4.69159 103.775 4.99256C103.854 5.01125 103.937 5.0272 104.021 5.04289C103.89 5.04314 103.763 5.06656 103.644 5.12461C103.194 5.34411 102.528 6.60581 102.215 7.04331C101.115 8.58306 100.603 10.4696 100.027 12.2493C99.8654 12.7501 99.6199 13.9238 98.9946 14.0917C98.2678 14.2871 97.4979 13.1016 96.8581 12.7055C94.8111 11.4376 93.793 13.714 93.4777 15.5201C93.0074 16.3191 93.1158 16.935 93.7942 17.3135C93.6043 17.0387 93.5168 16.7459 93.4809 16.444C93.5709 16.9572 93.9986 17.1351 94.0756 17.3549C94.118 17.4754 94.1768 18.2069 94.1755 18.3539C94.5252 18.6153 94.5514 18.8084 94.2543 18.9332C94.0726 19.0575 93.9024 19.1966 93.7436 19.35C93.2531 19.8678 93.2579 20.5856 92.809 21.0891C92.3018 21.6587 91.836 21.407 91.5964 22.3433C91.1862 23.9473 92.1968 26.3693 94.0158 26.5228C93.7999 27.1544 93.5206 27.795 93.3593 28.4427C93.1452 29.3046 93.1602 29.3918 93.5659 30.2162C90.5407 29.766 90.7772 32.9723 92.5014 34.5472C92.9099 34.9204 93.3573 35.1528 93.8847 35.3183C94.266 35.4381 95.4178 35.3713 95.6922 35.7336C96.2702 36.4975 94.9798 37.4906 94.8657 38.3429C94.854 38.4301 94.8492 38.5799 94.853 38.7538C94.3767 39.3375 94.4001 39.3859 95.0808 39.9318C95.4536 40.4126 96.6059 40.2975 96.9563 40.7575C97.4952 41.4653 96.2933 42.6046 96.8957 43.4316C97.3748 44.0888 97.8745 43.6792 98.6414 43.9578C99.0128 44.1274 99.3839 44.2976 99.7545 44.4685C99.9282 44.3477 100.118 44.2717 100.325 44.2411C100.758 44.4593 100.344 44.8438 100.891 44.9723C101.174 45.062 101.83 45.4023 102.116 45.2259C101.71 45.4761 101.437 46.095 101.204 46.7752C100.982 47.1389 100.776 47.5393 100.858 47.8398C100.721 48.2563 100.581 48.6363 100.414 48.9009C101.358 49.0449 101.247 49.9351 101.9 50.4239C102.783 51.1806 102.93 50.4783 102.722 50.1093C102.81 50.1541 102.901 50.2124 102.994 50.2789C103.012 50.2914 102.822 50.7409 103.009 50.8458C103.269 50.993 103.269 50.8453 103.54 50.8423C103.795 50.8393 104.166 50.4558 104.477 50.4237C104.643 50.4068 105.134 50.634 105.236 50.5665C105.518 50.3789 105.496 50.1731 105.386 49.9242L105.513 50.177C105.817 50.9726 105.97 50.7934 106.431 50.5655C106.307 50.627 106.793 50.2637 106.893 50.2929C106.666 49.6623 105.765 49.7286 105.21 49.5709C105.561 49.6708 106.132 49.6745 106.456 49.814C106.997 50.0475 106.826 50.2849 107.467 50.3577C107.737 50.3883 108.839 50.0888 109.033 49.8925C109.051 49.8738 109.064 49.8512 109.074 49.826C109.174 49.6663 109.274 49.5063 109.373 49.3464C109.78 49.3937 109.34 50.0201 109.979 49.7709C110.456 49.5843 110.223 49.3249 110.071 49.0419C110.022 48.9492 109.966 48.8832 109.907 48.8356C110.566 48.9936 111.35 49.882 112.25 49.6331C112.758 49.4929 112.786 49.1461 113.158 48.8217C113.655 48.3884 113.809 48.4552 114.411 48.2456C114.776 48.1186 115.164 47.8383 115.532 47.773C116.129 47.6666 115.964 47.7326 116.459 47.9848C116.756 48.1355 116.924 48.4183 117.298 48.4731C117.639 48.5229 118.175 48.1298 118.452 48.2379C119.204 48.5322 119.012 49.5888 119.055 50.2854C115.249 49.0726 110.8 51.0112 107.998 53.6734C107.238 54.3951 106.741 55.251 106.066 56.0358C105.334 56.8874 104.643 57.2743 104.54 58.4877C104.452 59.5338 104.923 60.1619 104.551 61.167C104.194 62.1305 103.805 62.9925 103.544 63.9969C102.297 68.7932 102.258 73.774 101.334 78.6366C100.48 83.136 99.2588 87.1443 97.2472 91.2687C96.3145 93.1807 95.5327 94.3512 93.4872 95.1577C91.8325 95.8097 90.6212 94.9549 89.8124 93.4675C87.636 89.4644 87.3265 85.3477 87.3529 80.8827C87.3654 78.7378 87.6099 76.5926 87.8162 74.4601C88.0303 72.2499 87.8698 70.185 87.7163 67.978C87.4082 63.5531 86.3998 59.7581 84.8824 55.5965C84.1631 53.6228 83.5562 51.6986 81.8235 50.4145C80.853 49.6954 79.8782 48.796 78.7405 48.1741C77.8302 47.6766 77.2884 47.2271 76.2503 47.0044C75.5677 46.8579 74.9456 46.6316 74.2863 46.4191C72.7308 45.9183 70.9316 45.7634 69.2998 45.7688C65.4899 45.7818 61.3087 47.0659 57.8792 48.7125C56.1717 49.5325 54.3173 50.7533 53.1925 52.3088C52.7284 52.9508 52.4124 53.6626 52.0971 54.3849C51.7198 55.2482 51.8384 55.4062 51.0394 55.376C50.5389 55.3571 49.9791 54.8934 49.4058 54.8688C48.7783 54.8419 48.3189 55.0606 47.7347 55.2228C46.9932 55.4286 46.2961 55.613 45.6369 56.0395C44.037 57.0737 42.6839 58.7221 41.4614 60.1602C39.2232 62.7925 37.1984 65.7424 35.1045 68.4235C33.0426 71.0632 30.5377 73.406 27.335 74.6026C26.1133 75.0593 24.7604 75.1515 23.513 75.5208C22.9656 75.6827 22.3027 76.1127 21.7292 76.1053C20.8279 76.0938 20.8972 75.6518 20.5852 74.9358C20.2143 74.0852 19.6777 73.4229 19.0072 72.7876C16.0326 69.968 12.3331 74.1457 12.5627 77.364C12.697 79.2443 14.1047 80.4846 14.0551 82.33C14.0085 84.0566 14.1112 85.8079 14.7263 87.4465C15.4167 89.2843 17.1145 91.1903 18.6117 92.4405C19.9987 93.5988 21.7359 93.8447 23.4831 94.038C24.2839 94.1265 25.1148 94.3649 25.8892 94.351C26.5527 94.3388 27.1561 94.0699 27.8335 94.0973C28.9825 94.1437 29.5984 94.1362 30.6751 93.7278C31.4736 93.4251 32.1942 93.257 33.0638 93.2766C33.0638 95.1114 33.1799 96.9057 33.3374 98.7343C33.3581 98.9757 33.5249 99.6028 33.414 99.8181C33.2771 100.084 33.1146 99.9085 32.9441 100.1C32.5374 100.555 32.2425 100.779 31.938 101.372C31.1025 102.996 30.8468 104.812 31.1723 106.624C31.4278 108.043 32.2617 108.628 32.0646 110.137C31.8328 111.909 31.4016 113.718 31.3184 115.502C31.2785 116.353 31.2685 116.996 31.0886 117.821C30.9846 118.3 30.6349 119.163 30.6631 119.648C30.6808 119.947 30.9976 120.08 30.9981 120.354C30.9988 120.593 30.7229 120.561 30.704 120.766C30.6462 121.384 30.6125 121.943 30.6257 122.565C30.6432 123.405 30.5612 124.24 30.5926 125.081C30.6165 125.721 30.4677 127.236 31.1853 126.986C30.9939 127.439 30.943 127.874 30.9241 128.308C30.9143 128.266 30.9101 128.223 30.9138 128.179C30.9577 127.678 30.9724 127.489 31.1853 126.986L30.7758 127.129C30.5253 127.776 30.8328 128.41 30.9016 129.053C30.8994 129.118 30.8971 129.182 30.8932 129.247C30.8353 130.183 30.9059 131.098 30.9757 132.031C31.1349 134.162 31.2099 136.537 31.7854 138.451C32.4163 140.549 32.2146 143.187 32.4579 145.499C32.7363 148.144 33.1876 150.746 33.5239 153.382C33.8242 155.735 33.969 158.288 34.4842 160.58C34.9066 162.457 35.2641 164.284 35.4906 166.257C35.8042 168.993 36.8014 171.077 37.8988 173.562C38.3628 174.614 38.3947 174.597 37.5428 175.366C37.1859 175.688 36.8834 176.064 36.5197 176.379C35.7917 177.009 34.9964 177.376 34.0403 177.489C31.6867 177.768 29.309 178.606 27.9868 180.637C26.7089 182.601 27.5369 184.902 28.4932 186.903C27.2311 187.01 23.8178 186.933 24.6163 189.235C25.1622 190.809 28.0728 190.282 29.3583 190.299C31.2369 190.324 33.1286 190.232 34.9906 190.206C35.8383 190.194 35.9248 190.107 36.7503 190.43C37.5281 190.735 38.1218 190.769 38.9635 190.713C39.8598 190.654 40.7555 190.786 41.6241 190.657C42.719 190.495 43.4002 190.358 44.5001 190.553C45.2952 190.693 45.9325 190.624 46.7258 190.519C47.6051 190.403 48.4378 190.473 49.345 190.449C51.4641 190.392 53.5669 190.432 55.6874 190.455C57.7486 190.478 59.8113 190.196 61.8583 190.289C65.4281 190.45 69.0615 190.303 72.6478 190.387C74.302 190.425 75.5799 191.389 77.2381 191.29C78.9232 191.189 80.6314 191.174 82.3036 190.938C85.1828 190.532 87.957 189.958 90.8821 189.808C92.731 189.713 94.356 190.51 96.0954 191.011C96.7258 191.192 97.2928 191.107 97.882 191.241C98.438 191.368 99.0083 191.732 99.5955 191.882C100.986 192.239 102.314 192.375 103.536 192.408C103.694 192.701 103.877 192.737 104.084 192.515C104.168 192.468 104.252 192.42 104.336 192.372C104.725 192.32 105.003 192.145 105.412 192.119C106.042 192.078 106.687 192.164 107.272 192.108C108.497 191.99 109.646 191.912 111 192.052C111.803 192.134 112.506 192.018 113.297 192.032C113.288 192.032 114.381 192.246 114.406 192.236C114.503 192.198 114.656 191.928 114.719 191.916C114.696 191.657 114.774 191.54 114.953 191.566C115.096 191.534 115.191 191.609 115.236 191.79C115.193 191.796 115.577 191.99 115.604 191.994C115.626 191.997 116.614 191.88 116.684 191.854C116.967 191.748 117.088 191.439 117.314 191.393C117.582 191.338 117.741 191.634 117.973 191.621C118.485 191.593 118.425 191.365 118.818 191.294C120.198 191.045 121.889 191.369 123.315 191.371C124.736 191.374 126.149 191.243 127.517 191.183C129.199 191.109 130.847 191.429 132.542 191.202C134.154 190.986 135.767 190.892 137.391 190.823C140.785 190.68 144.269 190.832 147.631 190.432C151.133 190.016 154.693 190.432 158.2 190.369C161.898 190.303 165.616 190.269 169.312 190.118C172.991 189.967 176.655 189.528 180.32 189.44C181.252 189.418 182.168 189.195 183.096 189.128C183.947 189.066 184.783 189.201 185.64 189.126C187.201 188.989 188.621 189.094 190.19 189.07C191.945 189.043 193.649 188.775 195.395 188.668C197.159 188.559 198.906 188.808 200.656 188.46C201.613 188.269 203.397 186.957 202.177 185.858Z" fill="black"/>
<path fill-rule="evenodd" clip-rule="evenodd" d="M132.899 29.585C132.897 29.585 132.895 29.5852 132.893 29.585C132.884 29.595 132.875 29.6058 132.867 29.6153L132.899 29.585Z" fill="black"/>
<path fill-rule="evenodd" clip-rule="evenodd" d="M147.514 21.4954C147.736 20.724 147.175 20.1714 146.798 19.5723C146.577 20.9317 145.897 20.8728 147.514 21.4954Z" fill="black"/>
<path fill-rule="evenodd" clip-rule="evenodd" d="M106.804 50.457C106.81 50.4725 106.817 50.486 106.821 50.5023C106.828 50.4755 106.82 50.4616 106.804 50.457Z" fill="black"/>
<path fill-rule="evenodd" clip-rule="evenodd" d="M100.678 49.4397C100.728 49.5532 100.839 50.3389 100.918 50.3428C101.629 50.3766 100.763 49.0474 100.308 48.9697C99.6513 49.3945 100.693 49.4748 100.678 49.4397Z" fill="black"/>
<path fill-rule="evenodd" clip-rule="evenodd" d="M100.64 44.8483C100.593 44.248 100.391 44.1719 99.8164 44.4638C99.9881 44.8413 100.193 44.787 100.64 44.8483Z" fill="black"/>
<path fill-rule="evenodd" clip-rule="evenodd" d="M92.6816 30.1503C92.9561 30.1961 93.2307 30.2419 93.5049 30.2874C93.3438 29.9214 93.1825 29.5548 93.0214 29.1885C92.9081 29.5093 92.795 29.8298 92.6816 30.1503Z" fill="black"/>
<path fill-rule="evenodd" clip-rule="evenodd" d="M98.3142 150.758C98.3145 150.758 98.3145 150.757 98.315 150.757C98.2953 150.764 98.2923 150.766 98.3142 150.758Z" fill="black"/>
<path fill-rule="evenodd" clip-rule="evenodd" d="M42.33 75.9352C42.9112 74.9622 44.0133 73.7604 45.2678 74.1647C46.4398 74.5429 46.7642 76.0811 47.2693 77.0486C48.2518 78.9298 48.5577 76.91 48.7754 75.7682C48.598 73.4816 47.7094 69.7596 44.7034 70.154C42.417 70.4544 40.4426 74.1316 40.878 76.3057C41.2437 78.1333 41.8612 76.72 42.33 75.9352Z" fill="black"/>
<path fill-rule="evenodd" clip-rule="evenodd" d="M128.977 32.8386C127.855 32.4374 127.856 33.652 127.813 34.5649C127.773 35.4037 127.903 37.3712 128.96 37.6709C130.014 37.9697 130.113 36.232 130.276 35.5294C130.031 34.6955 129.895 33.1665 128.977 32.8386Z" fill="black"/>
<path fill-rule="evenodd" clip-rule="evenodd" d="M130.276 31.0162C129.452 30.287 128.902 30.0636 127.85 30.5347C127.308 30.777 126.534 31.3042 126.449 31.9691C126.185 34.0383 129.55 31.4408 130.276 31.0162Z" fill="black"/>
<path fill-rule="evenodd" clip-rule="evenodd" d="M130.448 43.4128C132.369 43.9095 132.491 41.2816 130.356 41.2773C128.927 41.2746 129.376 43.1355 130.448 43.4128Z" fill="black"/>
<path fill-rule="evenodd" clip-rule="evenodd" d="M115.769 35.243C115.052 35.3479 114.799 35.7982 114.952 36.5169C115.13 37.3461 115.579 37.3529 116.382 37.4303C118.32 37.4364 117.055 35.0549 115.769 35.243Z" fill="black"/>
<path fill-rule="evenodd" clip-rule="evenodd" d="M132.772 30.7937C132.95 31.2859 133.912 31.5082 134.415 31.3205C135.014 31.0972 135.138 30.5546 134.598 30.0563C134.136 29.6295 133.498 29.742 132.919 29.7816C132.938 29.9679 132.662 30.4875 132.772 30.7937Z" fill="black"/>
<path fill-rule="evenodd" clip-rule="evenodd" d="M72.529 86.8838C73.4448 86.8825 72.5806 85.3318 71.8262 85.2354C71.8421 85.7151 71.8106 86.8851 72.529 86.8838Z" fill="black"/>
</g>
<defs>
<clipPath id="clip0">
<rect width="518" height="193" fill="white"/>
</clipPath>
</defs>
</svg>
