<svg width="848" height="589" viewBox="0 0 848 589" fill="none" xmlns="http://www.w3.org/2000/svg">
<g clip-path="url(#clip0)">
<path fill-rule="evenodd" clip-rule="evenodd" d="M745.426 557C697.738 586.188 638.976 572.206 584.109 561.374C534.7 551.62 489.241 533.905 452.719 499.213C408.383 457.097 352.3 409.439 360.366 348.836C368.413 288.373 440.433 265.677 488.751 228.472C536.465 191.733 575.984 138.519 636.178 136.462C703.651 134.156 773.389 163.011 813.455 217.376C852.779 270.736 848.815 342.352 835.8 407.328C823.899 466.743 797.098 525.374 745.426 557Z" stroke="black"/>
<path fill-rule="evenodd" clip-rule="evenodd" d="M216.287 17.916C223.73 23.1803 226.798 33.2688 228.51 43.3154C230.265 53.6113 231.426 65.0519 225.689 73.0862C219.892 81.2036 210.097 81.8367 201.111 81.683C191.728 81.5224 181.627 80.7018 175.586 72.2288C169.154 63.2068 167.805 50.363 170.737 39.079C173.559 28.2186 181.198 20.3428 190.15 16.1835C198.697 12.2126 208.414 12.3476 216.287 17.916Z" stroke="black"/>
<path fill-rule="evenodd" clip-rule="evenodd" d="M400.885 523.335C398.433 526.172 394.811 528.277 392.032 530.87C389.114 533.594 385.947 535.974 383.041 538.665C370.219 522.995 352.655 513.386 337.439 500.382C330.226 494.217 324.912 485.855 321.022 477.272C319.028 472.873 317.555 468.344 316.403 463.657C315.884 461.546 315.376 459.442 315.037 457.302C314.626 454.711 314.519 454.49 312.771 452.467C312.018 451.597 310.56 449.054 309.086 449.334C307.845 449.57 305.576 453.346 304.792 454.279C301.022 458.766 297.367 463.389 293.397 467.701C287.324 474.301 281.795 480.795 276.156 487.789C264.621 502.099 252.179 515.57 239.623 529.035C238.692 530.033 236.521 532.961 235.183 533.355C233.556 533.833 230.912 531.838 229.274 530.723C225.32 528.031 222.203 524.699 218.822 521.362C212.226 514.851 207.759 505.711 204.754 497.015C202.955 491.809 201.786 486.413 199.929 481.226C199.156 479.064 197.402 476.406 198.292 474.523C198.557 473.962 200.245 472.47 200.84 472.356C201.544 472.221 202.717 473.186 202.961 473.119C205.296 472.48 204.001 470.036 205.389 468.721C206.177 467.975 210.181 468.084 211.377 467.674C215.748 466.175 219.67 463.314 223.803 461.607C241.103 454.459 258.615 447.506 273.55 435.834C277.423 432.808 279.997 430.533 284.619 428.577C289.29 426.6 293.985 424.836 298.75 423.111C302.955 421.589 307.183 420.162 311.526 419.072C316.223 417.892 322.886 416.396 327.579 417.916C336.794 420.899 339.77 428.493 343.44 436.503C348.406 447.341 354.409 457.596 360.918 467.572C373.439 486.765 388.667 503.987 400.885 523.335Z" fill="#FF5678"/>
<path fill-rule="evenodd" clip-rule="evenodd" d="M123.341 353.659C122.834 353.402 118.874 355.013 118.21 355.26C115.555 356.245 113.055 357.881 110.554 359.213C112.471 361.545 114.388 363.878 116.304 366.211C118.183 361.603 120.597 357.801 123.341 353.659ZM124.648 382.331C123.996 382.404 129.501 395.634 130.144 397.12C132.484 402.523 134.94 407.873 137.311 413.263C139.608 418.486 142.521 423.29 145.456 428.17C147.967 432.342 150.549 438.818 154.337 441.908C151.945 431.3 152.26 419.102 145.402 410.195C138.292 400.96 131.263 391.943 124.648 382.331ZM400.885 523.806C390.261 506.983 376.961 492.099 365.883 475.576C359.679 466.323 353.642 456.953 348.42 447.105C344.622 439.941 342.261 429.719 336.395 424.242C333.81 421.829 331.048 419.467 327.578 418.386C322.831 416.907 316.295 418.373 311.526 419.543C302.639 421.722 293.958 425.106 285.54 428.659C277.002 432.264 269.718 438.738 262.003 443.94C253.728 449.52 244.77 453.585 235.498 457.144C227.425 460.243 220.243 464.691 212.213 467.81C210.613 468.432 207.348 468.341 206.006 469.151C204.559 470.024 205.129 472.601 203.373 473.551C202.581 473.98 202.317 472.425 201.709 472.451C200.965 472.482 200.287 473.355 199.57 473.908C196.651 476.159 198.439 477.661 199.595 480.759C203.361 490.854 205.386 501.124 210.674 510.655C215.022 518.488 221.245 525.508 228.572 530.693C229.687 531.483 233.32 534.541 234.628 534.337C235.805 534.155 238.201 531.024 239.015 530.174C242.704 526.316 246.077 522.165 249.764 518.301C255.462 512.329 260.947 506.196 266.477 500.143C272.896 493.115 278.577 485.153 284.358 477.644C287.018 474.189 290.441 471.376 293.397 468.173C297.372 463.866 301.022 459.236 304.793 454.751C305.933 453.393 307.844 449.921 309.617 449.962C310.859 449.99 313.05 452.915 313.7 453.832C316.115 457.239 316.104 463.392 317.305 467.645C320.236 478.016 325.521 488.145 332.769 496.148C339.976 504.106 349.209 509.765 357.733 516.162C366.968 523.092 375.717 530.185 383.041 539.137C385.947 536.446 389.114 534.065 392.032 531.341C394.812 528.747 398.433 526.643 400.885 523.806ZM264.128 571.403C266.194 571.424 269.691 572.695 271.539 571.93C266.058 565.865 261.025 560.662 254.091 556.218C246.895 551.606 239.723 547.035 232.734 542.116C218.649 532.202 208.289 520.446 202.405 503.936C200.89 499.685 199.875 495.226 198.765 490.855C198.168 488.502 196.979 477.49 194.959 476.539C193.763 475.976 184.761 482.303 183.334 483.091C180 484.936 176.652 486.366 173.204 487.809C165.793 490.912 158.153 493.279 150.294 495.255C140.872 497.624 134.454 493.704 128.617 486.299C121.995 477.897 116.492 468.417 110.438 459.594C107.684 455.581 105.403 451.574 103.37 447.148C102.039 444.252 96.7608 436.438 98.5847 433.352C103.788 437.314 105.66 445.191 109.205 450.495C113.622 457.105 118.601 463.338 123.041 469.943C126.775 475.496 130.585 482.226 136.101 486.219C140.954 489.73 145.563 488.651 150.786 487.072C157.115 485.16 163.676 484.218 169.879 481.845C176.591 479.279 182.942 475.638 189.492 472.669C192.545 471.284 196.201 470.497 199.078 468.771C201.558 467.285 201.188 466.499 201.37 463.333C201.583 459.64 201.827 455.943 201.991 452.246C202.101 449.762 200.757 446.394 201.669 444.54C194.233 445.829 186.966 447.555 179.583 449.083C175.541 449.919 171.643 450.953 167.559 451.61C166.002 451.86 163.874 451.853 162.481 452.531C161.369 452.212 160.802 452.415 160.78 453.14C160.727 453.533 160.643 453.922 160.527 454.303C158.247 455.34 156.921 453.116 154.944 450.982C152.504 448.348 150.677 445.383 148.886 442.288C144.884 435.37 140.27 428.863 136.566 421.75C132.791 414.498 129.724 406.734 126.524 399.211C123.587 392.309 121.707 384.844 118.462 378.105C117.014 375.097 115.179 372.61 113.036 370.069C111.267 367.972 108.547 363.448 105.906 362.485C105.207 362.23 103.379 362.658 102.585 362.602C101.004 362.489 99.5951 361.908 97.9771 362.035C94.4739 362.31 90.6546 364.525 87.8551 366.473C89.6642 368.085 94.1899 370.045 90.9391 372.95C87.7845 375.77 86.0421 370.712 84.8383 368.495C79.1697 373.15 79.9891 379.568 79.3343 386.145C78.9922 389.579 78.0925 392.961 77.5121 396.343C77.094 398.777 77.3872 401.295 77.2677 403.78C76.9631 410.095 76.3284 416.14 76.3582 422.367C76.3919 429.023 76.8453 435.45 77.3779 442.058C78.2744 453.182 80.3284 464.31 82.0898 475.346C83.0807 481.549 84.4371 487.576 85.7538 493.679C87.248 500.606 90.0123 507.167 91.5625 514.075C93.142 512.067 94.33 512.058 96.8846 512.324C98.8496 512.528 100.17 512.061 100.054 514.788C99.9801 516.557 98.4196 517.908 96.693 518.217C94.4413 518.619 93.6762 517.496 92.5159 515.791C92.2444 519.02 94.4163 522.397 95.2753 525.551C96.0881 528.54 96.6267 531.47 97.9928 534.331C99.3258 537.122 100.467 539.875 101.816 542.639C102.437 543.91 103.018 545.202 103.646 546.471C103.964 547.113 104.338 547.998 104.812 548.539C105.924 549.808 105.747 549.194 107.048 549.916C109.884 551.491 108.819 551.099 108.885 554.351C108.95 557.56 110.595 559.917 113.233 561.72C118.831 565.547 124.352 566.611 130.715 568.544C136.645 570.346 142.89 571.892 149.168 571.856C156.858 571.814 164.445 570.805 172.135 570.703C180.618 570.591 189.183 570.637 197.649 570.93C201.136 571.051 204.375 571.206 207.742 572.096C211.652 573.131 215.434 572.721 219.464 572.564C228.062 572.23 236.955 571.564 245.44 571.505C251.55 571.461 257.996 571.035 264.128 571.403ZM487.065 574.736C488.593 575.543 492.019 575.212 493.556 574.988C496.263 574.593 496.553 573.52 498.27 571.107C501.226 566.95 503.626 562.97 505.365 558.155C508.693 548.94 510.052 539.513 511.513 529.874C513.138 519.164 510.172 508.061 509.111 497.424C508.867 494.983 508.534 492.565 508.148 490.142C507.917 488.694 507.857 483.768 506.904 482.514C505.073 480.106 496.56 482.048 493.212 482.267C483.869 482.877 474.464 483.02 465.125 483.126C460.145 483.182 455.138 483.391 450.208 483.429C447.944 483.447 445.73 483.335 443.458 483.114C442.698 483.041 441.955 482.866 441.19 482.824C438.568 482.679 438.765 482.299 438.088 484.62C436.901 488.687 437.814 493.861 437.503 498.082C437.086 503.722 436.86 509.442 436.963 515.095C437.059 520.318 436.881 525.529 437.076 530.764C437.157 532.932 437.394 534.7 437.966 536.77C438.612 539.111 439.324 544.579 440.934 546.199C441.117 546.384 442.486 545.954 442.849 546.413C443.409 547.12 443.306 548.617 443.691 549.075C444.935 550.555 447.506 550.672 449.371 551.337C454.488 553.162 459.183 555.143 464.006 557.604C468.315 559.803 475.264 561.674 477.855 566.011C479.043 567.999 479.203 570.621 480.295 572.673C481.539 575.009 479.05 573.788 482.098 574.736C483.471 575.163 485.658 574.736 487.065 574.736ZM32.7329 548.305C32.3452 553.702 29.3051 558.842 28.2469 564.148C27.7517 566.633 26.9117 569.075 26.3297 571.545C25.7715 573.914 23.7549 576.72 23.9591 579.065C31.4021 576.413 38.9412 575.746 46.7203 575.031C54.0933 574.353 61.8822 574.083 69.1932 574.08C76.6433 574.076 84.6092 573.349 92.2803 573.236C100.303 573.118 108.446 572.91 116.352 572.078C112.218 569.016 107.045 566.141 103.993 561.881C100.674 557.25 98.9506 551.447 96.0305 546.561C90.1708 536.754 86.4455 524.586 83.3739 513.568C77.1727 491.327 70.2428 469.497 68.5726 446.427C65.3941 448.055 62.8709 454.37 61.2795 457.515C59.2482 461.53 58.1845 465.883 56.864 470.15C54.1449 478.94 52.2629 488.055 48.9334 496.761C42.5698 513.404 38.4797 531.337 32.7329 548.305ZM436.762 418.678C438.139 428.626 441.025 438.702 441.136 448.769C441.16 450.983 440.785 453.443 441.247 455.627C441.74 457.958 443.343 460.02 444.269 462.235C445.738 465.753 449.459 472.962 445.871 475.943C445.798 473.114 443.21 469.523 441.906 467.049C439.941 463.323 437.359 459.916 435.229 456.282C430.77 448.675 425.774 441.232 420.028 434.526C414.431 427.994 407.98 422.2 402.045 415.98C400.262 414.112 385.957 396.125 385.388 396.376C389.826 413.487 397.368 428.375 407.691 442.702C412.752 449.725 418.826 454.347 424.987 460.297C430.118 465.252 439.787 470.55 438.013 478.669C446.034 477.898 454.001 476.666 462.094 476.666C460.763 466.423 459.744 456.343 457.368 446.268C454.671 434.828 452.844 423.046 450.561 411.505C448.232 399.722 444.28 388.316 441.822 376.556C439.469 365.294 437.447 354.053 435.721 342.667C434.295 348.976 434.821 355.906 434.315 362.343C433.798 368.92 433.848 375.376 434.02 381.992C434.339 394.28 435.649 406.419 436.762 418.678ZM471.516 360.093C471.561 354.833 472.58 349.645 472.894 344.398C472.991 342.788 474.594 331.804 473.099 331.231C471.869 333.912 471.582 337.343 470.466 340.156C469.35 342.966 467.857 345.644 466.786 348.474C464.467 354.604 463.667 361.541 463.417 368.059C462.852 382.802 462.559 397.511 463.55 412.254C463.975 418.573 464.301 424.903 464.185 431.235C464.057 438.201 462.99 444.249 464.286 451.158C465.568 458.001 466.374 464.815 466.801 471.757C467.101 476.63 467.221 476.285 471.87 475.943C475.226 475.695 478.616 475.96 481.977 475.806C480.405 456.815 480.148 437.785 477.638 418.867C476.357 409.216 476.323 399.425 474.732 389.809C473.942 385.033 472.615 380.352 471.853 375.571C471.035 370.436 471.438 365.267 471.516 360.093ZM131.559 348.142C140.508 348.917 150.028 351.593 159.202 349.826C157.69 349.214 153.732 348.369 155.513 345.952C157.324 343.494 160.376 346.611 162.182 346.289C163.295 346.091 165.756 341.436 166.442 340.472C168 338.282 168.188 337.9 170.989 337.339C173.703 336.796 174.318 337.384 174.662 334.686C175.056 331.583 173.983 328.095 174.089 324.922C174.318 318.092 176.521 312.103 178.572 305.677C169.859 307.572 161.339 309.82 152.43 311.042C148.622 311.564 142.697 312.769 139.237 310.18C138.338 309.507 138.481 308.598 137.745 307.818C136.511 306.509 134.22 305.155 132.469 304.782C121.693 302.488 120.642 317.85 126.042 323.598C127.395 325.039 129.277 325.75 130.662 327.07C132.51 328.83 132.662 330.684 132.932 333.372C133.438 338.41 132.75 343.469 130.601 348.078L131.559 348.142ZM262.33 420.666C265.511 421.27 268.831 421.132 272.021 421.647C273.154 421.83 276.551 422.469 277.548 421.807C279.069 420.795 279.61 417.085 280.329 415.357C281.594 412.318 283.385 409.667 284.591 406.573C289.521 393.934 294.119 381.244 300.081 369.036C297.796 368.442 296.041 368.419 293.738 368.112C291.339 367.793 289.163 366.374 286.874 365.764C284.699 365.185 282.419 365.332 280.264 364.659C279.076 364.288 278.057 363.463 276.886 363.175C275.02 362.716 272.842 362.448 271.733 363.672C270.595 364.929 270.196 368.374 269.577 369.997C267.928 374.321 266.013 378.493 264.633 382.916C263.387 386.906 262.203 390.852 261.106 394.878C259.947 399.128 257.664 402.631 256.273 406.69C255.214 409.78 254.216 412.939 254.058 416.234C253.904 419.449 253.436 419.654 256.651 420.167C258.274 420.426 260.803 421.391 262.33 420.666ZM471.639 571.132C472.468 571.518 473.249 571.467 473.982 570.977C466.798 567.943 459.811 563.735 452.317 561.654C445.287 559.702 438.454 557.369 431.682 554.965C426.179 553.011 421.231 551.49 416.256 548.052C413.236 545.965 410.553 543.618 408.478 540.568C406.168 537.173 405.654 532.34 403.152 529.282C399.774 532.991 395.807 535.8 391.811 538.747C390.429 539.767 387.113 541.99 386.64 543.568C386.043 545.559 387.642 547.464 388.432 549.479C390.457 554.639 391.446 559.797 392.545 565.162C392.985 567.312 393.936 570.544 395.702 571.445C397.31 572.264 401.968 571.669 403.969 571.517C414.411 570.725 424.667 569.915 435.171 570.636C447.058 571.451 459.783 572.014 471.639 571.132ZM492.494 475.508C494.392 475.515 496.245 475.278 498.136 475.278C497.044 470.182 499.596 463.588 500.5 458.501C501.513 452.812 502.283 446.928 502.958 441.193C504.381 429.112 505.025 417.178 505.043 405.009C505.061 393.234 507.205 382.473 510.207 371.154C513.431 358.996 518.711 348.064 523.077 336.339C518.288 338.871 515.637 344.794 513.121 349.322C509.94 355.048 507.822 361.388 506.523 367.815C504.017 380.215 501.269 392.652 498.377 405.032C495.367 417.921 493.597 430.929 490.148 443.713C488.466 449.948 486.179 457.617 486.052 464.047C485.999 466.706 485.197 472.276 486.403 474.586C487.53 476.747 490.022 475.729 492.494 475.508ZM206.05 459.516C205.95 460.839 205.856 462.099 205.621 463.406C208.249 463.381 211.578 460.654 213.833 459.429C216.579 457.938 219.328 456.293 222.015 454.794C227.2 451.898 233.087 449.991 238.623 447.613C244.984 444.881 250.83 441.579 256.912 438.29C259.037 437.141 274.306 430.522 274.05 428.714C270.698 428.602 267.345 428.491 263.993 428.38C261.119 428.284 256.667 428.934 253.915 428.045C252.408 427.558 250.715 425.766 250.146 424.362C249.583 422.973 250.849 416.585 250.113 416.178C246.361 420.009 244.002 425.1 240.648 429.233C236.941 433.8 232.151 436.467 226.871 438.894C221.042 441.575 215.007 443.651 209.049 445.948C206.537 446.917 206.587 447.471 206.368 450.226C206.123 453.305 206.149 456.428 206.05 459.516ZM508.998 575.363C515.318 576.042 521.794 575.655 528.163 576.184C530.48 576.376 533.693 576.663 531.362 579.773C529.894 581.732 525.19 581.104 523.057 581.24C517.329 581.604 511.265 581.408 505.524 581.323C504.315 581.306 502.98 580.946 501.758 581.027C500.348 581.12 498.659 582.134 497.374 582.127C496.582 582.122 496.298 581.286 495.615 581.21C494.127 581.042 492.639 580.92 491.138 580.921C468.447 580.926 446.068 580.47 423.434 580.445C412.611 580.434 401.614 580.247 390.796 579.739C388.524 579.632 375.586 580.097 375.945 576.006C376.129 573.899 380.351 573.602 381.892 573.378C383.034 573.213 384.219 573.239 385.363 573.178C388.402 573.015 389.734 573.746 389.092 570.42C386.661 557.806 382.303 547.381 372.992 538.311C365.378 530.895 356.211 524.168 347.587 517.974C337.117 510.454 328.623 502.545 322.406 491.038C318.776 484.319 315.737 477.448 313.872 470.018C313.201 467.345 313.185 464.305 312.362 461.728C311.73 459.744 310.288 458.356 309.438 456.301C299.021 473.701 285.214 488.258 272.554 503.947C266.505 511.442 259.604 518.561 252.377 525.081C250.232 527.017 248.231 529.037 246.229 531.119C244.554 532.862 241.896 534.411 240.482 536.345C239.126 538.199 239.46 538.111 241.524 539.584C244.253 541.531 247.26 543.148 250.032 545.046C254.463 548.081 259.299 550.645 263.261 554.297C267.545 558.246 271.288 562.821 275.033 567.275C277.529 570.243 280.804 574.052 281.432 577.805C281.64 579.047 282.43 582.118 281.388 583.028C280.497 583.805 280.587 583.51 279.481 583.036C278.033 582.414 277.606 580.989 275.837 580.31C271.309 578.572 265.83 579.169 261.119 579.148C256.406 579.127 251.654 579.656 246.943 579.637C236.185 579.593 225.657 580.464 214.903 580.931C203.481 581.427 191.919 580.236 180.535 580.405C172.101 580.53 163.442 579.899 154.774 580.368C150.316 580.609 145.938 580.051 141.591 579.989C135.899 579.907 130.054 580.681 124.314 580.791C114.892 580.973 105.586 580.972 96.1066 581.198C75.717 581.686 55.4377 582.19 35.0362 582.513C32.3148 582.556 29.3355 582.464 26.6462 582.77C23.7918 583.096 25.2654 583.702 23.3069 584.73C17.824 587.606 19.0902 576.945 19.2216 574.848C19.9264 563.61 22.7792 552.589 26.2075 541.921C29.4599 531.803 32.1003 521.213 34.8548 510.876C37.8699 499.562 41.7983 488.711 45.3656 477.509C49.0209 466.029 51.9969 454.102 58.6357 443.927C60.1479 441.609 61.7106 439.115 64.1431 437.654C66.8699 436.016 66.9872 436.973 66.985 433.975C66.9834 431.152 67.1571 427.38 66.4909 424.685C65.8887 422.251 65.9816 423.694 64.6258 421.946C63.5225 420.524 62.3681 419.552 61.5765 417.825C56.7136 422.756 45.5822 420.154 40.8839 416.604C35.1333 412.258 30.7532 404.926 29.1482 397.944C27.8592 392.336 29.4409 381.648 35.647 378.952C38.6724 377.637 49.7848 376.643 50.2295 372.359C50.4586 370.148 46.5476 367.038 45.6452 365.137C43.9729 361.614 42.3668 356.928 41.902 353.067C40.9942 345.529 44.4159 337.101 49.8668 332.009C59.8661 322.669 77.4599 317.876 90.3223 323.802C87.6042 313.419 85.9634 304.461 87.3322 293.66C88.5115 284.356 94.0015 279.15 101.556 274.515C114.447 266.605 131.977 263.483 146.717 265.783C150.067 266.306 153.281 267.427 156.383 268.319C160.888 269.615 166.282 269.183 170.536 271.289C173.621 272.815 175.963 275.856 178.672 277.886C181.835 280.256 184.463 283.794 186.66 287.065C191.36 294.061 189.523 307.044 185.59 314.066C184.747 315.573 183.705 316.84 182.309 317.868C180.856 318.938 178.642 319.271 177.893 320.658C175.975 324.212 177.825 331.905 178.081 335.746C178.379 340.206 176.124 343.556 171.067 343.912C168.141 344.118 168.048 342.421 166.647 345.913C165.739 348.177 164.914 350.643 163.604 352.718C160.903 356.995 155.955 356.578 151.449 356.462C146.232 356.327 141.093 355.503 135.874 354.983C137.252 359.4 141.026 362.828 143.382 366.763C146.568 372.085 148.486 376.497 149.004 382.698C149.402 387.462 148.544 391.224 145.284 394.769C143.935 396.237 142.738 396.309 143.073 398.002C143.278 399.035 145.063 400.739 145.695 401.563C147.367 403.744 149.308 405.745 150.78 408.074C156.442 417.034 158.114 430.693 158.128 441.123C158.129 441.602 158.384 442.619 158.173 443.113C158.016 443.479 156.828 444.636 156.811 444.735C156.579 446.076 157.886 448.375 159.938 448.603C162.093 448.841 166.04 447.043 168.045 446.452C171.252 445.506 174.522 444.808 177.723 443.836C182.893 442.268 188.038 441.017 193.294 439.787C195.669 439.233 198.057 438.77 200.439 438.251C203.153 437.66 204.414 436.518 205.814 439.279C207.016 441.649 206.269 442.078 209.18 440.884C212.07 439.698 214.894 438.228 217.716 436.889C222.693 434.528 228.62 432.423 232.913 428.938C240.074 423.123 242.726 413.863 249.58 407.694C251.488 405.976 252.627 405.945 253.834 403.565C255.125 401.018 255.792 397.752 256.47 395.012C257.66 390.214 258.506 385.4 259.585 380.607C260.929 374.635 263.833 369.227 265.953 363.531C266.778 361.312 267.206 358.491 268.538 356.497C268.891 355.968 269.566 355.67 269.841 355.233C270.788 353.73 270.779 353.318 271.024 351.51C272.172 343.064 277.214 347.507 282.723 349.444C285.044 350.26 296.066 355.552 291.857 359.072C296.874 360.528 304.91 359.737 304.842 366.927C304.807 370.611 302.604 374.551 301.422 378C300.371 381.062 299.356 384.135 298.289 387.192C295.951 393.889 293.115 400.385 290.834 407.102C289.794 410.163 288.936 413.296 287.489 416.185C286.212 418.734 283.121 421.543 282.612 424.33C295.982 418.626 308.35 410.38 323.315 410.905C329.867 411.135 335.814 413.89 339.433 419.651C343.97 426.872 346.955 434.958 351.389 442.246C367.521 468.759 386.762 492.845 404.472 518.26C405.832 520.213 407.581 522.06 408.053 524.473C408.361 526.048 407.764 527.623 408.133 529.136C408.899 532.279 412.77 536.205 415.394 538.011C420.426 541.474 428.604 546.359 434.883 545.926C430.942 536.457 430.995 526.082 431.178 515.981C431.352 506.386 432.389 496.868 433.62 487.372C433.899 485.224 434.142 483.232 434.759 481.15C435.467 478.761 436.44 478.987 434.318 476.84C431.051 473.533 427.166 470.812 423.873 467.464C416.751 460.224 409.451 454.55 403.846 445.904C398.515 437.681 392.891 429.22 388.944 420.215C384.882 410.944 383.258 401.044 381.241 391.227C380.423 387.243 377.439 382.796 378.038 378.636C378.796 373.378 381.234 377.207 382.227 380.036C385.255 388.673 392.347 396.403 398.221 403.349C404.567 410.853 412.329 417.132 418.953 424.417C426.166 432.352 431.107 441.471 437.522 449.942C437.522 439.43 433.933 428.726 432.465 418.327C431.173 409.174 430.768 399.992 429.951 390.8C428.097 369.918 429.699 348.422 432.301 327.689C433.538 317.843 432.837 308.229 432.874 298.349C432.886 295.205 431.585 287.958 433.243 285.167C436.42 279.823 438.274 291.509 438.434 293.252C439.395 303.631 437.672 313.895 438.552 324.23C439.472 335.022 441.468 345.512 443.166 356.18C445.006 367.73 448.002 379.02 450.87 390.349C453.881 402.244 456.414 414.387 459.762 426.187C460.664 422.478 459.398 417.921 459.147 414.144C458.79 408.738 458.092 403.331 458.032 397.911C457.936 389.273 457.868 380.475 458.357 371.877C458.838 363.402 458.693 354.522 461.292 346.357C462.526 342.482 464.335 338.701 466.105 335.051C468.289 330.55 469.061 326.185 470.27 321.398C471.306 317.298 472.822 313.306 473.512 309.124C473.941 306.523 475.138 298.846 478.116 304.663C479.845 308.039 479.098 313.044 479.146 316.671C479.208 321.321 478.496 325.842 478.387 330.473C478.175 339.558 478.022 348.632 477.344 357.701C476.634 367.217 477.254 375.745 479.065 385.121C481.046 395.384 481.626 405.67 482.653 416.058C483.182 421.422 484.075 426.756 484.506 432.128C484.734 434.972 483.564 443.129 485.602 445.155C485.8 440.228 487.211 435.297 488.281 430.496C489.549 424.809 490.061 418.829 490.996 413.06C492.509 403.714 495.445 394.788 497.388 385.546C501.393 366.495 504.72 342.01 521.502 329.54C523.698 327.908 526.111 326.704 528.485 325.361C529.828 324.601 531.825 322.634 533.363 322.291C535.041 321.917 535.741 322.208 536.421 324.155C537.37 326.869 535.635 328.137 534.015 330.108C528.41 336.93 526.016 345.675 522.555 353.676C514.63 371.996 511.123 391.319 511.083 411.123C511.062 421.489 510.347 431.488 509.241 441.792C508.052 452.881 506.485 464.609 503.116 475.277C506.495 476.034 510.161 474.905 511.078 478.833C511.303 479.798 510.896 480.939 511.145 482.194C511.388 483.415 511.97 484.629 512.315 485.83C513.027 488.313 513.404 490.762 513.751 493.312C515.09 503.166 517.39 512.538 517.635 522.529C517.86 531.765 516.052 541.122 514.386 550.18C512.708 559.303 507.895 567.079 504.105 575.33C505.736 575.33 507.367 575.347 508.998 575.363Z" fill="black"/>
<path fill-rule="evenodd" clip-rule="evenodd" d="M294.525 554.392C292.728 554.9 284.052 555.859 284.053 558.582C284.054 560.214 292.719 560.182 294.252 560.36C294.344 558.371 294.434 556.382 294.525 554.392ZM313.676 573.178C318.676 574.129 325.462 572.792 328.659 568.384C330.152 566.325 330.86 563.193 331.347 560.735C331.812 558.392 333.245 552.547 332.269 550.351C331.072 547.655 319.585 550.473 316.239 550.782C310.403 551.321 304.368 551.385 298.528 551.004C298.528 557.034 298.219 562.911 301.766 568.102C304.325 571.846 309.13 572.73 313.676 573.178ZM312.671 580.627C307.239 578.638 301.535 579.931 297.998 574.099C297.1 572.619 296.344 571.028 295.802 569.385C295.536 568.665 295.33 567.927 295.183 567.172C295.459 565.546 294.864 565.088 293.397 565.797C290.517 565.237 287.36 567.213 284.327 566.631C276.971 565.218 278.307 554.68 283.244 551.033C284.219 550.312 285.193 550.111 286.309 549.755C288.77 548.971 290.102 549.847 292.353 549.624C294.172 549.445 294.672 547.537 296.626 546.697C297.906 546.148 299.683 546.19 301.028 546.135C308.069 545.845 315.133 545.848 322.219 545.389C325.524 545.175 329.093 545.699 332.33 545.134C333.846 544.869 333.629 543.86 335.064 544.745C336.55 545.662 335.908 549.051 335.834 550.402C335.4 558.217 334.934 566.599 330.748 573.431C326.918 579.682 319.381 580.322 312.671 580.627Z" fill="black"/>
<path fill-rule="evenodd" clip-rule="evenodd" d="M25.7729 582.78C27.5208 582.761 29.268 582.742 31.0099 582.724C29.2599 582.743 27.5164 582.761 25.7729 582.78Z" fill="black"/>
<path fill-rule="evenodd" clip-rule="evenodd" d="M511.094 416.155C511.09 414.477 511.087 412.798 511.083 411.122C511.086 412.802 511.09 414.479 511.094 416.155Z" fill="black"/>
<path fill-rule="evenodd" clip-rule="evenodd" d="M66.4961 423.05C66.4907 424.685 66.4853 426.321 66.4799 427.952C66.4847 426.316 66.4902 424.683 66.4961 423.05Z" fill="black"/>
<path fill-rule="evenodd" clip-rule="evenodd" d="M211.778 580.926C213.168 580.928 214.559 580.93 215.943 580.933C214.55 580.932 213.165 580.929 211.778 580.926Z" fill="black"/>
<path fill-rule="evenodd" clip-rule="evenodd" d="M127.348 580.592C128.738 580.597 130.128 580.601 131.512 580.606C130.12 580.603 128.734 580.597 127.348 580.592Z" fill="black"/>
<path fill-rule="evenodd" clip-rule="evenodd" d="M431.362 512.671C431.301 513.775 431.239 514.879 431.178 515.98C431.24 514.875 431.301 513.774 431.362 512.671Z" fill="black"/>
<path fill-rule="evenodd" clip-rule="evenodd" d="M508.998 575.363C507.923 575.352 506.849 575.341 505.774 575.33C506.854 574.879 507.928 574.9 508.998 575.363Z" fill="black"/>
<path fill-rule="evenodd" clip-rule="evenodd" d="M413.595 580.251C414.367 580.239 415.138 580.227 415.902 580.214C415.129 580.225 414.362 580.238 413.595 580.251Z" fill="black"/>
<path fill-rule="evenodd" clip-rule="evenodd" d="M510.675 429.777C510.694 428.943 510.713 428.109 510.732 427.277C510.713 428.112 510.694 428.945 510.675 429.777Z" fill="black"/>
<path fill-rule="evenodd" clip-rule="evenodd" d="M438.552 324.229C438.489 323.369 438.425 322.509 438.361 321.65C438.425 322.512 438.489 323.371 438.552 324.229Z" fill="black"/>
<path fill-rule="evenodd" clip-rule="evenodd" d="M511.056 419.442C511.066 418.579 511.077 417.717 511.087 416.857C511.077 417.721 511.066 418.581 511.056 419.442Z" fill="black"/>
<path fill-rule="evenodd" clip-rule="evenodd" d="M268.52 579.181C269.206 579.191 269.892 579.201 270.572 579.209C269.885 579.199 269.202 579.19 268.52 579.181Z" fill="black"/>
<path fill-rule="evenodd" clip-rule="evenodd" d="M445.151 580.587C445.821 580.6 446.492 580.614 447.156 580.628C446.483 580.615 445.817 580.601 445.151 580.587Z" fill="black"/>
<path fill-rule="evenodd" clip-rule="evenodd" d="M517.558 519.933C517.51 519.176 517.461 518.419 517.414 517.664C517.462 518.421 517.51 519.177 517.558 519.933Z" fill="black"/>
<path fill-rule="evenodd" clip-rule="evenodd" d="M505.524 581.323C506.07 581.32 506.615 581.317 507.154 581.315C506.607 581.319 506.065 581.321 505.524 581.323Z" fill="black"/>
<path fill-rule="evenodd" clip-rule="evenodd" d="M431.182 580.622C431.722 580.609 432.262 580.596 432.797 580.583C432.255 580.597 431.718 580.61 431.182 580.622Z" fill="black"/>
<path fill-rule="evenodd" clip-rule="evenodd" d="M309.726 580.21C310.321 580.206 310.915 580.203 311.505 580.199C310.908 580.202 310.317 580.206 309.726 580.21Z" fill="black"/>
<path fill-rule="evenodd" clip-rule="evenodd" d="M172.568 580.207C173.133 580.211 173.699 580.215 174.258 580.22C173.69 580.217 173.129 580.212 172.568 580.207Z" fill="black"/>
<path fill-rule="evenodd" clip-rule="evenodd" d="M139.201 580.299C139.778 580.267 140.354 580.234 140.925 580.203C140.347 580.235 139.774 580.267 139.201 580.299Z" fill="black"/>
<path fill-rule="evenodd" clip-rule="evenodd" d="M298.946 360.604C298.088 360.53 297.23 360.456 296.372 360.382C297.231 360.442 298.139 359.934 298.946 360.604Z" fill="black"/>
<path fill-rule="evenodd" clip-rule="evenodd" d="M517.639 575.689C516.793 575.604 515.947 575.518 515.101 575.433C515.948 575.518 516.793 575.604 517.639 575.689Z" fill="black"/>
<path fill-rule="evenodd" clip-rule="evenodd" d="M458.633 365.812C458.577 366.554 458.519 367.295 458.463 368.034C458.52 367.292 458.577 366.552 458.633 365.812Z" fill="black"/>
<path fill-rule="evenodd" clip-rule="evenodd" d="M511.269 396.714C511.326 396.011 511.384 395.309 511.441 394.609C511.384 395.313 511.326 396.013 511.269 396.714Z" fill="black"/>
<path fill-rule="evenodd" clip-rule="evenodd" d="M458.297 377.309C458.236 378.049 458.175 378.789 458.115 379.526C458.175 378.785 458.236 378.047 458.297 377.309Z" fill="black"/>
<path fill-rule="evenodd" clip-rule="evenodd" d="M510.91 425.077C510.905 424.362 510.899 423.647 510.895 422.934C511.356 423.647 511.338 424.36 510.91 425.077Z" fill="black"/>
<path fill-rule="evenodd" clip-rule="evenodd" d="M431.374 527.77C431.367 528.487 431.361 529.204 431.354 529.917C430.88 529.195 430.975 528.481 431.374 527.77Z" fill="black"/>
<path fill-rule="evenodd" clip-rule="evenodd" d="M485.292 444.846C485.21 444.121 485.126 443.395 485.044 442.672C485.127 443.398 485.21 444.123 485.292 444.846Z" fill="black"/>
<path fill-rule="evenodd" clip-rule="evenodd" d="M38.8275 378.262C38.2667 379.003 37.5027 378.496 36.8359 378.586C37.5005 378.478 38.164 378.37 38.8275 378.262Z" fill="black"/>
<path fill-rule="evenodd" clip-rule="evenodd" d="M316.172 545.903C315.463 545.904 314.754 545.905 314.046 545.906C314.755 545.905 315.463 545.904 316.172 545.903Z" fill="black"/>
<path fill-rule="evenodd" clip-rule="evenodd" d="M429.379 381.308C429.445 381.91 429.511 382.513 429.577 383.114C429.511 382.51 429.445 381.909 429.379 381.308Z" fill="black"/>
<path fill-rule="evenodd" clip-rule="evenodd" d="M79.1928 321.45C78.4804 321.464 77.768 321.478 77.0557 321.493C77.7604 321.078 78.4706 320.958 79.1928 321.45Z" fill="black"/>
<path fill-rule="evenodd" clip-rule="evenodd" d="M458.28 387.735C458.233 388.367 458.187 388.998 458.142 389.628C458.188 388.996 458.233 388.365 458.28 387.735Z" fill="black"/>
<path fill-rule="evenodd" clip-rule="evenodd" d="M438.744 310.154C438.799 309.578 438.854 309.002 438.909 308.429C438.853 309.006 438.799 309.58 438.744 310.154Z" fill="black"/>
<path fill-rule="evenodd" clip-rule="evenodd" d="M433.146 308.349C433.09 308.974 433.034 309.6 432.979 310.222C433.034 309.596 433.09 308.972 433.146 308.349Z" fill="black"/>
<path fill-rule="evenodd" clip-rule="evenodd" d="M123.711 266.6C122.987 266.688 122.262 266.776 121.537 266.863C122.262 266.775 122.987 266.688 123.711 266.6Z" fill="black"/>
<path fill-rule="evenodd" clip-rule="evenodd" d="M71.3563 321.948C70.6124 322.024 69.8686 322.1 69.1252 322.176C69.8691 322.1 70.613 322.024 71.3563 321.948Z" fill="black"/>
<path fill-rule="evenodd" clip-rule="evenodd" d="M478.981 323.78C479.027 323.198 479.072 322.616 479.117 322.038C479.072 322.62 479.026 323.2 478.981 323.78Z" fill="black"/>
<path fill-rule="evenodd" clip-rule="evenodd" d="M46.9413 419.752C47.3697 419.759 47.7975 419.765 48.2194 419.771C47.7894 419.765 47.3653 419.759 46.9413 419.752Z" fill="black"/>
<path fill-rule="evenodd" clip-rule="evenodd" d="M433.168 491.525C433.125 492.169 433.082 492.813 433.039 493.455C433.082 492.811 433.125 492.168 433.168 491.525Z" fill="black"/>
<path fill-rule="evenodd" clip-rule="evenodd" d="M476.869 366.207C476.851 365.587 476.835 364.967 476.817 364.348C476.835 364.969 476.852 365.588 476.869 366.207Z" fill="black"/>
<path fill-rule="evenodd" clip-rule="evenodd" d="M141.959 265.131C141.298 265.131 140.637 265.132 139.978 265.132C140.638 264.678 141.299 264.689 141.959 265.131Z" fill="black"/>
<path fill-rule="evenodd" clip-rule="evenodd" d="M318.375 411.202C317.652 411.221 316.928 411.239 316.205 411.258C316.916 410.755 317.64 410.743 318.375 411.202Z" fill="black"/>
<path fill-rule="evenodd" clip-rule="evenodd" d="M381.625 579.156C382.054 579.164 382.484 579.174 382.907 579.184C382.476 579.176 382.05 579.166 381.625 579.156Z" fill="black"/>
<path fill-rule="evenodd" clip-rule="evenodd" d="M397.782 579.91C398.211 579.895 398.639 579.879 399.061 579.865C398.631 579.88 398.207 579.895 397.782 579.91Z" fill="black"/>
<path fill-rule="evenodd" clip-rule="evenodd" d="M144.924 580.208C145.371 580.219 145.818 580.231 146.259 580.242C145.81 580.23 145.367 580.219 144.924 580.208Z" fill="black"/>
<path fill-rule="evenodd" clip-rule="evenodd" d="M517.187 512.752C517.123 512.139 517.06 511.524 516.996 510.914C517.06 511.528 517.123 512.14 517.187 512.752Z" fill="black"/>
<path fill-rule="evenodd" clip-rule="evenodd" d="M458.827 409.318C458.878 409.903 458.928 410.487 458.978 411.068C458.928 410.483 458.877 409.9 458.827 409.318Z" fill="black"/>
<path fill-rule="evenodd" clip-rule="evenodd" d="M481.286 399.278C481.216 398.658 481.147 398.038 481.078 397.42C481.147 398.041 481.216 398.659 481.286 399.278Z" fill="black"/>
<path fill-rule="evenodd" clip-rule="evenodd" d="M148.55 580.577C149 580.57 149.451 580.563 149.897 580.557C149.444 580.565 148.997 580.571 148.55 580.577Z" fill="black"/>
<path fill-rule="evenodd" clip-rule="evenodd" d="M312.671 580.627C313.11 580.607 313.547 580.587 313.981 580.568C313.541 580.588 313.106 580.608 312.671 580.627Z" fill="black"/>
<path fill-rule="evenodd" clip-rule="evenodd" d="M477.62 354C477.6 353.372 477.58 352.744 477.561 352.117C477.581 352.745 477.6 353.373 477.62 354Z" fill="black"/>
<path fill-rule="evenodd" clip-rule="evenodd" d="M105.816 580.988C106.256 580.985 106.695 580.981 107.129 580.979C106.687 580.982 106.252 580.986 105.816 580.988Z" fill="black"/>
<path fill-rule="evenodd" clip-rule="evenodd" d="M477.436 580.982C477.888 580.986 478.34 580.991 478.786 580.996C478.332 580.992 477.884 580.987 477.436 580.982Z" fill="black"/>
<path fill-rule="evenodd" clip-rule="evenodd" d="M487.196 580.928C487.633 580.959 488.069 580.99 488.5 581.02C488.062 580.989 487.629 580.959 487.196 580.928Z" fill="black"/>
<path fill-rule="evenodd" clip-rule="evenodd" d="M491.138 580.92C491.582 580.933 492.027 580.947 492.466 580.957C492.02 580.943 491.579 580.932 491.138 580.92Z" fill="black"/>
<path fill-rule="evenodd" clip-rule="evenodd" d="M511.377 401.768C511.348 401.15 511.319 400.532 511.291 399.916C511.32 400.535 511.348 401.151 511.377 401.768Z" fill="black"/>
<path fill-rule="evenodd" clip-rule="evenodd" d="M213.107 572.821C214.458 572.751 215.81 572.68 217.162 572.609C215.81 572.68 214.458 572.75 213.107 572.821Z" fill="black"/>
<path fill-rule="evenodd" clip-rule="evenodd" d="M131.558 348.142C132.732 348.244 133.905 348.346 135.077 348.447C133.904 348.346 132.731 348.244 131.558 348.142Z" fill="black"/>
<path fill-rule="evenodd" clip-rule="evenodd" d="M462.85 399.155C462.886 400.274 462.923 401.394 462.96 402.51C462.923 401.39 462.886 400.273 462.85 399.155Z" fill="black"/>
<path fill-rule="evenodd" clip-rule="evenodd" d="M487.064 574.735C488.289 574.81 489.514 574.884 490.739 574.958C489.506 575.014 488.255 575.365 487.064 574.735Z" fill="black"/>
<path fill-rule="evenodd" clip-rule="evenodd" d="M479.816 442.302C479.825 441.234 479.835 440.166 479.843 439.101C479.834 440.169 479.825 441.236 479.816 442.302Z" fill="black"/>
<path fill-rule="evenodd" clip-rule="evenodd" d="M476.681 475.858C477.755 475.872 478.831 475.887 479.905 475.901C478.83 475.886 477.755 475.872 476.681 475.858Z" fill="black"/>
<path fill-rule="evenodd" clip-rule="evenodd" d="M206.128 457.082C206.101 457.895 206.074 458.709 206.049 459.519C206.076 458.704 206.102 457.893 206.128 457.082Z" fill="black"/>
<path fill-rule="evenodd" clip-rule="evenodd" d="M494.568 422.617C494.524 423.427 494.48 424.236 494.437 425.042C494.482 424.232 494.525 423.424 494.568 422.617Z" fill="black"/>
<path fill-rule="evenodd" clip-rule="evenodd" d="M471.639 571.131C472.421 571.078 473.203 571.025 473.983 570.975C473.395 571.445 472.804 571.484 471.639 571.131Z" fill="black"/>
<path fill-rule="evenodd" clip-rule="evenodd" d="M466.406 465.253C466.46 466.127 466.514 467 466.567 467.87C466.513 466.996 466.46 466.125 466.406 465.253Z" fill="black"/>
<path fill-rule="evenodd" clip-rule="evenodd" d="M174.064 327.445C174.072 326.602 174.08 325.759 174.089 324.919C174.081 325.763 174.072 326.604 174.064 327.445Z" fill="black"/>
<path fill-rule="evenodd" clip-rule="evenodd" d="M467.353 476.034L470.267 475.971C469.305 476.435 468.334 476.452 467.353 476.034Z" fill="black"/>
<path fill-rule="evenodd" clip-rule="evenodd" d="M494.238 482.257C493.551 482.263 492.864 482.268 492.181 482.275C492.87 482.27 493.554 482.263 494.238 482.257Z" fill="black"/>
<path fill-rule="evenodd" clip-rule="evenodd" d="M242.587 571.467C243.538 571.48 244.49 571.492 245.441 571.504C244.483 571.985 243.53 572.053 242.587 571.467Z" fill="black"/>
<path fill-rule="evenodd" clip-rule="evenodd" d="M63.391 574.27C64.3564 574.183 65.3223 574.097 66.2877 574.011C65.3223 574.097 64.3564 574.183 63.391 574.27Z" fill="black"/>
<path fill-rule="evenodd" clip-rule="evenodd" d="M463.185 406.346C463.232 407.222 463.279 408.098 463.326 408.972C463.279 408.095 463.232 407.22 463.185 406.346Z" fill="black"/>
<path fill-rule="evenodd" clip-rule="evenodd" d="M155.027 350.199C155.841 349.798 156.661 349.731 157.49 350.156C156.668 350.17 155.848 350.185 155.027 350.199Z" fill="black"/>
<path fill-rule="evenodd" clip-rule="evenodd" d="M436.561 416.465C436.628 417.204 436.696 417.943 436.763 418.68C436.695 417.94 436.628 417.202 436.561 416.465Z" fill="black"/>
<path fill-rule="evenodd" clip-rule="evenodd" d="M505.316 399.216C504.898 398.493 504.912 397.773 505.336 397.061C505.329 397.78 505.323 398.498 505.316 399.216Z" fill="black"/>
<path fill-rule="evenodd" clip-rule="evenodd" d="M463.318 374.109C463.318 374.841 463.318 375.573 463.318 376.302C463.318 375.569 463.318 374.839 463.318 374.109Z" fill="black"/>
<path fill-rule="evenodd" clip-rule="evenodd" d="M492.494 475.508C493.331 475.251 494.169 474.888 495.003 475.517C494.167 475.514 493.33 475.511 492.494 475.508Z" fill="black"/>
<path fill-rule="evenodd" clip-rule="evenodd" d="M221.767 572.49C222.61 572.411 223.453 572.333 224.295 572.254C223.453 572.333 222.61 572.411 221.767 572.49Z" fill="black"/>
<path fill-rule="evenodd" clip-rule="evenodd" d="M106.198 572.491C106.971 572.152 107.741 571.974 108.502 572.517C107.733 572.508 106.966 572.5 106.198 572.491Z" fill="black"/>
<path fill-rule="evenodd" clip-rule="evenodd" d="M264.128 571.403C264.954 571.042 265.778 570.844 266.593 571.429C265.771 571.42 264.95 571.412 264.128 571.403Z" fill="black"/>
<path fill-rule="evenodd" clip-rule="evenodd" d="M80.3398 464.587C80.4017 465.332 80.4642 466.078 80.5255 466.821C80.4631 466.075 80.4012 465.331 80.3398 464.587Z" fill="black"/>
<path fill-rule="evenodd" clip-rule="evenodd" d="M272.021 421.647C272.833 421.351 273.643 421.197 274.44 421.691C273.634 421.676 272.827 421.662 272.021 421.647Z" fill="black"/>
<path fill-rule="evenodd" clip-rule="evenodd" d="M463.172 443.838C463.217 444.567 463.262 445.295 463.307 446.022C463.261 445.293 463.216 444.565 463.172 443.838Z" fill="black"/>
<path fill-rule="evenodd" clip-rule="evenodd" d="M79.8147 378.089C79.7474 378.676 79.6801 379.263 79.6133 379.847C79.6806 379.259 79.7474 378.674 79.8147 378.089Z" fill="black"/>
<path fill-rule="evenodd" clip-rule="evenodd" d="M32.733 548.305C32.6912 548.877 32.6499 549.448 32.6086 550.016C32.6515 549.444 32.6923 548.874 32.733 548.305Z" fill="black"/>
<path fill-rule="evenodd" clip-rule="evenodd" d="M480.176 447.694C480.131 447.104 480.085 446.513 480.039 445.925C480.085 446.517 480.131 447.106 480.176 447.694Z" fill="black"/>
<path fill-rule="evenodd" clip-rule="evenodd" d="M421.02 570.3C421.744 570.305 422.468 570.31 423.191 570.315C422.467 570.31 421.743 570.305 421.02 570.3Z" fill="black"/>
<path fill-rule="evenodd" clip-rule="evenodd" d="M205.854 462.108C205.989 462.538 206.124 462.969 206.26 463.4C205.357 463.618 205.221 463.187 205.854 462.108Z" fill="black"/>
<path fill-rule="evenodd" clip-rule="evenodd" d="M260.125 420.675C260.86 420.672 261.595 420.669 262.331 420.666C261.596 421.015 260.862 421.254 260.125 420.675Z" fill="black"/>
<path fill-rule="evenodd" clip-rule="evenodd" d="M80.7517 468.117C80.7767 468.768 80.8017 469.42 80.8256 470.07C80.8 469.418 80.7756 468.767 80.7517 468.117Z" fill="black"/>
<path fill-rule="evenodd" clip-rule="evenodd" d="M88.5293 573.205C89.239 573.204 89.9481 573.204 90.6577 573.203C89.9475 573.204 89.239 573.204 88.5293 573.205Z" fill="black"/>
<path fill-rule="evenodd" clip-rule="evenodd" d="M438.346 474.987C438.372 475.587 438.399 476.187 438.425 476.784C438.4 476.182 438.373 475.585 438.346 474.987Z" fill="black"/>
<path fill-rule="evenodd" clip-rule="evenodd" d="M73.464 573.936C74.1617 573.473 74.861 573.513 75.5615 573.928C74.8621 573.931 74.1628 573.934 73.464 573.936Z" fill="black"/>
<path fill-rule="evenodd" clip-rule="evenodd" d="M91.8369 369.707C91.8744 370.319 91.9124 370.933 91.9515 371.541C91.914 370.928 91.8755 370.317 91.8369 369.707Z" fill="black"/>
<path fill-rule="evenodd" clip-rule="evenodd" d="M69.834 573.999C70.5594 574.002 71.2848 574.005 72.0097 574.008C71.2821 574.503 70.5572 574.527 69.834 573.999Z" fill="black"/>
<path fill-rule="evenodd" clip-rule="evenodd" d="M471.516 360.093C471.522 359.471 471.527 358.849 471.532 358.229C471.526 358.851 471.521 359.472 471.516 360.093Z" fill="black"/>
<path fill-rule="evenodd" clip-rule="evenodd" d="M138.486 349.211C139.18 349.302 139.874 349.393 140.567 349.483C139.873 349.392 139.179 349.302 138.486 349.211Z" fill="black"/>
<path fill-rule="evenodd" clip-rule="evenodd" d="M77.2527 402.911C77.2619 403.492 77.2711 404.073 77.282 404.651C77.2728 404.069 77.263 403.49 77.2527 402.911Z" fill="black"/>
<path fill-rule="evenodd" clip-rule="evenodd" d="M476.187 402.827C476.149 402.236 476.111 401.644 476.073 401.055C476.111 401.648 476.15 402.238 476.187 402.827Z" fill="black"/>
<path fill-rule="evenodd" clip-rule="evenodd" d="M314.343 573.305C315.2 573.383 316.056 573.46 316.911 573.538C316.055 573.46 315.2 573.383 314.343 573.305Z" fill="black"/>
<path fill-rule="evenodd" clip-rule="evenodd" d="M311.483 551.14C311.019 551.147 310.557 551.154 310.099 551.164C310.563 551.158 311.023 551.149 311.483 551.14Z" fill="black"/>
<path fill-rule="evenodd" clip-rule="evenodd" d="M311.522 572.966C312.24 573.037 312.959 573.108 313.676 573.179C312.958 573.107 312.24 573.037 311.522 572.966Z" fill="black"/>
<path fill-rule="evenodd" clip-rule="evenodd" d="M182.284 524.605C183.218 529.885 175.013 535.048 174.362 527.543C174.125 524.798 175.96 522.868 178.015 521.191C180.932 518.81 182.561 521.09 182.284 524.605Z" fill="black"/>
<path fill-rule="evenodd" clip-rule="evenodd" d="M91.84 460.188C93.7729 460.98 108.541 465.792 100.87 468.212C98.8394 468.853 95.77 468.949 94.0097 467.82C91.8921 466.461 89.7561 462.453 91.84 460.188Z" fill="black"/>
<path fill-rule="evenodd" clip-rule="evenodd" d="M95.4744 388.688C100.487 388.106 105.106 396.339 98.9255 396.072C94.427 395.877 88.3773 388.688 95.4744 388.688Z" fill="black"/>
<path fill-rule="evenodd" clip-rule="evenodd" d="M113.406 408.875C117.592 412.527 109.833 420.7 106.753 417.537C105.18 415.921 106.631 412.44 107.929 411.088C109.262 409.701 111.632 409.44 113.406 408.875Z" fill="black"/>
<path fill-rule="evenodd" clip-rule="evenodd" d="M125.867 503.552C123.396 503.944 112.529 507.495 114.796 501.045C115.66 498.586 118.071 499.315 120.275 499.428C123.827 499.61 125.867 499.44 125.867 503.552Z" fill="black"/>
<path fill-rule="evenodd" clip-rule="evenodd" d="M118.709 520.165C122.408 522.144 117.001 533.219 113.935 530.863C109.681 527.593 115.499 521.159 118.709 520.165Z" fill="black"/>
<path fill-rule="evenodd" clip-rule="evenodd" d="M134.843 511.261C136.642 510.527 145.121 518.683 141.893 520.952C140.239 522.115 137.104 520.122 136.107 518.92C134.237 516.665 134.067 513.884 134.843 511.261Z" fill="black"/>
<path fill-rule="evenodd" clip-rule="evenodd" d="M85.92 444.593C87.7585 444.895 90.9327 444.991 91.0516 447.574C91.1558 449.845 88.3091 450.581 86.305 450.759C84.2254 450.943 81.4725 450.356 81.4329 447.742C81.3911 444.921 85.8548 445.091 85.92 444.593Z" fill="black"/>
<path fill-rule="evenodd" clip-rule="evenodd" d="M131.257 557.016C133.215 558.205 142.348 562.484 138.433 565.576C136.968 566.733 132.527 564.343 131.527 563.129C130.334 561.679 129.169 558.283 131.257 557.016Z" fill="black"/>
<path fill-rule="evenodd" clip-rule="evenodd" d="M156.645 525.961C156.362 521.237 164.332 519.357 162.679 526.062C162.214 527.953 161.763 530.822 159.425 530.932C156.663 531.062 156.563 527.793 156.645 525.961Z" fill="black"/>
<path fill-rule="evenodd" clip-rule="evenodd" d="M132.026 443.816C132.081 447.399 125.215 450.559 125.161 444.879C125.114 439.804 132.282 438.318 132.026 443.816Z" fill="black"/>
<path fill-rule="evenodd" clip-rule="evenodd" d="M127.491 425.152C129.183 425.697 131.432 425.978 131.581 428.127C131.739 430.402 129.625 431.415 127.724 431.287C126.164 431.183 123.857 430.028 123.573 428.336C123.158 425.853 125.582 425.69 127.491 425.152Z" fill="black"/>
<path fill-rule="evenodd" clip-rule="evenodd" d="M96.0306 490.76C96.0018 487.803 101.928 484.25 103.019 487.681C103.368 488.779 100.575 493.702 99.6463 494.07C97.1882 495.046 96.8451 492.772 96.0306 490.76Z" fill="black"/>
<path fill-rule="evenodd" clip-rule="evenodd" d="M144.591 539.976C142.588 541.769 136.581 546.804 137.03 540.045C137.317 535.727 145.119 535.953 144.591 539.976Z" fill="black"/>
<path fill-rule="evenodd" clip-rule="evenodd" d="M242.457 559.294C243.114 556.452 252.511 561.382 249.375 564.972C248.323 566.177 245.571 565.086 244.512 564.372C242.418 562.959 242.372 561.654 242.457 559.294Z" fill="black"/>
<path fill-rule="evenodd" clip-rule="evenodd" d="M190.096 498.461C190.463 497.195 190.87 494.954 192.079 494.146C194.266 492.683 196.17 494.89 196.17 497.215C196.171 501.554 191.233 502.922 190.096 498.461Z" fill="black"/>
<path fill-rule="evenodd" clip-rule="evenodd" d="M166.804 549.184C169.244 549.743 174.677 555.675 171.527 558.094C168.494 560.423 164.461 550.956 166.804 549.184Z" fill="black"/>
<path fill-rule="evenodd" clip-rule="evenodd" d="M169.127 504.287C172.265 504.537 176.577 509.618 171.7 510.425C167.886 511.057 163.45 505.532 169.127 504.287Z" fill="black"/>
<path fill-rule="evenodd" clip-rule="evenodd" d="M197.53 527.666C198.316 525.016 206.097 527.856 205.66 530.773C205.428 532.325 202.247 532.689 200.574 532.279C198.112 531.675 197.473 530.06 197.53 527.666Z" fill="black"/>
<path fill-rule="evenodd" clip-rule="evenodd" d="M105.813 379.649C105.87 376.223 112.453 374.827 112.935 378.279C113.371 381.399 105.731 384.718 105.813 379.649Z" fill="black"/>
<path fill-rule="evenodd" clip-rule="evenodd" d="M195.355 562.969C195.829 561.246 196.034 559.172 198.186 558.945C200.65 558.685 200.577 560.575 200.288 562.533C199.499 567.86 196.489 568.126 195.355 562.969Z" fill="black"/>
<path fill-rule="evenodd" clip-rule="evenodd" d="M91.3895 420.413C87.9574 421.187 81.6714 414.577 85.5135 413.159C88.2207 412.158 91.3895 418.419 91.3895 420.413Z" fill="black"/>
<path fill-rule="evenodd" clip-rule="evenodd" d="M135.165 471.758C133.418 472.581 133.016 473.08 131.674 471.73C130.505 470.554 130.557 467.279 131.56 466.056C135.401 461.374 135.311 469.863 135.165 471.758Z" fill="black"/>
<path fill-rule="evenodd" clip-rule="evenodd" d="M149.416 462.261C151.237 462.493 156.65 467.627 153.832 469.667C150.378 472.167 148.424 464.336 149.416 462.261Z" fill="black"/>
<path fill-rule="evenodd" clip-rule="evenodd" d="M188.828 463.613C187.504 468.712 184.199 465.281 184.386 461.422C184.687 455.242 188.112 460.625 188.828 463.613Z" fill="black"/>
<path fill-rule="evenodd" clip-rule="evenodd" d="M208.925 545.507C211.165 546.434 214.206 554.997 211.006 555.457C207.412 555.972 208.609 547.29 208.925 545.507Z" fill="black"/>
<path fill-rule="evenodd" clip-rule="evenodd" d="M180.948 540.696C183.511 539.831 184.451 545.238 182.961 546.243C179.683 548.453 180.374 541.972 180.948 540.696Z" fill="black"/>
<path fill-rule="evenodd" clip-rule="evenodd" d="M156.645 525.962C156.612 526.68 156.58 527.397 156.547 528.111C156.579 527.392 156.611 526.677 156.645 525.962Z" fill="black"/>
<path fill-rule="evenodd" clip-rule="evenodd" d="M242.457 559.294C242.431 560.03 242.404 560.766 242.376 561.498C242.402 560.761 242.43 560.028 242.457 559.294Z" fill="black"/>
<path fill-rule="evenodd" clip-rule="evenodd" d="M197.53 527.666C197.516 528.29 197.5 528.915 197.484 529.535C197.498 528.909 197.515 528.288 197.53 527.666Z" fill="black"/>
<path fill-rule="evenodd" clip-rule="evenodd" d="M481.066 516.92C486.381 516.749 492.31 514.749 497.532 515.385C498.97 515.561 502.279 515.923 499.976 518.055C498.874 519.075 493.6 518.548 492.004 518.886C482.246 520.952 471.17 522.284 461.165 522.112C456.481 522.032 451.762 521.657 447.081 521.409C442.403 521.161 441.943 519.26 447.207 518.656C452.674 518.028 458.284 518.261 463.778 518.254C469.554 518.247 475.302 517.305 481.066 516.92Z" fill="black"/>
<path fill-rule="evenodd" clip-rule="evenodd" d="M492.734 504.116C492.222 505.572 491.773 508.914 489.813 509.134C487.068 509.441 486.614 504.727 486.715 503.003C486.837 500.923 487.586 497.466 490.172 498.187C492.357 498.795 492.575 502.45 492.734 504.116Z" fill="black"/>
<path fill-rule="evenodd" clip-rule="evenodd" d="M476.114 503.049C476.515 501.49 476.712 497.974 478.918 497.854C481.383 497.721 482.087 501.385 482.071 503.14C482.055 504.806 481.438 507.954 479.476 508.339C476.814 508.861 476.577 504.831 476.114 503.049Z" fill="black"/>
<path fill-rule="evenodd" clip-rule="evenodd" d="M448.436 505.847C447.637 507.721 447.109 510.303 444.637 509.025C442.726 508.037 442.459 504.051 442.82 502.226C443.194 500.335 443.985 498.166 446.157 499.017C448.662 499.998 448.409 503.783 448.436 505.847Z" fill="black"/>
<path fill-rule="evenodd" clip-rule="evenodd" d="M469.396 504.116C467.04 511.257 462.743 506.426 464.374 501.094C466.08 495.521 469.179 500.933 469.396 504.116Z" fill="black"/>
<path fill-rule="evenodd" clip-rule="evenodd" d="M457.917 504.469C457.263 505.727 456.567 508.439 454.803 508.154C452.641 507.803 452.572 503.642 452.809 502.093C453.016 500.736 453.625 498.476 455.435 498.505C458.05 498.548 457.874 502.841 457.917 504.469Z" fill="black"/>
<path fill-rule="evenodd" clip-rule="evenodd" d="M504.912 505.84C503.158 509.775 500.746 506.385 501.518 503.591C502.663 499.446 504.813 503.118 504.912 505.84Z" fill="black"/>
<path fill-rule="evenodd" clip-rule="evenodd" d="M461.961 518.259C460.046 518.252 458.13 518.245 456.215 518.238C458.131 517.877 460.048 517.736 461.961 518.259Z" fill="black"/>
<path fill-rule="evenodd" clip-rule="evenodd" d="M500.024 515.369C498.362 515.38 496.701 515.39 495.041 515.401C496.699 514.904 498.36 514.893 500.024 515.369Z" fill="black"/>
<path fill-rule="evenodd" clip-rule="evenodd" d="M481.066 516.919C479.737 517.008 478.408 517.098 477.078 517.187C478.408 517.098 479.737 517.008 481.066 516.919Z" fill="black"/>
<path fill-rule="evenodd" clip-rule="evenodd" d="M448.436 505.847C448.424 504.892 448.411 503.938 448.4 502.985C448.891 503.934 448.857 504.888 448.436 505.847Z" fill="black"/>
<path fill-rule="evenodd" clip-rule="evenodd" d="M458.858 522.092C459.629 522.099 460.4 522.106 461.164 522.113C460.391 522.106 459.625 522.099 458.858 522.092Z" fill="black"/>
<path fill-rule="evenodd" clip-rule="evenodd" d="M452.313 518.342C451.227 518.431 450.141 518.52 449.056 518.609C450.142 518.52 451.227 518.431 452.313 518.342Z" fill="black"/>
<path fill-rule="evenodd" clip-rule="evenodd" d="M466.995 518.248C465.923 518.25 464.851 518.252 463.778 518.254C464.85 517.802 465.922 517.789 466.995 518.248Z" fill="black"/>
<path fill-rule="evenodd" clip-rule="evenodd" d="M457.917 504.469C457.891 503.474 457.865 502.479 457.84 501.486C457.866 502.481 457.892 503.475 457.917 504.469Z" fill="black"/>
<path fill-rule="evenodd" clip-rule="evenodd" d="M442.82 502.226C442.814 503.196 442.808 504.166 442.801 505.133C442.807 504.161 442.813 503.194 442.82 502.226Z" fill="black"/>
<path fill-rule="evenodd" clip-rule="evenodd" d="M487.159 516.559C486.211 516.644 485.263 516.73 484.316 516.815C485.264 516.73 486.212 516.644 487.159 516.559Z" fill="black"/>
<path fill-rule="evenodd" clip-rule="evenodd" d="M504.912 505.84C504.881 504.992 504.851 504.145 504.82 503.298C504.851 504.146 504.881 504.993 504.912 505.84Z" fill="black"/>
<path fill-rule="evenodd" clip-rule="evenodd" d="M464.586 522.12C465.246 522.108 465.905 522.095 466.559 522.084C465.897 522.097 465.241 522.109 464.586 522.12Z" fill="black"/>
<path fill-rule="evenodd" clip-rule="evenodd" d="M492.734 504.116C492.676 503.507 492.618 502.897 492.56 502.29C492.618 502.9 492.677 503.508 492.734 504.116Z" fill="black"/>
<path fill-rule="evenodd" clip-rule="evenodd" d="M469.396 504.116C469.354 503.491 469.311 502.865 469.268 502.241C469.311 502.867 469.354 503.492 469.396 504.116Z" fill="black"/>
<path fill-rule="evenodd" clip-rule="evenodd" d="M129.152 320.305C126.557 319.624 126.071 315.977 126.488 313.738C126.961 312.658 127.434 311.579 127.907 310.5C127.722 310.101 127.537 309.702 127.352 309.303C127.59 307.08 126.983 306.114 129.538 307.014C134.283 308.687 135.042 320.133 129.152 320.305Z" fill="black"/>
<path fill-rule="evenodd" clip-rule="evenodd" d="M167.563 313.254C169.7 313.086 173.583 315.575 171.455 317.984C170.137 319.476 165.793 318.77 164.02 319.082C161.67 319.495 159.218 320.06 160.49 316.54C161.488 313.775 165.055 313.182 167.563 313.254Z" fill="black"/>
<path fill-rule="evenodd" clip-rule="evenodd" d="M165.313 329.814C163.142 328.073 164.111 320.141 167.416 321.568C170.815 323.037 167.125 328.669 165.313 329.814Z" fill="black"/>
<path fill-rule="evenodd" clip-rule="evenodd" d="M126.488 313.737C126.488 314.572 126.487 315.407 126.486 316.238C126.033 315.401 126.047 314.569 126.488 313.737Z" fill="black"/>
<path fill-rule="evenodd" clip-rule="evenodd" d="M129.152 320.305C129.595 320.292 130.038 320.279 130.475 320.268C130.03 320.282 129.592 320.293 129.152 320.305Z" fill="black"/>
<path fill-rule="evenodd" clip-rule="evenodd" d="M397.261 548.714C397.058 552.321 393.184 549.654 393.458 547.241C393.957 542.861 396.434 547.189 397.261 548.714Z" fill="black"/>
</g>
<defs>
<clipPath id="clip0">
<rect width="848" height="589" fill="white"/>
</clipPath>
</defs>
</svg>
