<?xml version="1.0" standalone="no"?>
<svg version="1.1" id="Layer_1" xmlns="http://www.w3.org/2000/svg" xmlns:xlink="http://www.w3.org/1999/xlink" x="0px" y="0px" viewBox="350 0 1000 1000" enable-background="new 350 0 1000 1000" xml:space="preserve" width="100%" height="auto">
<path id="color_x5F_9" fill="#3B8877FF" d="M1774.3,1180.1v76l-678.7,387.4l-869.9-498v-72.7l867.2,500.7l89.4-51.6l33.8,19.9
	l247.8-141.2l0.2-41.4L1774.3,1180.1z M319.3,1002.2c126.8-9.7,123.7,70.9,123.7,70.9l-0.2-429.2c-26.1-72.6-123.6-71.4-123.6-71.4
	L319.3,1002.2z M504.1,682c0,0,97.5-1.3,123.6,71.4l0.2,429.2c0,0,3.1-80.6-123.7-70.9L504.1,682z M1464.2,1358.9l-0.2,41.7
	l-247.8,141.2l-557.5-327.9l-0.1-33.7l557.5,321.5L1464.2,1358.9z M975.3,1112.2l-191-112.3l-0.1-33.7l192.8,111
	c0.1,4.4,0.1,9,4.8,11.6c0.7,0.4,1.4,0.7,2,1c-1.4,1.6-2.5,2.9-3.2,3.6c-0.1,0.1-0.3,0.3-0.4,0.5c-0.2,0.2-0.3,0.3-0.3,0.3
	c0,0.1,0,0.1-0.1,0.2C978,1097.4,976.5,1104,975.3,1112.2z M1023.7,1104.2l-13.8,0.5c-3.3-2-7.5-3.9-11.5-5.7l0,0l1.8-3.9
	c0.9-0.9,1.8-1.9,2.7-2.9L1023.7,1104.2z M1589.8,1144.9l-0.2,41.7l-247.8,141.2l-277-162.9c-2.6-4.8-8.1-5.8-10.3-6.1l-38.1-22.4
	c0-2.4,0-4.7,0-7c5.8-2.7,18.9-8.7,27.6-13.5l297.9,171.8L1589.8,1144.9z M1008.8,1239.2c-0.5,0-0.7,0-0.7,0l-6.7-3.8
	c0-0.2,0.1-0.3,0.1-0.5L1008.8,1239.2z M976.3,1257.1L721.1,1107l-0.1-33.7l263,151.5c0,0.2-0.1,0.4-0.1,0.6l-6.4-3.6L976.3,1257.1z
	 M1526.6,1252l-0.2,41.7l-247.8,141.2l-267.7-157.5l1.8-35.2l36.9,21.3l0.6-0.5l228.5,131.8L1526.6,1252z" class="color_x5F_9 element-1"></path>
<path id="color_x5F_8" opacity="0.38" fill="#19BC81FF" enable-background="new    " d="M1169,1033.6c-3.2,4.5-37.9,25.2-64,41
	s-29-12.1-20.2-34.3c1.6-4.2,4.6-8.2,8.3-11.9c3.9,7.6,7.3,14.4,9.1,17.8c-1.3,5.7-6.3,21.1-6.5,20.7c-0.2-0.5,0.2,4.2,5.8-0.7
	s13.1-15.3,15.3-16.8c1.6-1.1-2.3-5.9-4.4-8.3c0,0,0,0,0,0.1c-1-4.4-3.2-13.6-6.5-23c5.6-3.8,11.6-7.2,16.9-9.9
	c0.2,0.4,0.3,0.7,0.3,1c0,1.4,0,7.6,0,7.6s7.6,1.7,10.4-8c0.7-2.6,0.6-4.4,0-5.8c3.9-1.7,6.3-2.7,6.3-2.7
	C1190.3,997.8,1172.2,1029.1,1169,1033.6z M1103.2,1048L1103.2,1048L1103.2,1048z M1112.8,1043.5L1112.8,1043.5L1112.8,1043.5z
	 M1112.8,1043.7L1112.8,1043.7L1112.8,1043.7z M1043.1,1231.4c-0.1,0.3-0.2,0.5-0.2,0.5l0,0l0,0c0,0,0,0,0,0.1
	c-0.3,1.7,6.6,23.1,6.8,22.7c0.2-0.5-0.2,4.2-5.8-0.7c-5.6-4.9-13.1-15.3-15.3-16.8c-0.5-0.4-0.5-1.2,0-2.1
	c-15.9,4.3-20.5,4.2-20.5,4.2l-6.7-3.8c-2.9,16.3-7.2,38.9-10.5,46.2c0,0,0,0-0.1,0c0.7,1.1,1.2,2.2,1.3,3.1
	c0.2,3.7,0.1,8.2,0.9,9.3s4.6,6.1,4.6,6.1s-5.1,6-13.1-0.1s0.6-10.8-4.1-14.7c-4.6-3.9-4.2-5.1,3.6-11.3c-0.1-0.2-0.1-0.4-0.1-0.4
	c-3.7-20.9-2-38,0-48l-6.4-3.6l-1.5,50.5c0,0-37.6,73.9,34.2,20.1l2.6-50.2l36.9,21.3l12.4-10.2c2.8-2.3,3.9-6.1,2.8-9.6
	C1062.7,1237.6,1057.3,1229.5,1043.1,1231.4z M658.7,1213.9l-0.1-33.7l94.4-54.4l-13.2-7.8l-112.1,64.6v-1.1
	c-0.2-9.7-5.7-78.8-123.7-69.8v-77.4l-62.2,35.8v-1.1c-0.2-8.6-4.5-64.1-88.3-70.1l-127.9,74l867.2,500.7l89.4-51.6L658.7,1213.9z
	 M875.7,913.4l156.5-90.3l557.6,321.7l-0.2,41.7l-88.8,50.6l25.7,14.8l-0.2,41.7l-88.3,50.3l26,15v0.3l310.1-179l-867.7-501
	l-31.1,18L875.7,913.4z" class="color_x5F_8 element-2"></path>
<path id="color_x5F_7" fill="#8ED6C5FF" d="M321,572.6l-2.8-3L566,426.5c119.2,6.2,123.6,71.3,123.6,71.3L441.8,640.9v0.4
	C416.5,577.1,334.3,572.9,321,572.6z M627.6,766.7v-13.3V766.7L627.6,766.7z M627.6,753.4l247.8-143.1c0,0-4.3-65.1-123.6-71.3
	L504.1,682C504.1,682,601.5,680.8,627.6,753.4z" class="color_x5F_7 element-3"></path>
<path id="color_x5F_6" fill="#FFFFFF" d="M1589.8,1144.9l-248,142.8l-297.9-171.8c4.5-2.5,7.8-4.6,8.5-5.7
	c2.3-4.2-1.9-29.5-1.9-29.5l-5.1-1.5l5.1,1.5c0,0,0.7-5.5,1.9-6.6s4.1-7.5,4.6-8.2s0-1.3,0-1.3s-1.4,1.4-2.1,2.6
	c-0.4,0.7-0.9,0.6-0.9,0.6s1.2-3.1,1.8-3.9c0.6-0.8-0.4-2-0.4-2s-2.2,4.5-2.7,5.4s-0.9,0.5-0.9,0.5s1.2-3.1,1.7-4.7s-0.5-2-0.5-2
	s-2.6,5.1-3,5.7c-0.3,0.6-0.9,0.3-0.9,0.3s1.2-2.1,1.8-4.2c0.6-2.1,0-2.7,0-2.7s-4.6,7.9-5.7,9.6c-1,1.7-1.8,9-1.8,9l0,0
	c-4.9,15.2-4.6,25-4.6,25l-15.3,0.6l-20.7-12c0.2-0.2,0.3-0.3,0.5-0.5c3-1.5,6.3-4.2,6.4-6c0-0.2,0-0.4,0-0.6c4.2-4.4,8-8,9.6-9.2
	c4.6-3.4,8.1-42.4,8.7-49.1c0.2-1.1,0.8-5.3,1.9-6.3c0.7-0.6,2-3.1,3-5.2v4c0,0,1.7,0.5,2.8-2.5c0,0,2.7,0.2,2.8-2.2
	c0,0,1.8,1.1,2.4-0.9l0.7-8.3c2.1-3.6,20.2-35.7,20.5-37.8c0.1-0.7,0.6-4.4,1.3-9.1c1.2-0.4,2-0.6,2-0.6v-14.3l0,0
	c1-0.2,1.9-0.4,2.7-0.6c3.1-0.1,7.8,0.6,10.6,1l-22.2,36.9c0,0-3.7,9.3,7.6,12c2.8,0.7,7.6,1.5,13.1,2.3c2.7,6.9,9.7,21.2,15.7,33.2
	c-3.7,3.8-6.7,7.8-8.3,11.9c-8.8,22.2-5.8,50.1,20.2,34.3c26.1-15.8,60.8-36.5,64-41s21.3-35.8-29.4-33.3c0,0-2.5,0.9-6.3,2.7
	c-1.6-3.7-6.6-4.1-5.5-8.5c1.4-5.9,0.3-6.6-9.7-6.9c0,0-0.1,0.3-0.2,0.9l-14-7.3c7.1-9.8,15.5-22.7,16.6-30.7
	c2.1-14.3-5.8-28.6-5.8-28.6c0-14-70.9-21.3-81.7-22.4c0.4-3,0.5-5.9-0.8-7.7c-2.8-3.8-8.1-4.6-8.9-3.7c0,0-10.5-14.1-19.1-6.6
	s-4,18.7-4,18.7s1.3,9.1,4.6,10.1l0,0c0.8,2.1,2.1,4.8,3.9,6.7c0,0,1.3,7.1,6,10.8c0.8,0.6,1.8,0.8,2.8,0.7
	c-0.4,3.7-2.1,18.1-2.8,19.3c-0.2,0.4,1.5,0.8,4,1l0.8,14.7l-0.5,31.7l-4.9,6.4c0,0,1.1,8.9,1.6,10.8c0.5,2,2.4,0.1,2.4,0.1
	c0.3,2.9,2.7,0.3,2.7,0.3c1,1.1,2.4,0.8,2.4-1.3s0-5.9,0-5.9c4.2-2.4,4.2-5.8,4.2-5.8l-0.9-4.8c0,0,8.7-24,6.1-35.5l0.2-10.9
	c1.1-0.2,1.8-0.5,1.7-0.9c-0.1-0.9,0.2-3.9,0.6-7.2c3.2,1.2,6.4,2.1,9.6,2.7c0.2,0,0.3,0.1,0.3,0.1l1.3,14.5c0.5,0.4,1,0.8,1.5,1.1
	c0.1,1.6,0.3,3,0.5,3.9c0,0-10,19.6-13.7,40l-5.8,5c0.1-1.1-0.2-1.4-0.2-1.4s-4.6,7.9-5.7,9.6c-0.7,1.1-1.2,4.7-1.5,6.9
	c-1.2,3.1-12.5,31.9-13.8,36.7c-0.3,1.1-1.8,3.4-4,6.4c-0.1-2.6-1.1-5.5-4.9-6c-7.1-1-17.2,3.1-18.8,10.3c0,0-3.5-0.6-3.1,4.5
	c0.1,0.8,0.1,1.6,0.1,2.4L784.2,966.1l247.9-142.9L1589.8,1144.9z M1032.5,1013.5c0.2-0.3,0.4-0.5,0.6-0.8v-2.1
	c-0.6,1.2-1.5,3.5-1.5,3.5S1032.1,1014.2,1032.5,1013.5z M1027.7,1013L1027.7,1013c0.1-0.6,0.1-1.1,0.1-1.6
	c-0.5,1.1-0.9,1.9-0.9,1.9S1027.3,1013.6,1027.7,1013z M1030.5,1012.5c0,0.4-0.2,0.9-0.5,1.4c0.1-0.1,0.2-0.2,0.2-0.3
	c0.2-0.4,0.8-1.6,1.4-2.8C1031.1,1011.1,1030.5,1011.6,1030.5,1012.5z M1105.6,1018c5.6-3.8,11.6-7.2,16.9-9.9
	c-0.7-1.7-2.9-4.5-4.6-7c-0.2-0.3-0.3-0.6-0.5-1c-3-0.3-11.9-1.3-21.7-2.5C1099.7,1002.8,1103,1010.5,1105.6,1018z M1500.9,1237.1
	l-159,90.6l-277-162.9c0.4,0.7,0.7,1.4,0.9,2.2c2.3,7.9-20,58.6-22.6,64.4c14.2-1.8,19.5,6.2,21.5,12.3c1.1,3.4,0,7.2-2.8,9.6
	l-11.8,9.8l228.5,131.8l248-142.8L1500.9,1237.1z M1034.1,1227.8c-2.1-25.7,8.1-49.7,8.1-49.7s-20,7.5-35.2,11.5l-2.5,28.1
	c0,0-1.2,7.4-2.9,17.3l7.3,4.2c1.8-0.1,7.3-0.8,19.8-4.2C1029.7,1232.5,1033.1,1228.8,1034.1,1227.8z M1054.5,1158.7l-38.1-22.4
	c0.1,13.5,0.5,27.7,2.1,29.5l0,0l35-7.2C1053.5,1158.7,1053.9,1158.7,1054.5,1158.7z M986.3,1216.3c1.2-2.7-7.6-39.7-9.9-49.2
	c-2.4-1.3-4.2-3-5.2-5.2c0,0,1.1-29.3,4.1-49.8L816,1018.4l-95,54.8l263,151.6C984.9,1220.2,985.9,1217.3,986.3,1216.3z
	 M1438.2,1343.9l-159.6,90.9l-267.7-157.5l-0.8,15c-71.8,53.7-34.2-20.1-34.2-20.1l0.5-15.2L753,1125.7l-94.4,54.4l557.5,321.5
	l248-142.8L1438.2,1343.9z" class="color_x5F_6 element-4"></path>
<path id="color_x5F_5" fill="#F8C09C" d="M1043.7,1078.6c0,0,0.8-7.2,1.8-9c1-1.7,5.7-9.6,5.7-9.6s0.6,0.5,0,2.7
	c-0.6,2.1-1.8,4.2-1.8,4.2s0.5,0.3,0.9-0.3s3-5.7,3-5.7s1,0.3,0.5,2c-0.5,1.6-1.7,4.7-1.7,4.7s0.5,0.4,0.9-0.5
	c0.5-0.9,2.7-5.4,2.7-5.4s1,1.2,0.4,2s-1.8,3.9-1.8,3.9s0.5,0.1,0.9-0.6c0.7-1.2,2.1-2.6,2.1-2.6s0.5,0.6,0,1.3
	c-0.5,0.7-3.4,7.1-4.6,8.2s-1.9,6.6-1.9,6.6L1043.7,1078.6z M1020,927.7h-1.7l1.8,0.2C1020.1,927.8,1020.1,927.8,1020,927.7z
	 M1032.8,959.7l0.2-10.8c-3.6,0.5-10.2,0.4-14.2-0.1l0.8,14.8l-0.5,31.7l-4.9,6.4c0,0,1.1,8.9,1.6,10.8c0.5,2,2.4,0.1,2.4,0.1
	c0.3,2.9,2.7,0.3,2.7,0.3c1,1.1,2.4,0.8,2.4-1.3s0-5.9,0-5.9c4.2-2.4,4.2-5.8,4.2-5.8l-0.9-4.8
	C1026.7,995.3,1035.3,971.3,1032.8,959.7z M1018.3,927.7h-0.8l0.2,4.3C1018.1,929.5,1018.3,927.7,1018.3,927.7z M1063.6,958.7
	c-4,1.1-11.5,2.6-15.7-0.3c0.1,1.9,0.3,3.4,0.5,4.3c0,0-10,19.6-13.7,40l-7.1,6.1c0,0,0.4,2.5,0,5.6s2.9-0.2,2.9-2.1
	c0-1.8,2.6-2.2,2.6-2.2l-0.1,9c0,0,1.7,0.5,2.8-2.5c0,0,2.7,0.2,2.8-2.2c0,0,1.8,1.1,2.4-0.9l0.7-8.3c2.1-3.6,20.2-35.7,20.5-37.8
	C1062.4,967,1062.9,963.4,1063.6,958.7z M1034.7,905.7c-0.7-1.1-1.7-1.7-2.4-2c-0.4,2-0.7,3.9-0.7,5.3c0.1,4.2-5.5,4.3-5.9,4.3l0,0
	l0,0c0.2,0,1.7-0.3,1.8-6.1c0.1-6.4-4.6-0.6-4.6-0.6c1.2,3.9-1.2,5.6-1.2,5.6c0-2-1-5.1-1-5.1c-6.5,0.5-16.3-5-16.3-5
	c-1.8,1.4,0.3,8.2,0.4,8.2c0.8,2.1,2.1,4.8,3.9,6.7c0,0,1.3,7.1,6,10.8c3.5,2.7,10.4-2.4,14.2-7.2c0.8-0.2,1.7-0.6,2.8-1.2
	C1036.9,916.3,1035.7,907.4,1034.7,905.7z M1009.9,1085.7c0.1-2.7-3-5.8-3.5-8.1c-0.5-2.3-2.9-6.5-2.9-6.5c-0.1-0.3-0.2-0.5-0.4-0.8
	c-1.4,5.5-8.2,6.6-8.2,6.6l2.6,6.4l-2.6,1.7c0,0-3.8-7.5-5.5-2.6s4.7,6.2,4.7,6.2c-0.4,1.4-1,2.1-1.6,2.6c-1.3,0.1-2.3,0.3-2.3,0.3
	l0,0c0,0-0.5,0.1-1.5-0.1c0.4,0.1,0.8,0.3,1.2,0.4l-3.2,3.4l11.6,3.7l3-6.4C1004.7,1091.5,1009.8,1088,1009.9,1085.7z
	 M1021.6,1022.6l6.7,3.1c0,0,0,0.4-0.1,1c0.2-1.1,0.8-5.3,1.9-6.3c1.2-1.1,4.1-7.5,4.6-8.2s0-1.3,0-1.3s-1.4,1.4-2.1,2.6
	c-0.4,0.7-0.9,0.6-0.9,0.6s1.2-3.1,1.8-3.9c0.6-0.8-0.4-2-0.4-2s-2.2,4.5-2.7,5.4s-0.9,0.5-0.9,0.5s1.2-3.1,1.7-4.7
	c0.5-1.6-0.5-2-0.5-2s-2.6,5.1-3,5.7c-0.3,0.6-0.9,0.3-0.9,0.3s1.2-2.1,1.8-4.2c0.6-2.1,0-2.7,0-2.7s-4.6,7.9-5.7,9.6
	c-0.7,1.1-1.2,4.7-1.5,6.9C1021.5,1022.8,1021.6,1022.6,1021.6,1022.6z" class="color_x5F_5 element-5"></path>
<path id="color_x5F_4" fill="#00AFAA" d="M504.1,1034.3l-62.2,35.8l-0.2-429.2l247.8-143.1l0.1,77L504.1,682V1034.3z M721.1,1106.9
	l-0.1-33.7l95-54.8l-31.6-18.6l-0.1-33.7l91.4-52.7l-0.2-303.1L627.6,753.4l0.2,429.2l112.1-64.6L721.1,1106.9z" class="color_x5F_4 element-6"></path>
<path id="color_x5F_3" fill="#144451" d="M1118.6,1000.2c0,0-10.7-1.1-22.8-2.6c10.6,14.3,17,46.1,17,46.1c-1.2,4.9-9.5,4.6-9.5,4.6
	s-20.9-40.1-26-53.2c-5.6-0.8-10.3-1.6-13.1-2.3c-11.4-2.8-7.6-12-7.6-12l22.3-37c1.8,0.3,3.1,0.5,3.1,0.5
	c13.8-4.1,29.9-19.1,32.9-22c1.3,2.6,7.4,15.3,5.5,28.1c-1.2,8-9.5,20.9-16.6,30.7l17,8.8L1118.6,1000.2z M1065.8,1166.9
	c-2.4-8.3-12.3-8.3-12.3-8.3l-35,7.2l0,0c0,0,0,0,0,0.1c2.5,3.1-28.7,8.4-42,1.3c2.3,9.6,11.1,46.4,9.9,49.1c-1.4,3.1-8,26-2.4,57.3
	c0,0,1.1,6,7,8.1c5.4-11.8,13.5-63.9,13.5-63.9l2.5-28.1c15.2-4,35.2-11.5,35.2-11.5s-10.4,24.6-8,50.7c0,0,2.9,11.5,8.8,3.1
	C1042.9,1231.9,1068.2,1175.3,1065.8,1166.9z" class="color_x5F_3 element-7"></path>
<path id="color_x5F_2" fill="#19BC81FF" d="M1115.4,921.8c0,0-18.1,18-33.4,22.5c0,0-13.7-2.7-15.8-0.8v14.3c0,0-13.6,5.1-19.2,0
	l-1.3-14.5c0,0-4.5-0.8-9.8-3c-0.4,3.4-0.7,6.5-0.6,7.4c0.3,2.3-20.6,1.4-20,0c0.6-1.2,2.4-16,2.8-19.4c0.5-0.1,1.1-0.3,1.7-0.5h0.2
	c0,0,0,0,0-0.1c3.1-1.4,6.5-4.3,8.8-7.2c0.8-0.2,1.7-0.6,2.8-1.2c5.3-3.1,4.1-12,3-13.7c-0.7-1.1-1.7-1.7-2.4-2
	c0.3-1.4,0.5-2.9,0.7-4.3C1040.6,900.1,1115.4,907.5,1115.4,921.8z M1001.4,1092.6l-1.2,2.5c1-1.1,2.1-2.2,3.2-3.4
	C1002.8,1092.1,1002.1,1092.4,1001.4,1092.6z M1003.2,1070.3L1003.2,1070.3c0.1,0.3,0.2,0.5,0.4,0.8c0,0,2.4,4.2,2.9,6.5
	c0.4,2.1,3.1,5,3.4,7.5c4.3-4.4,8-8,9.6-9.2c5.1-3.7,8.8-50.1,8.8-50.1l-6.7-3.1c0,0-12.5,31.9-13.9,37c-0.3,1.1-1.8,3.4-4,6.3
	C1003.8,1068.3,1003.2,1070.3,1003.2,1070.3z M1050.6,1080.6l-6.9-2.1c-4.9,15.2-4.6,25-4.6,25l-29.1,1c-3.4-2-7.5-4-11.5-5.7
	l-11.6-3.7l3.2-3.4c-0.4-0.1-0.8-0.2-1.2-0.4c-1.1-0.1-2.7-0.6-5-1.6c-1.4,1.6-2.5,2.9-3.2,3.6c-0.1,0.1-0.3,0.3-0.4,0.5
	c-0.2,0.2-0.3,0.3-0.3,0.3c0,0.1,0,0.1-0.1,0.2c-6.5,10.2-8.6,67.5-8.6,67.5c6,14.3,50.2,7.6,47.2,3.9c-1.8-2.2-2.1-21.3-2.1-36.5
	c8.8-4,34.2-15.8,36.1-19.2C1054.8,1105.9,1050.6,1080.6,1050.6,1080.6z" class="color_x5F_2 element-8"></path>
<path id="color_x5F_1" fill="#E31D4C" d="M1133.3,1008.7c-2.8,9.7-10.4,8-10.4,8s0-6.2,0-7.6s-2.8-4.9-4.9-8c-0.2-0.3-0.3-0.6-0.5-1
	c0.7,0.1,1.1,0.1,1.1,0.1l2.2-10.2l-3-1.5c0.1-0.6,0.2-0.9,0.2-0.9c10.1,0.3,11.1,1,9.7,6.9C1126.3,1000.4,1136.1,999,1133.3,1008.7
	z M1112.8,1043.7c-1.2,4.9-9.5,4.6-9.5,4.6s-0.4-0.8-1.2-2.3c-1.3,5.7-6.3,21.1-6.5,20.7c-0.2-0.5,0.2,4.2,5.8-0.7
	s13.1-15.3,15.3-16.8c1.6-1.1-2.3-5.9-4.4-8.3C1112.6,1042.7,1112.8,1043.7,1112.8,1043.7z M992.1,1284.7c0-0.9-0.5-2-1.3-3.1
	c-5-1.8-6.5-6.3-6.9-7.7c-7.8,6.3-8.2,7.5-3.6,11.3c4.6,3.9-4,8.6,4.1,14.7c8,6.1,13.1,0.1,13.1,0.1s-3.7-5-4.6-6.1
	S992.3,1288.4,992.1,1284.7z M1049.8,1254.6c-0.2,0.5-7.2-20.9-6.8-22.7c0,0,0,0,0-0.1c-5.9,8.3-8.7-3.2-8.7-3.2
	c0-0.3,0-0.6-0.1-0.9c-1.3,1.4-7.4,8-5.4,9.3c2.2,1.5,9.7,11.9,15.3,16.8C1049.5,1258.8,1050,1254.1,1049.8,1254.6z M1023,906.5
	c0,0,4.7-5.7,4.6,0.6c-0.1,6.4-1.8,6.1-1.8,6.1s6,0.1,5.9-4.3c-0.1-4.4,3.3-13.4,0.6-17.2c-2.8-3.8-8.1-4.6-8.9-3.7
	c0,0-10.5-14.1-19.1-6.6s-4,18.7-4,18.7s1.3,9.1,4.6,10.1c0,0-2.2-6.9-0.4-8.3c0,0,9.8,5.4,16.3,5c0,0,1,3,1,5.1
	C1021.8,912.1,1024.2,910.5,1023,906.5z M1003.2,1070.3c0,0,2.7-9.3-4.4-10.3c-7.1-1-17.2,3.1-18.8,10.3c0,0-3.5-0.6-3.1,4.5
	c0.3,5-0.7,10.9,4.9,14.1s8.5,2.7,8.5,2.7s2.5,1.3,3.9-2.9c0,0-6.5-1.4-4.7-6.2c1.7-4.9,5.5,2.6,5.5,2.6l2.6-1.7l-2.6-6.4
	C995,1076.9,1001.8,1075.8,1003.2,1070.3z" class="color_x5F_1 element-9"></path>
</svg>
