<?xml version="1.0" standalone="no"?>
<svg version="1.1" id="Layer_1" xmlns="http://www.w3.org/2000/svg" xmlns:xlink="http://www.w3.org/1999/xlink" x="0px" y="0px" width="100%" height="auto" viewBox="110 0 400 90" enable-background="new 110 0 400 90" xml:space="preserve">
<path id="color_x5F_7" fill="#CEFFEDFF" d="M471.4,235.254c0,60.769,8.83,255.661-66.626,255.661
	c-75.457,0-294.174-94.863-294.174-155.633c0-60.768,182.605-222.314,258.062-222.314S471.4,174.486,471.4,235.254z
	 M483.107,113.119c1.061-1.233,1.645-2.874,1.645-4.62c0-3.378-2.275-6.798-6.625-6.798c-2.033,0-3.756,0.753-4.98,2.178
	c-1.061,1.233-1.645,2.874-1.645,4.62c0,3.378,2.275,6.798,6.625,6.798C480.16,115.297,481.883,114.544,483.107,113.119z
	 M481.752,108.499c0,1.014-0.335,1.985-0.919,2.665c-0.646,0.752-1.557,1.133-2.706,1.133c-2.861,0-3.625-2.387-3.625-3.798
	c0-1.014,0.335-1.985,0.919-2.665c0.646-0.752,1.557-1.133,2.706-1.133C480.988,104.701,481.752,107.089,481.752,108.499z
	 M500.024,223.646l-11.079,19.07h22.158L500.024,223.646z M500.024,229.617l5.866,10.098h-11.732L500.024,229.617z M135.226,435.366
	l-11.079,19.07h22.158L135.226,435.366z M135.226,441.339l5.867,10.098H129.36L135.226,441.339z" class="color_x5F_7 element-1"></path>
<path id="color_x5F_6" fill="#7C353A" d="M211.989,330.551c-7.66,23.104-4.846,32.432-3.845,34.687
	c14.855,26.815,52.272,29.697,73.887,23.12c-4.925-17.121-8.749-34.933-10.128-42.681c-2.763-15.524,2.274-36.444,15.027-44.332
	c0,0,3.717-8.934,5.739-15.236C266.563,302.73,219.483,307.946,211.989,330.551z" class="color_x5F_6 element-2"></path>
<path id="color_x5F_5" fill="#F5A6A3" d="M399.039,163.262c-0.224,8.557-8.813,7.928-11.313,4.37
	c-4.72-6.719-10.346-30.371-9.831-44.292c-0.141-0.021-0.275-0.038-0.419-0.061c-3.365-0.532-12.783-6.024-11.379-8.493
	c1.117-1.96,4.854,3.561,5.989,1.164c1.26-2.663-7.823-12.178-5.271-13.393c2.892-1.376,5.628,8.87,7.672,7.42
	c2.042-1.45-7.479-11.254-4.396-12.599c3.084-1.344,5.823,10.781,8.032,9.604c2.209-1.179-5.501-9.539-2.734-10.844
	c3.083-1.456,5.888,11.714,7.241,10.865c2.263-1.42-3.865-8.266-1.522-9.549c1.384-0.756,3.631,3.458,5.384,8.386
	c1.551,4.357,2.499,9.114,1.707,11.914c-0.32,1.132-0.691,2.065-1.124,2.832c2.398,5.529,4.31,12.153,4.31,12.153
	S399.168,158.397,399.039,163.262z M198.103,157.471c1.357-3.124,1.776-14.019-1.06-14.159c-2.253-0.109,0.399,6.008-2.231,5.679
	c-2.924-0.367-6.077-13.138-8.473-11.636c-2.713,1.701,4.464,9.51,2.145,10.455c-2.32,0.945-5.481-12.351-8.271-10.47
	c-2.789,1.881,5.972,10.699,3.792,11.932c-2.182,1.232-5.097-9.76-7.683-8.127c-2.884,1.82,6.724,11.255,5.281,11.94
	c-2.413,1.147-4.9-7.698-7.24-6.409c-1.381,0.762,0.968,4.919,4.187,9.043c2.843,3.647,6.348,7,9.136,7.835
	c0.111,0.033,0.212,0.056,0.321,0.086c2.007,5.853,5.391,12.495,5.391,12.495s11.84,24.059,15.256,27.522l9.875-9.442
	c-3.638-9.803-13.414-25.922-21.686-34.144C197.268,159.305,197.681,158.442,198.103,157.471z M303.647,209.853
	c-0.042-0.056-0.083-0.113-0.124-0.169C303.435,209.564,303.734,209.975,303.647,209.853z M334.156,161.594l-0.284,0.141
	l-0.424-10.521c-0.197-4.896-2.494-9.252-6.049-12.326c-3.563-3.074-8.376-4.874-13.596-4.665
	c-5.305,0.214-10.015,2.457-13.316,5.893c-0.032,0.027-0.065,0.063-0.099,0.107c-3.152,3.31-4.993,7.739-4.801,12.515l0.428,10.633
	l-0.551-0.219c-2.594-1.033-5.534,0.232-6.569,2.827c-0.784,1.969,1.637,6.093,2.827,6.568l4.738,1.887l0.047,1.171
	c0.196,4.903,2.509,9.653,6.082,13.138c1.155,1.122,2.453,2.092,3.843,2.91l-0.004,0.02l-0.54,3.009l-2.241,15.172
	c3.623,4.785,8.488,7.854,13.715,7.643c5.2-0.209,9.78-3.627,13.006-8.646l-0.825-3.18l-3.565-13.74l-0.182-0.698
	c6.429-4.289,8.771-12.216,8.572-17.151l-0.052-1.283l4.327-2.14c2.503-1.24,3.527-4.271,2.288-6.775
	C339.694,161.381,336.661,160.356,334.156,161.594z" class="color_x5F_5 element-3"></path>
<path id="color_x5F_4" fill="#CEFFEDFF" d="M306.382,191.652l-0.004,0.02l-0.539,3.009l-2.242,15.172
	c0.088,0.123-0.211-0.288-0.123-0.169c0.041,0.056,0.082,0.113,0.123,0.169c3.623,4.785,8.488,7.854,13.715,7.644
	c5.201-0.209,9.781-3.628,13.006-8.646l-0.824-3.18l-3.566-13.74l-0.182-0.698c-2.529,1.688-5.689,2.812-9.578,2.969
	C312.63,194.343,309.286,193.363,306.382,191.652z" class="color_x5F_4 element-4"></path>
<path id="color_x5F_3_1_" fill="#CE0921" d="M348.967,161.933c-1.956,13.821-11.029,24.88-22.989,29.997l-0.182-0.699
	c6.428-4.288,8.771-12.215,8.572-17.15l-0.052-1.283l4.327-2.14c2.503-1.24,3.527-4.271,2.288-6.775
	c-1.237-2.503-4.271-3.527-6.775-2.29l-0.284,0.141l0.205,5.048l-1.746,4.226l-0.379-9.345c0.633-8.502-5.441-16.157-14.009-17.369
	c-4.681-0.663-9.187,0.729-12.592,3.494c-0.016-0.011-0.024-0.012-0.04-0.023c-0.002,0.017,0.003,0.043,0,0.061
	c0.064,3.515-2.128,6.615-5.376,8.158c-0.631,0.309-1.306,0.559-2.013,0.734l0.626,15.648l-2.36-4.617l-0.176-4.381l-0.548-0.218
	c-2.594-1.033-5.534,0.232-6.569,2.827c-0.784,1.969,1.637,6.093,2.827,6.568l4.738,1.887l0.047,1.171
	c0.196,4.903,2.509,9.653,6.082,13.138c1.157,1.123,2.448,2.11,3.839,2.929l-0.54,3.009c-0.134-0.018-0.269-0.027-0.403-0.046
	c-13.737-1.944-24.742-10.922-29.9-22.774c-0.332-0.762-0.635-1.536-0.917-2.32c-2.013-4.975-6.933-16.481-10.581-19.618
	c-3.525-3.031-17.579-6.063-17.579-6.063c-15.193-2.15-25.767-16.21-23.617-31.403s16.21-25.766,31.403-23.616
	c5.1,0.722,9.674,2.789,13.426,5.786c2.28,1.822,4.253,3.987,5.854,6.407c4.834,5.105,11.506,11.696,15.373,13.553
	c4.056,1.947,14.437,2.999,21.171,3.494c2.025-0.038,4.078,0.079,6.148,0.372C337.303,121.429,351.943,140.896,348.967,161.933z
	 M173.835,446.527l7.927,22.331l7.978-25.244L173.835,446.527z M313.072,494.001h29.447l-21.825-15.85L313.072,494.001z
	 M150,168.601h-14.773v3H150V168.601z M144.113,162.715h-3v14.773h3V162.715z M507.411,449.091h-14.773v3h14.773V449.091z
	 M501.524,443.204h-3v14.773h3V443.204z" class="color_x5F_3_1_ element-5"></path>
<path id="color_x5F_2" fill="#240C0D" d="M307.128,168.223c-0.224-0.543-0.64-1.26-1.334-1.17c-0.646,0.083-1.088,0.671-1.379,1.198
	c-0.532,0.963-2.045,0.166-1.51-0.803c0.579-1.049,1.665-2.177,2.979-2.11c1.465,0.074,2.343,1.071,2.872,2.365
	C309.176,168.725,307.543,169.235,307.128,168.223z M327.177,166.962c-0.528-1.293-1.406-2.291-2.872-2.365
	c-1.314-0.067-2.399,1.061-2.979,2.11c-0.535,0.968,0.978,1.766,1.51,0.803c0.291-0.527,0.733-1.115,1.38-1.198
	c0.694-0.09,1.11,0.626,1.334,1.17C325.964,168.494,327.596,167.984,327.177,166.962z M208.266,365.5
	c-0.036-0.072-0.078-0.163-0.122-0.263c-0.173-0.313-0.338-0.633-0.505-0.951C207.91,364.827,208.13,365.246,208.266,365.5z
	 M303.647,209.853l-0.174-0.029c-1.456-0.203,0.388-6.396-16.544-9.811c0,0-49.015-4.471-68.4-5.798l-9.875,9.442
	c-0.575,2.523,29.314,13.792,29.314,13.792s27.299,8.835,40.556,11.68c0.014,0.792,0.016,1.591,0,2.396
	c-0.137,7.057-1.471,14.508-5.189,20.981c-11.132,19.382-44.334,24.495-64.894,50.712c-15.485,19.746-7.649,45.241-2.836,56.631
	c0.805,1.904,1.522,3.416,2.035,4.438c0.167,0.318,0.332,0.639,0.505,0.951c-1-2.255-3.815-11.582,3.845-34.687
	c7.494-22.604,54.574-27.82,80.68-44.442c1.691-1.077,3.284-2.207,4.783-3.387c3.118-2.454,5.796-5.142,7.861-8.148
	C323.695,247.802,303.647,209.853,303.647,209.853z M381.879,189.318c0,0,23.11-26.608,15.971-29.412
	c-8.317-3.264-29,12.747-44.719,28.938l-0.134-0.257l-21.983,19.686c0.672,1.571,10.444,24.28,10.444,43.096
	c0,26.718,1.077,44.892,0.555,54.258c4.396-9.983,13.248-58.706,12.321-64.411c-1.04-6.402-6.846-11.43-7.011-12.536l8.257-9.964
	C365.653,208.534,381.879,189.318,381.879,189.318z M333.651,319.198c-0.086,0.087-0.142,0.14-0.142,0.14
	c-8.31-2.629-18.77-6.551-28.66-10.513c-6.472-2.593-12.702-5.203-17.92-7.48c-12.752,7.888-17.79,28.808-15.027,44.332
	c1.379,7.748,5.203,25.56,10.128,42.681c2.185,7.594,4.585,15.052,7.086,21.435c-0.646-0.269-1.304-0.543-1.985-0.827
	c-13.836-5.779-32.848,3.391-47.218,9.885c-16.625,7.516-50.174,24.765-50.174,24.765s113.675-15.316,114.445-15.793
	c6.947-4.299,12.913-32.799,15.562-60.021c10.668,5.235,23.143,10.915,34.105,14.909c-11.423,8.077-16.148,26.856-20.074,41.041
	c-4.866,17.583-13.084,54.401-13.084,54.401s61-93.138,61.111-93.927C383.268,373.884,355.76,339.727,333.651,319.198z" class="color_x5F_2 element-6"></path>
<path id="color_x5F_1" fill="#68EEBEFF" d="M121.023,244.386c0.505,0,0.999,0.032,1.488,0.073c-0.944-2.564-1.488-5.319-1.488-8.207
	c0-13.289,10.921-24.063,24.393-24.063c12.75,0,23.201,9.658,24.282,21.958c2.737-6.056,8.877-10.284,16.031-10.284
	c9.694,0,17.553,7.752,17.553,17.314c0,1.396-0.184,2.746-0.5,4.046c3.262-2.343,7.096-3.946,11.26-4.565
	c1.245-0.186,2.517-0.292,3.814-0.292c0.427,0,0.852,0.012,1.274,0.031c12.8,0.617,23.125,10.484,24.281,22.969H104.462
	c-0.121-0.798-0.202-1.61-0.202-2.44C104.26,251.792,111.767,244.386,121.023,244.386z M303.473,209.824l0.174,0.029
	C303.644,209.849,303.582,209.839,303.473,209.824z M208.266,365.5c0.106,0.213,0.174,0.319,0.174,0.319
	S208.377,365.706,208.266,365.5z M302.64,307.935c0.71,0.287,1.422,0.574,2.139,0.861C304.062,308.51,303.35,308.222,302.64,307.935
	z M295.903,305.168c1.277,0.532,2.58,1.071,3.904,1.613C298.482,306.239,297.18,305.7,295.903,305.168z M302.165,307.742
	c-0.691-0.28-1.381-0.56-2.063-0.839C300.785,307.182,301.472,307.462,302.165,307.742z M295.364,304.943
	c-0.476-0.199-0.941-0.395-1.408-0.592C294.423,304.549,294.888,304.744,295.364,304.943z M295.273,284.349
	c-0.08,0.057-0.158,0.114-0.238,0.17C295.115,284.463,295.193,284.406,295.273,284.349z M289.221,302.338
	c0.291,0.125,0.589,0.253,0.885,0.379C289.81,302.591,289.511,302.463,289.221,302.338z M291.573,303.344
	c0.387,0.165,0.777,0.331,1.171,0.497C292.349,303.674,291.96,303.509,291.573,303.344z M341.458,251.368
	c-1.16-19.729-7.865-37.066-10.444-43.096l-0.646,0.578c-3.226,5.018-7.806,8.437-13.006,8.646
	c-5.227,0.21-10.092-2.858-13.715-7.643c0,0,20.048,37.95,1.665,64.721c-2.064,3.006-4.743,5.695-7.861,8.148
	c-0.704,0.554-1.43,1.097-2.179,1.627c-0.08,0.057-0.158,0.114-0.238,0.17c-0.77,0.54-1.554,1.072-2.366,1.589
	c-2.022,6.302-5.739,15.236-5.739,15.236c0.742,0.324,1.511,0.656,2.292,0.993c0.291,0.125,0.589,0.253,0.885,0.379
	c0.483,0.207,0.971,0.416,1.467,0.627c0.387,0.165,0.777,0.331,1.171,0.497c0.399,0.17,0.806,0.34,1.211,0.511
	c0.467,0.197,0.933,0.393,1.408,0.592c0.178,0.074,0.36,0.149,0.539,0.225c1.277,0.532,2.58,1.071,3.904,1.613
	c0.099,0.041,0.196,0.081,0.296,0.122c0.682,0.279,1.371,0.559,2.063,0.839c0.158,0.064,0.316,0.129,0.476,0.193
	c0.71,0.287,1.422,0.574,2.139,0.861c0.023,0.009,0.047,0.019,0.07,0.028c9.891,3.962,20.351,7.884,28.66,10.513
	c0,0,0.056-0.053,0.142-0.14c0.742-0.748,4.487-4.776,8.361-13.571C342.535,296.26,343.026,278.04,341.458,251.368z
	 M411.754,210.347v-8.334c0-1.104-0.896-2-2-2s-2,0.896-2,2v8.334c0,1.104,0.896,2,2,2S411.754,211.451,411.754,210.347z
	 M411.754,240.555v-8.334c0-1.104-0.896-2-2-2s-2,0.896-2,2v8.334c0,1.104,0.896,2,2,2S411.754,241.659,411.754,240.555z
	 M400.817,221.284c0-1.104-0.896-2-2-2h-8.334c-1.104,0-2,0.896-2,2s0.896,2,2,2h8.334
	C399.922,223.284,400.817,222.388,400.817,221.284z M431.025,221.284c0-1.104-0.896-2-2-2h-8.333c-1.104,0-2,0.896-2,2s0.896,2,2,2
	h8.333C430.13,223.284,431.025,222.388,431.025,221.284z M403.434,214.964c0.781-0.781,0.781-2.047,0-2.829l-5.894-5.893
	c-0.781-0.78-2.047-0.781-2.828,0s-0.781,2.047,0,2.829l5.894,5.893c0.391,0.39,0.902,0.585,1.414,0.585
	S403.044,215.355,403.434,214.964z M424.796,236.324c0.781-0.781,0.781-2.047,0-2.828l-5.894-5.893
	c-0.781-0.781-2.047-0.781-2.828,0c-0.781,0.781-0.781,2.047,0,2.828l5.894,5.893c0.391,0.391,0.902,0.586,1.414,0.586
	S424.405,236.715,424.796,236.324z M397.541,236.324l5.894-5.892c0.781-0.781,0.781-2.047,0-2.829s-2.047-0.781-2.828,0
	l-5.894,5.893c-0.781,0.781-0.781,2.047,0,2.829c0.391,0.391,0.902,0.586,1.414,0.586S397.15,236.715,397.541,236.324z
	 M418.902,214.964l5.894-5.893c0.781-0.781,0.781-2.047,0-2.828c-0.781-0.781-2.047-0.781-2.828,0l-5.894,5.893
	c-0.781,0.781-0.781,2.047,0,2.828c0.391,0.391,0.902,0.586,1.414,0.586S418.511,215.355,418.902,214.964z M401.04,424.028v-8.334
	c0-1.105-0.896-2-2-2s-2,0.895-2,2v8.334c0,1.104,0.896,2,2,2S401.04,425.132,401.04,424.028z M401.04,454.235v-8.334
	c0-1.104-0.896-2-2-2s-2,0.896-2,2v8.334c0,1.105,0.896,2,2,2S401.04,455.341,401.04,454.235z M390.103,434.965c0-1.104-0.896-2-2-2
	h-8.334c-1.104,0-2,0.896-2,2s0.896,2,2,2h8.334C389.208,436.965,390.103,436.069,390.103,434.965z M420.311,434.965
	c0-1.104-0.896-2-2-2h-8.333c-1.104,0-2,0.896-2,2s0.896,2,2,2h8.333C419.416,436.965,420.311,436.069,420.311,434.965z
	 M392.72,428.645c0.781-0.781,0.781-2.048,0-2.829l-5.894-5.893c-0.781-0.78-2.047-0.78-2.828,0.001s-0.781,2.047,0,2.828
	l5.894,5.893c0.391,0.391,0.902,0.586,1.414,0.586S392.33,429.036,392.72,428.645z M414.082,450.005
	c0.781-0.781,0.781-2.047,0-2.828l-5.894-5.893c-0.781-0.781-2.047-0.781-2.828,0s-0.781,2.047,0,2.828l5.894,5.893
	c0.391,0.391,0.902,0.586,1.414,0.586S413.691,450.395,414.082,450.005z M386.827,450.005l5.894-5.892
	c0.781-0.781,0.781-2.048,0-2.829s-2.047-0.78-2.828,0l-5.894,5.893c-0.781,0.781-0.781,2.047,0,2.828
	c0.391,0.391,0.902,0.586,1.414,0.586S386.436,450.395,386.827,450.005z M408.188,428.645l5.894-5.894
	c0.781-0.78,0.781-2.048,0-2.828c-0.781-0.781-2.047-0.781-2.828,0l-5.894,5.894c-0.781,0.78-0.781,2.047,0,2.828
	c0.391,0.391,0.902,0.586,1.414,0.586S407.798,429.036,408.188,428.645z M158.497,318.612v-8.334c0-1.104-0.896-2-2-2s-2,0.896-2,2
	v8.334c0,1.104,0.896,2,2,2S158.497,319.717,158.497,318.612z M158.497,348.82v-8.334c0-1.104-0.896-2-2-2s-2,0.896-2,2v8.334
	c0,1.104,0.896,2,2,2S158.497,349.925,158.497,348.82z M147.56,329.55c0-1.105-0.896-2-2-2h-8.334c-1.104,0-2,0.895-2,2
	c0,1.104,0.896,2,2,2h8.334C146.665,331.55,147.56,330.653,147.56,329.55z M177.768,329.55c0-1.105-0.896-2-2-2h-8.333
	c-1.104,0-2,0.895-2,2c0,1.104,0.896,2,2,2h8.333C176.873,331.55,177.768,330.653,177.768,329.55z M150.177,323.229
	c0.781-0.781,0.781-2.047,0-2.828l-5.894-5.893c-0.781-0.781-2.047-0.781-2.828,0s-0.781,2.047,0,2.828l5.894,5.893
	c0.391,0.391,0.902,0.586,1.414,0.586S149.787,323.62,150.177,323.229z M171.539,344.59c0.781-0.781,0.781-2.048,0-2.828
	l-5.894-5.894c-0.781-0.781-2.047-0.781-2.828,0s-0.781,2.048,0,2.828l5.894,5.894c0.391,0.391,0.902,0.586,1.414,0.586
	S171.148,344.98,171.539,344.59z M144.284,344.59l5.894-5.892c0.781-0.781,0.781-2.048,0-2.829s-2.047-0.78-2.828-0.001
	l-5.894,5.893c-0.781,0.781-0.781,2.048,0,2.829c0.391,0.391,0.902,0.586,1.414,0.586S143.893,344.98,144.284,344.59z
	 M165.645,323.229l5.894-5.893c0.781-0.781,0.781-2.048,0-2.828c-0.781-0.781-2.047-0.781-2.828,0l-5.894,5.893
	c-0.781,0.781-0.781,2.047,0,2.828c0.391,0.391,0.902,0.586,1.414,0.586S165.255,323.62,165.645,323.229z M499.607,309.825
	c-0.505,0-0.999,0.033-1.488,0.074c0.944-2.564,1.488-5.32,1.488-8.207c0-13.29-10.921-24.063-24.393-24.063
	c-9.549,0-20.127,8.841-25.292,18.447c-3.602-5.965-10.126-9.967-17.602-9.967c-11.359,0-20.567,9.208-20.567,20.568
	c0,0.26,0.029,0.513,0.039,0.771c-1.661-0.618-3.398-1.082-5.203-1.35c-1.245-0.186-2.517-0.292-3.814-0.292
	c-0.428,0-0.852,0.012-1.274,0.031c-12.801,0.617-23.126,10.484-24.281,22.969h138.949c0.121-0.798,0.202-1.609,0.202-2.439
	C516.371,317.232,508.863,309.825,499.607,309.825z" class="color_x5F_1 element-7"></path>
</svg>
